<?xml version="1.0" encoding="utf-8" standalone="yes"?>
<!DOCTYPE svg PUBLIC "-//W3C//DTD SVG 1.1//EN" "http://www.w3.org/Graphics/SVG/1.1/DTD/svg11.dtd">
<svg width="852" height="618" viewBox="0 0 852 618" style="fill:none;stroke:none;fill-rule:evenodd;clip-rule:evenodd;stroke-linecap:round;stroke-linejoin:round;stroke-miterlimit:1.5;" version="1.1" xmlns="http://www.w3.org/2000/svg" xmlns:xlink="http://www.w3.org/1999/xlink"><style class="text-font-style fontImports" data-font-family="Roboto">@import url(https://fonts.googleapis.com/css2?family=Roboto:wght@400;700&amp;amp;display=block);</style><g id="items" style="isolation: isolate"><g id="blend" style="mix-blend-mode: normal"><g id="g-root-cp_0_g-0_18jgnel1mbxoum-fill" data-item-order="-419678" transform="translate(356, 158)"><g id="cp_0_g-0_18jgnel1mbxoum-fill-merged" stroke="none" fill="#666666"><g><path d="M460 10L370 64.003 V118L280 172 V226L190 280 V334L100 388L10 334 V349.609L100 403.609L202 342.109 V288.009L292 234 V180.009L382 125.981 V72.012L460 25.201 V10"></path></g></g><g id="cp_0_g-0_18jgnel1mbxoum-fill-merged" stroke="none" fill="#666666"><g><path d="M370 64L280 10 V64L370 118 V64"></path></g></g><g id="cp_0_g-0_18jgnel1mbxoum-fill-merged" stroke="none" fill="#666666"><g><path d="M280 172L190 118 V172L280 226 V172"></path></g></g><g id="cp_0_g-0_18jgnel1mbxoum-fill-merged" stroke="none" fill="#666666"><g><path d="M190 280L100 226 V281L190 334 V280"></path></g></g></g><g id="g-root-cp_1_g-1_v8mm4d1mbxn9r-fill" data-item-order="-419668" transform="translate(356, 428)"><g id="cp_1_g-1_v8mm4d1mbxn9r-fill-merged" stroke="none" fill="#4e88e7"><g><path d="M100 10L10 64L100 118L190 64L100 10 M29 64L100 22L171 64L100 106L29 64"></path></g></g></g><g id="g-root-cp_2_g-2_qst3zx1mbxo20-fill" data-item-order="-419664" transform="translate(446, 320)"><g id="cp_2_g-2_qst3zx1mbxo20-fill-merged" stroke="none" fill="#3cc583"><g><path d="M100 10L10 64L100 118L190 64L100 10 M29 64L100 22L171 64L100 106L29 64"></path></g></g></g><g id="g-root-cp_3_g-3_dhz2pp1mbxmh5-fill" data-item-order="-419660" transform="translate(536, 212)"><g id="cp_3_g-3_dhz2pp1mbxmh5-fill-merged" stroke="none" fill="#92bd39"><g><path d="M100 10L10 64L100 118L190 64L100 10 M29 64L100 22L171 64L100 106L29 64"></path></g></g></g><g id="g-root-cp_4_g-4_925kl91mbxn9e-fill" data-item-order="-419656" transform="translate(626, 104)"><g id="cp_4_g-4_925kl91mbxn9e-fill-merged" stroke="none" fill="#e0cb15"><g><path d="M100 10L10 64L100 118L190 64L100 10 M29 64L100 22L171 64L100 106L29 64"></path></g></g></g><g id="g-root-cp_2_text-2_6ikcd1mbxo23-fill" data-item-order="-419644" transform="translate(170, 338)"><g id="cp_2_text-2_6ikcd1mbxo23-fill-merged" stroke="none" fill="#3cc583"><g><path d="M10 10 H16 V82 H10 V10"></path></g></g></g><g id="g-root-cp_3_text-3_1lwsl191mbxma4-fill" data-item-order="-419630" transform="translate(260, 230)"><g id="cp_3_text-3_1lwsl191mbxma4-fill-merged" stroke="none" fill="#92bd39"><g><path d="M10 10 H16 V82 H10 V10"></path></g></g></g><g id="g-root-cp_1_text-1_1hgz2wt1mbxn2d-fill" data-item-order="-419616" transform="translate(80, 452)"><g id="cp_1_text-1_1hgz2wt1mbxn2d-fill-merged" stroke="none" fill="#4e88e7"><g><path d="M10 10 H16 V82 H10 V10"></path></g></g></g><g id="g-root-cp_4_text-4_145ikjh1mbxona-fill" data-item-order="-419600" transform="translate(350, 122)"><g id="cp_4_text-4_145ikjh1mbxona-fill-merged" stroke="none" fill="#e0cb15"><g><path d="M10 10 H16 V82 H10 V10"></path></g></g></g><g id="g-root-tx_3_qvae7x1mlrnk1-fill" data-item-order="0" transform="translate(206, 230)"><g id="tx_3_qvae7x1mlrnk1-fill-merged" stroke="none" fill="#92bd39"><g><text style="font: bold 25px Roboto, sans-serif; white-space: pre;" font-weight="bold" font-size="25px" font-family="Roboto, sans-serif"><tspan x="14.82" y="42.6" dominant-baseline="ideographic">3</tspan></text></g></g></g><g id="g-root-tx_llm_1usez5p1mlt2iz-fill" data-item-order="0" transform="translate(368, 158)"><g id="tx_llm_1usez5p1mlt2iz-fill-merged" stroke="none" fill="#484848"><g><text style="font: 15px Roboto, sans-serif; white-space: pre;" font-size="15px" font-family="Roboto, sans-serif"><tspan x="12" y="27.6" dominant-baseline="ideographic">LLM이 사용할 시스템 프롬프트를 자</tspan><tspan x="12" y="45.6" dominant-baseline="ideographic">동 생성합니다.</tspan></text></g></g></g><g id="g-root-tx__dhbzi51mlq7ey-fill" data-item-order="0" transform="translate(278, 230)"><g id="tx__dhbzi51mlq7ey-fill-merged" stroke="none" fill="#92bd39"><g><text style="font: bold 20px Roboto, sans-serif; white-space: pre;" font-weight="bold" font-size="20px" font-family="Roboto, sans-serif"><tspan x="12" y="34" dominant-baseline="ideographic">데이터 등록</tspan></text></g></g></g><g id="g-root-ic_star_qqac1p1mlm0p0-fill" data-item-order="0" transform="translate(602, 242)"></g><g id="g-root-tx__v9uy651mlq77x-fill" data-item-order="0" transform="translate(278, 266)"><g id="tx__v9uy651mlq77x-fill-merged" stroke="none" fill="#484848"><g><text style="font: 15px Roboto, sans-serif; white-space: pre;" font-size="15px" font-family="Roboto, sans-serif"><tspan x="12" y="27.6" dominant-baseline="ideographic">전처리된 데이터를 데이터베이스에 등</tspan><tspan x="12" y="45.6" dominant-baseline="ideographic">록합니다.</tspan></text></g></g></g><g id="g-root-tx__m7cpz11mlt159-fill" data-item-order="0" transform="translate(98, 488)"><g id="tx__m7cpz11mlt159-fill-merged" stroke="none" fill="#484848"><g><text style="font: 15px Roboto, sans-serif; white-space: pre;" font-size="15px" font-family="Roboto, sans-serif"><tspan x="12" y="27.6" dominant-baseline="ideographic">등록된 엑셀 데이터를 분석하여 통찰력</tspan><tspan x="12" y="45.6" dominant-baseline="ideographic">을 얻습니다.</tspan></text></g></g></g><g id="g-root-ic_idea_13z94e51mlndoi-fill" data-item-order="0" transform="translate(692, 134)"></g><g id="g-root-tx__1utnxbx1mlkn44-fill" data-item-order="0" transform="translate(188, 338)"><g id="tx__1utnxbx1mlkn44-fill-merged" stroke="none" fill="#3cc583"><g><text style="font: bold 20px Roboto, sans-serif; white-space: pre;" font-weight="bold" font-size="20px" font-family="Roboto, sans-serif"><tspan x="12" y="34" dominant-baseline="ideographic">데이터 전처리</tspan></text></g></g></g><g id="g-root-ic_fold_dcyb991mlt2bs-fill" data-item-order="0" transform="translate(512, 350)"></g><g id="g-root-tx__qrjjp91mllzie-fill" data-item-order="0" transform="translate(188, 374)"><g id="tx__qrjjp91mllzie-fill-merged" stroke="none" fill="#484848"><g><text style="font: 15px Roboto, sans-serif; white-space: pre;" font-size="15px" font-family="Roboto, sans-serif"><tspan x="12" y="27.6" dominant-baseline="ideographic">엑셀 구조를 변경하고, 데이터를 보완</tspan><tspan x="12" y="45.6" dominant-baseline="ideographic">하여 분석을 준비합니다.</tspan></text></g></g></g><g id="g-root-tx__vai1dp1mbxma7-fill" data-item-order="0" transform="translate(230, 38)"><g id="tx__vai1dp1mbxma7-fill-merged" stroke="none" fill="#484848"><g><text style="font: bold 25px Roboto, sans-serif; white-space: pre;" font-weight="bold" font-size="25px" font-family="Roboto, sans-serif"><tspan x="14.17" y="42.6" dominant-baseline="ideographic">엑셀 데이터를 데이터베이스에 저장</tspan></text></g></g></g><g id="g-root-tx_1_1happx91mlt2j3-fill" data-item-order="0" transform="translate(26, 452)"><g id="tx_1_1happx91mlt2j3-fill-merged" stroke="none" fill="#4e88e7"><g><text style="font: bold 25px Roboto, sans-serif; white-space: pre;" font-weight="bold" font-size="25px" font-family="Roboto, sans-serif"><tspan x="14.82" y="42.6" dominant-baseline="ideographic">1</tspan></text></g></g></g><g id="g-root-tx__me7xx91mlszk9-fill" data-item-order="0" transform="translate(368, 122)"><g id="tx__me7xx91mlszk9-fill-merged" stroke="none" fill="#e0cb15"><g><text style="font: bold 20px Roboto, sans-serif; white-space: pre;" font-weight="bold" font-size="20px" font-family="Roboto, sans-serif"><tspan x="12" y="34" dominant-baseline="ideographic">프롬프트 생성</tspan></text></g></g></g><g id="g-root-tx__1qf3ddp1mlrkzv-fill" data-item-order="0" transform="translate(98, 452)"><g id="tx__1qf3ddp1mlrkzv-fill-merged" stroke="none" fill="#4e88e7"><g><text style="font: bold 20px Roboto, sans-serif; white-space: pre;" font-weight="bold" font-size="20px" font-family="Roboto, sans-serif"><tspan x="12" y="34" dominant-baseline="ideographic">데이터 분석</tspan></text></g></g></g><g id="g-root-ic_spre_8dzlp1mbxn2g-fill" data-item-order="0" transform="translate(422, 458)"></g><g id="g-root-tx_4_dbppq51mlug3p-fill" data-item-order="0" transform="translate(296, 122)"><g id="tx_4_dbppq51mlug3p-fill-merged" stroke="none" fill="#e0cb15"><g><text style="font: bold 25px Roboto, sans-serif; white-space: pre;" font-weight="bold" font-size="25px" font-family="Roboto, sans-serif"><tspan x="14.82" y="42.6" dominant-baseline="ideographic">4</tspan></text></g></g></g><g id="g-root-tx_2_1lrs67x1mlndvn-fill" data-item-order="0" transform="translate(116, 338)"><g id="tx_2_1lrs67x1mlndvn-fill-merged" stroke="none" fill="#3cc583"><g><text style="font: bold 25px Roboto, sans-serif; white-space: pre;" font-weight="bold" font-size="25px" font-family="Roboto, sans-serif"><tspan x="14.82" y="42.6" dominant-baseline="ideographic">2</tspan></text></g></g></g><g id="g-root-cp_0_g-0_18jgnel1mbxoum-stroke" data-item-order="-419678" transform="translate(356, 158)"><g id="cp_0_g-0_18jgnel1mbxoum-stroke" fill="none" stroke-linecap="round" stroke-linejoin="round" stroke-miterlimit="4" stroke="#ffffff" stroke-width="2"><g><path d="M 460 10L 370 64.0029L 370 118L 280 172L 280 226L 190 280L 190 334L 100 388L 10 334L 10 349.6089L 100 403.6089L 202 342.1089L 202 288.009L 292 234L 292 180.009L 382 125.9815L 382 72.0119L 460 25.2012L 460 10Z"></path></g></g><g id="cp_0_g-0_18jgnel1mbxoum-stroke" fill="none" stroke-linecap="round" stroke-linejoin="round" stroke-miterlimit="4" stroke="#ffffff" stroke-width="2"><g><path d="M 370 64L 280 10L 280 64L 370 118L 370 64Z"></path></g></g><g id="cp_0_g-0_18jgnel1mbxoum-stroke" fill="none" stroke-linecap="round" stroke-linejoin="round" stroke-miterlimit="4" stroke="#ffffff" stroke-width="2"><g><path d="M 280 172L 190 118L 190 172L 280 226L 280 172Z"></path></g></g><g id="cp_0_g-0_18jgnel1mbxoum-stroke" fill="none" stroke-linecap="round" stroke-linejoin="round" stroke-miterlimit="4" stroke="#ffffff" stroke-width="2"><g><path d="M 190 280L 100 226L 100 281L 190 334L 190 280Z"></path></g></g></g><g id="g-root-cp_1_g-1_v8mm4d1mbxn9r-stroke" data-item-order="-419668" transform="translate(356, 428)"><g id="cp_1_g-1_v8mm4d1mbxn9r-stroke" fill="none" stroke-linecap="round" stroke-linejoin="round" stroke-miterlimit="4" stroke="#ffffff" stroke-width="2"><g><path d="M 100 10L 10 64L 100 118L 190 64L 100 10ZM 29 64L 100 22L 171 64L 100 106L 29 64Z"></path></g></g></g><g id="g-root-cp_2_g-2_qst3zx1mbxo20-stroke" data-item-order="-419664" transform="translate(446, 320)"><g id="cp_2_g-2_qst3zx1mbxo20-stroke" fill="none" stroke-linecap="round" stroke-linejoin="round" stroke-miterlimit="4" stroke="#ffffff" stroke-width="2"><g><path d="M 100 10L 10 64L 100 118L 190 64L 100 10ZM 29 64L 100 22L 171 64L 100 106L 29 64Z"></path></g></g></g><g id="g-root-cp_3_g-3_dhz2pp1mbxmh5-stroke" data-item-order="-419660" transform="translate(536, 212)"><g id="cp_3_g-3_dhz2pp1mbxmh5-stroke" fill="none" stroke-linecap="round" stroke-linejoin="round" stroke-miterlimit="4" stroke="#ffffff" stroke-width="2"><g><path d="M 100 10L 10 64L 100 118L 190 64L 100 10ZM 29 64L 100 22L 171 64L 100 106L 29 64Z"></path></g></g></g><g id="g-root-cp_4_g-4_925kl91mbxn9e-stroke" data-item-order="-419656" transform="translate(626, 104)"><g id="cp_4_g-4_925kl91mbxn9e-stroke" fill="none" stroke-linecap="round" stroke-linejoin="round" stroke-miterlimit="4" stroke="#ffffff" stroke-width="2"><g><path d="M 100 10L 10 64L 100 118L 190 64L 100 10ZM 29 64L 100 22L 171 64L 100 106L 29 64Z"></path></g></g></g><g id="g-root-cp_2_text-2_6ikcd1mbxo23-stroke" data-item-order="-419644" transform="translate(170, 338)"><g id="cp_2_text-2_6ikcd1mbxo23-stroke" fill="none" stroke-linecap="round" stroke-linejoin="round" stroke-miterlimit="4" stroke="#ffffff" stroke-width="2"><g><path d="M 10 10L 16 10L 16 82L 10 82Z"></path></g></g></g><g id="g-root-cp_3_text-3_1lwsl191mbxma4-stroke" data-item-order="-419630" transform="translate(260, 230)"><g id="cp_3_text-3_1lwsl191mbxma4-stroke" fill="none" stroke-linecap="round" stroke-linejoin="round" stroke-miterlimit="4" stroke="#ffffff" stroke-width="2"><g><path d="M 10 10L 16 10L 16 82L 10 82Z"></path></g></g></g><g id="g-root-cp_1_text-1_1hgz2wt1mbxn2d-stroke" data-item-order="-419616" transform="translate(80, 452)"><g id="cp_1_text-1_1hgz2wt1mbxn2d-stroke" fill="none" stroke-linecap="round" stroke-linejoin="round" stroke-miterlimit="4" stroke="#ffffff" stroke-width="2"><g><path d="M 10 10L 16 10L 16 82L 10 82Z"></path></g></g></g><g id="g-root-cp_4_text-4_145ikjh1mbxona-stroke" data-item-order="-419600" transform="translate(350, 122)"><g id="cp_4_text-4_145ikjh1mbxona-stroke" fill="none" stroke-linecap="round" stroke-linejoin="round" stroke-miterlimit="4" stroke="#ffffff" stroke-width="2"><g><path d="M 10 10L 16 10L 16 82L 10 82Z"></path></g></g></g><g id="g-root-tx_3_qvae7x1mlrnk1-stroke" data-item-order="0" transform="translate(206, 230)"></g><g id="g-root-tx_llm_1usez5p1mlt2iz-stroke" data-item-order="0" transform="translate(368, 158)"></g><g id="g-root-tx__dhbzi51mlq7ey-stroke" data-item-order="0" transform="translate(278, 230)"></g><g id="g-root-ic_star_qqac1p1mlm0p0-stroke" data-item-order="0" transform="translate(602, 242)"><g id="ic_star_qqac1p1mlm0p0-stroke" fill="none" stroke-linecap="round" stroke-linejoin="round" stroke-miterlimit="4" stroke="#484848" stroke-width="2"><g><path d="M 11.044 19.001999C 11.044001 23.420277 19.550591 27.002001 30.044001 27.002001C 40.537411 27.002001 49.043999 23.420277 49.043999 19.001999C 49.043999 14.583722 40.537411 11.002 30.044001 11.002C 19.550591 11.002 11.044001 14.583722 11.044001 19.001999ZM 30.044001 35C 19.552 35 11.044 31.42 11.044 27M 27.044001 43.900002C 17.978001 43.299999 11.044 39.989998 11.044 36.001999M 28.044001 52.959999C 18.492001 52.537998 11.044 49.136002 11.044 45.001999L 11.044 19M 49.043999 19.001999L 49.043999 28.002001M 46.450001 33.862L 49.528 41L 55.528 41C 56.147591 40.976574 56.715263 41.344429 56.947006 41.919525C 57.178749 42.494625 57.024727 43.153294 56.562 43.566002L 51.362 48.198002L 54.242001 54.824001C 54.505165 55.447517 54.339153 56.169498 53.830082 56.615448C 53.321007 57.061398 52.583458 57.130939 52.000004 56.788002L 45.037998 52.866001L 38.077999 56.787998C 37.494904 57.124634 36.762085 57.051998 36.25642 56.607445C 35.750755 56.162895 35.584839 55.445415 35.844002 54.824001L 38.723999 48.198002L 33.524002 43.568001C 33.060646 43.156311 32.905304 42.498215 33.135658 41.922783C 33.366013 41.347351 33.932556 40.978233 34.552002 41L 40.552002 41L 43.633999 33.862C 43.913303 33.344521 44.453957 33.021957 45.042 33.021957C 45.630043 33.021957 46.170696 33.344521 46.450001 33.862Z"></path></g></g></g><g id="g-root-tx__v9uy651mlq77x-stroke" data-item-order="0" transform="translate(278, 266)"></g><g id="g-root-tx__m7cpz11mlt159-stroke" data-item-order="0" transform="translate(98, 488)"></g><g id="g-root-ic_idea_13z94e51mlndoi-stroke" data-item-order="0" transform="translate(692, 134)"><g id="ic_idea_13z94e51mlndoi-stroke" fill="none" stroke-linecap="round" stroke-linejoin="round" stroke-miterlimit="4" stroke="#484848" stroke-width="2"><g><path d="M 57 35L 57 56C 57 56.552284 56.552284 57 56 57L 12 57C 11.447716 57 11 56.552284 11 56L 11 22C 11 21.447716 11.447716 21 12 21L 24 21M 27 57L 27 52C 27 51.447716 26.552284 51 26 51L 18 51C 17.447716 51 17 51.447716 17 52L 17 57M 11 33L 20 33C 20.552284 33 21 32.552284 21 32L 21 26M 57 43L 49 42.998001M 20 44.998001L 11 44.998001M 57 49L 50 49C 49.447716 49 49 49.447716 49 50L 49 57M 35 44L 35 40C 35 39.447716 34.552284 39 34 39L 11 39M 35 56.998001L 35 50.998001M 49 32.998001L 43 32.998001M 52 22C 52 18.686291 49.313709 16 46 16C 42.686291 16 40 18.686291 40 22C 40.045399 24.079926 41.186134 25.981152 43 27L 43 29L 49 29L 49 27C 50.813282 25.980555 51.9538 24.079695 52 22ZM 46 10.998L 46 12.998M 53.778 14.219999L 52.363998 15.636M 57 21L 55 21M 38.222 14.219999L 39.636002 15.636M 35 20.998001L 37 21M 43 36.998001L 49 36.998001"></path></g></g></g><g id="g-root-tx__1utnxbx1mlkn44-stroke" data-item-order="0" transform="translate(188, 338)"></g><g id="g-root-ic_fold_dcyb991mlt2bs-stroke" data-item-order="0" transform="translate(512, 350)"><g id="ic_fold_dcyb991mlt2bs-stroke" fill="none" stroke-linecap="round" stroke-linejoin="round" stroke-miterlimit="4" stroke="#484848" stroke-width="2"><g><path d="M 43.978001 36C 43.978001 34.343147 42.634853 33 40.978001 33L 22.978001 33L 20.858 30.878C 20.295113 30.315474 19.531788 29.99964 18.736 30L 13.978 30C 12.321146 30 10.978 31.343147 10.978 33L 10.978 54C 10.978 55.656857 12.321146 57 13.978001 57L 40.978001 57C 42.634853 57 43.978001 55.656857 43.978001 54ZM 47.478001 47.5C 49.134857 47.5 50.478001 46.156857 50.478001 44.5L 50.478001 26.5C 50.478001 24.843147 49.134857 23.5 47.478001 23.5L 29.478001 23.5L 27.358 21.378C 26.795115 20.815474 26.031788 20.49964 25.236 20.5L 20.478001 20.5C 18.821146 20.5 17.478001 21.843147 17.478001 23.5L 17.478001 25.476M 54.021999 38C 55.678856 38 57.022003 36.656853 57.022003 35L 57.021999 17C 57.022003 15.343145 55.678856 14 54.022003 14L 36.021999 14L 33.902 11.878C 33.339111 11.315474 32.57579 10.99964 31.780001 11L 27.021999 11C 25.365147 11 24.021999 12.343145 24.021999 14L 24.021999 15.976"></path></g></g></g><g id="g-root-tx__qrjjp91mllzie-stroke" data-item-order="0" transform="translate(188, 374)"></g><g id="g-root-tx__vai1dp1mbxma7-stroke" data-item-order="0" transform="translate(230, 38)"></g><g id="g-root-tx_1_1happx91mlt2j3-stroke" data-item-order="0" transform="translate(26, 452)"></g><g id="g-root-tx__me7xx91mlszk9-stroke" data-item-order="0" transform="translate(368, 122)"></g><g id="g-root-tx__1qf3ddp1mlrkzv-stroke" data-item-order="0" transform="translate(98, 452)"></g><g id="g-root-ic_spre_8dzlp1mbxn2g-stroke" data-item-order="0" transform="translate(422, 458)"><g id="ic_spre_8dzlp1mbxn2g-stroke" fill="none" stroke-linecap="round" stroke-linejoin="round" stroke-miterlimit="4" stroke="#484848" stroke-width="2"><g><path d="M 56.400002 28.199961L 52 28.199961M 42 28.199961L 42 20.199959C 42 17.99996 43.799999 16.199961 46 16.199961L 56.400002 16.199961M 42 28.199961L 42 47.799999C 42 50 43.799999 51.799999 46 51.799999L 52 51.799999M 42 28.199961L 52 28.199961M 52 28.199961L 52 51.799999M 52 51.799999L 56.400002 51.799999M 42 40.200001L 56.400002 40.200001M 16 28.199961L 16 51.799999M 16 51.799999L 22 51.799999C 24.200001 51.799999 26 50 26 47.799999L 26 28.199961M 16 51.799999L 11.600098 51.799999M 26 28.199961L 11.600098 28.199961M 26 28.199961L 26.000099 20.199959C 26.000099 17.99996 24.2001 16.199961 22.000099 16.199961L 11.600098 16.199961M 26 40.200001L 11.600098 40.200001M 10 10M 35.999001 29.200199L 30.999001 24.200199L 35.999001 19.200199M 10 10M 30.9988 24.200199L 41.998802 24.200199M 10 10M 31.9998 38.799801L 36.999802 43.799801L 31.9998 48.799801M 37 43.799801L 26 43.799801"></path></g></g></g><g id="g-root-tx_4_dbppq51mlug3p-stroke" data-item-order="0" transform="translate(296, 122)"></g><g id="g-root-tx_2_1lrs67x1mlndvn-stroke" data-item-order="0" transform="translate(116, 338)"></g></g></g><path id="w18kodbx1pnvlz6" d="M65.283 12.757a.35.35 0 0 0 .584.157l5.203-5.141-6.183 3.523.396 1.461zm-2.216-11.7a.35.35 0 0 0-.522.305v3.111l3.276-1.868-2.754-1.548zm3.728 2.105l-4.25 2.421v2.445l6.391-3.644-2.141-1.222zm4.708 3.303a.35.35 0 0 0 0-.609l-1.592-.9-7.365 4.199v1.782a.35.35 0 0 0 .523.305l8.435-4.777z M44.542 2.513c0-.433.355-.783.792-.783s.792.35.792.783-.355.783-.792.783-.792-.35-.792-.783zm59.171 0c0-.433.355-.783.792-.783s.792.35.792.783-.355.783-.792.783-.792-.35-.792-.783zm-85.951 7.636h-1.27v-.487c-.276.201-.864.609-1.881.609-1.202 0-2.274-.794-2.137-2.078.118-1.106 1.153-1.584 1.848-1.727l2.17-.345c0-.539-.29-.956-1.064-1.006s-1.21.305-1.571 1.017l-1.124-.605c1.218-2.631 5.029-1.764 5.029.414v4.207zm-1.27-2.86c.006.396-.062 1.112-.819 1.59-.587.37-1.841.299-1.903-.395-.049-.555.461-.791.906-.898l1.816-.297zm72.662 2.86h-1.27v-.487c-.276.201-.864.609-1.881.609-1.202 0-2.274-.794-2.137-2.078.118-1.106 1.153-1.584 1.848-1.727l2.17-.345c0-.539-.29-.956-1.064-1.006s-1.21.305-1.571 1.017l-1.124-.605c1.218-2.631 5.029-1.764 5.029.414v4.207zm-1.27-2.86c.006.396-.062 1.112-.82 1.59-.587.37-1.841.299-1.903-.395-.049-.555.461-.791.906-.898l1.816-.297zM99.096 10.149H97.85v-8.45h1.246v4.895l2.68-2.559h1.738l-2.633 2.535 2.715 3.578h-1.556l-2.077-2.707-.867.844v1.863zm6.053-6.114h-1.255v6.113h1.255V4.035zm-59.2 0h-1.255v6.113h1.255V4.035zm5.584 6.113V1.697h1.255v2.695c.361-.346 1-.485 1.47-.485 1.452 0 2.477 1.082 2.457 2.448v3.792h-1.27v-3.68c0-.408-.214-1.339-1.315-1.339-.968 0-1.342.756-1.342 1.339v3.681h-1.255zm-4.76-4.894V4.039h.621a.45.45 0 0 0 .45-.45v-.855h1.251v1.305h1.309v1.215h-1.309v3.109c0 .293.105.664.648.664.365 0 .531-.035.736-.07v1.137s-.361.113-.857.113c-1.398 0-1.777-1.051-1.777-1.788V5.254h-1.071zM36.528 4.039h-1.394l2.191 6.106h1.125l1.234-3.918 1.238 3.918h1.129l2.188-6.106h-1.383l-1.359 3.93-1.256-3.93h-1.124l-1.242 3.957-1.348-3.957zM26.212 7.141c-.02 1.566 1.187 3.129 3.223 3.129 1.566 0 2.383-.918 2.734-1.719L31.172 8c-.315.399-.801 1.094-1.738 1.094-1.145 0-1.825-.781-1.891-1.52h4.625c.074-.284.148-.995-.03-1.559-.336-1.064-1.221-2.102-2.839-2.102s-3.088 1.152-3.088 3.227zm1.363-.75h3.348c-.055-.43-.566-1.301-1.623-1.301a1.79 1.79 0 0 0-1.725 1.301zm-8.758.75c.038 1.758 1.277 3.133 3.145 3.133 1.074 0 1.723-.477 1.961-.672v.547h1.242V1.703h-1.258v2.888c-.414-.36-1.062-.68-1.93-.68-1.91 0-3.198 1.473-3.16 3.23zm1.309-.08c0 1.119.723 1.978 1.836 1.978a1.88 1.88 0 0 0 1.94-1.904c0-1.371-1.011-1.99-1.972-1.99s-1.805.798-1.805 1.916zm76.683-.028C96.771 5.275 95.532 3.9 93.664 3.9c-1.074 0-1.723.477-1.961.672v-.547h-1.242v8.22h1.258V9.583c.414.36 1.063.68 1.93.68 1.91 0 3.198-1.473 3.16-3.23zm-1.309.08c0-1.119-.723-1.978-1.836-1.978a1.88 1.88 0 0 0-1.94 1.904c0 1.371 1.011 1.99 1.972 1.99S95.5 8.231 95.5 7.113zM106.441 10.173V4.036h1.254v.382c.361-.346 1-.485 1.47-.485 1.452 0 2.477 1.082 2.457 2.448v3.792h-1.27V6.492c0-.408-.214-1.339-1.315-1.339-.969 0-1.342.756-1.342 1.339v3.681h-1.254zm-30.383-.021V1.824h1.084l4.215 5.777V1.824h1.32v8.328h-1.094l-4.207-5.796v5.796h-1.319zM5.24 10.149H4V2.377h1.014l2.664 3.597 2.654-3.592h1.03v7.766h-1.256V4.762L7.678 8.068 5.24 4.742v5.407z" transform="translate(716, 584)" fill="#80808088" stroke="none"></path></svg>