<?xml version="1.0" encoding="utf-8" standalone="yes"?>
<!DOCTYPE svg PUBLIC "-//W3C//DTD SVG 1.1//EN" "http://www.w3.org/Graphics/SVG/1.1/DTD/svg11.dtd">
<svg width="924" height="420" viewBox="0 0 924 420" style="fill:none;stroke:none;fill-rule:evenodd;clip-rule:evenodd;stroke-linecap:round;stroke-linejoin:round;stroke-miterlimit:1.5;" version="1.1" xmlns="http://www.w3.org/2000/svg" xmlns:xlink="http://www.w3.org/1999/xlink"><style class="text-font-style fontImports" data-font-family="Roboto">@import url(https://fonts.googleapis.com/css2?family=Roboto:wght@400;700&amp;amp;display=block);</style><g id="items" style="isolation: isolate"><g id="blend" style="mix-blend-mode: normal"><g id="g-root-cp_1_disc-1_zlxv7h1otn01s-fill" data-item-order="-282938" transform="translate(86, 122)"><g id="cp_1_disc-1_zlxv7h1otn01s-fill-merged" stroke="none" fill="#e0cb15"><g><path d="M10 46C10 65.882 26.118 82 46 82C65.882 82 82 65.882 82 46C82 26.118 65.882 10 46 10C26.118 10 10 26.118 10 46"></path></g></g></g><g id="g-root-cp_1_stroke-1_qqxc1p1otmxop-fill" data-item-order="-282931" transform="translate(74, 110)"></g><g id="g-root-cp_2_disc-2_mb3tx91otmygy-fill" data-item-order="-282926" transform="translate(254, 122)"><g id="cp_2_disc-2_mb3tx91otmygy-fill-merged" stroke="none" fill="#de8431"><g><path d="M10 46C10 65.882 26.118 82 46 82C65.882 82 82 65.882 82 46C82 26.118 65.882 10 46 10C26.118 10 10 26.118 10 46"></path></g></g></g><g id="g-root-cp_2_stroke-2_dfgtod1otmz9n-fill" data-item-order="-282919" transform="translate(242, 110)"></g><g id="g-root-cp_3_disc-3_8znbjx1otn01w-fill" data-item-order="-282914" transform="translate(422, 122)"><g id="cp_3_disc-3_8znbjx1otn01w-fill-merged" stroke="none" fill="#e55753"><g><path d="M10 46C10 65.882 26.118 82 46 82C65.882 82 82 65.882 82 46C82 26.118 65.882 10 46 10C26.118 10 10 26.118 10 46"></path></g></g></g><g id="g-root-cp_3_stroke-3_4mse51otmxot-fill" data-item-order="-282907" transform="translate(410, 110)"></g><g id="g-root-cp_4_disc-4_1upxc8t1otmy9y-fill" data-item-order="-282902" transform="translate(590, 122)"><g id="cp_4_disc-4_1upxc8t1otmy9y-fill-merged" stroke="none" fill="#de58a9"><g><path d="M10 46C10 65.882 26.118 82 46 82C65.882 82 82 65.882 82 46C82 26.118 65.882 10 46 10C26.118 10 10 26.118 10 46"></path></g></g></g><g id="g-root-cp_4_stroke-4_1luabzx1otmz2n-fill" data-item-order="-282895" transform="translate(578, 110)"></g><g id="g-root-cp_5_disc-5_1hegtvh1otmzuw-fill" data-item-order="-282890" transform="translate(758, 122)"><g id="cp_5_disc-5_1hegtvh1otmzuw-fill-merged" stroke="none" fill="#ba5de5"><g><path d="M10 46C10 65.882 26.118 82 46 82C65.882 82 82 65.882 82 46C82 26.118 65.882 10 46 10C26.118 10 10 26.118 10 46"></path></g></g></g><g id="g-root-cp_5_stroke-5_1cz9su51otmxhd-fill" data-item-order="-282883" transform="translate(746, 110)"></g><g id="g-root-ic_astr_1luww8t1otfwuc-fill" data-item-order="0" transform="translate(434, 134)"></g><g id="g-root-ic_bubb_qrjt4t1otzkzl-fill" data-item-order="0" transform="translate(266, 134)"></g><g id="g-root-ic_spre_qs6a7x1otmzuz-fill" data-item-order="0" transform="translate(98, 134)"></g><g id="g-root-ic_bars_dkgpj11othds4-fill" data-item-order="0" transform="translate(602, 134)"></g><g id="g-root-tx__143msl91otmya2-fill" data-item-order="0" transform="translate(266, 38)"><g id="tx__143msl91otmya2-fill-merged" stroke="none" fill="#484848"><g><text style="font: bold 25px Roboto, sans-serif; white-space: pre;" font-weight="bold" font-size="25px" font-family="Roboto, sans-serif"><tspan x="14.18" y="42.6" dominant-baseline="ideographic">부정확하거나 답변이 불가능한 사례</tspan></text></g></g></g><g id="g-root-ic_bars_1q88i0t1otk5xq-fill" data-item-order="0" transform="translate(770, 134)"></g><g id="g-root-tx__8znepp1otmxho-fill" data-item-order="0" transform="translate(68, 266)"><g id="tx__8znepp1otmxho-fill-merged" stroke="none" fill="#e0cb15"><g><text style="font: bold 20px Roboto, sans-serif; white-space: pre;" font-weight="bold" font-size="20px" font-family="Roboto, sans-serif"><tspan x="15.51" y="34" dominant-baseline="ideographic">대량 데이터</tspan></text></g></g></g><g id="g-root-tx__1usfbr11otn01u-fill" data-item-order="0" transform="translate(224, 266)"><g id="tx__1usfbr11otn01u-fill-merged" stroke="none" fill="#de8431"><g><text style="font: bold 20px Roboto, sans-serif; white-space: pre;" font-weight="bold" font-size="20px" font-family="Roboto, sans-serif"><tspan x="15.82" y="34" dominant-baseline="ideographic">계산 필요 답변</tspan></text></g></g></g><g id="g-root-tx__vcd73x1otmzux-fill" data-item-order="0" transform="translate(404, 266)"><g id="tx__vcd73x1otmzux-fill-merged" stroke="none" fill="#e55753"><g><text style="font: bold 20px Roboto, sans-serif; white-space: pre;" font-weight="bold" font-size="20px" font-family="Roboto, sans-serif"><tspan x="15.51" y="34" dominant-baseline="ideographic">데이터 예측</tspan></text></g></g></g><g id="g-root-tx__1cwrznh1otod8q-fill" data-item-order="0" transform="translate(584, 266)"><g id="tx__1cwrznh1otod8q-fill-merged" stroke="none" fill="#de58a9"><g><text style="font: bold 20px Roboto, sans-serif; white-space: pre;" font-weight="bold" font-size="20px" font-family="Roboto, sans-serif"><tspan x="12.71" y="34" dominant-baseline="ideographic">차트 생성</tspan></text></g></g></g><g id="g-root-tx__1qbcvgd1otocuc-fill" data-item-order="0" transform="translate(728, 302)"><g id="tx__1qbcvgd1otocuc-fill-merged" stroke="none" fill="#484848"><g><text style="font: 15px Roboto, sans-serif; white-space: pre;" font-size="15px" font-family="Roboto, sans-serif"><tspan x="15.22" y="27.6" dominant-baseline="ideographic">매출 목표 대비 실적</tspan><tspan x="15.22" y="45.6" dominant-baseline="ideographic">분석 후 이상치 발견</tspan></text></g></g></g><g id="g-root-tx__zn6wjh1otmznp-fill" data-item-order="0" transform="translate(50, 302)"><g id="tx__zn6wjh1otmznp-fill-merged" stroke="none" fill="#484848"><g><text style="font: 15px Roboto, sans-serif; white-space: pre;" font-size="15px" font-family="Roboto, sans-serif"><tspan x="14.32" y="27.6" dominant-baseline="ideographic">전체 엑셀 데이터가 필</tspan><tspan x="50.56" y="45.6" dominant-baseline="ideographic">요한 값들.</tspan></text></g></g></g><g id="g-root-tx__1hhlagt1otmygz-fill" data-item-order="0" transform="translate(218, 302)"><g id="tx__1hhlagt1otmygz-fill-merged" stroke="none" fill="#484848"><g><text style="font: 15px Roboto, sans-serif; white-space: pre;" font-size="15px" font-family="Roboto, sans-serif"><tspan x="14.32" y="27.6" dominant-baseline="ideographic">매출 차이와 같은 계산</tspan><tspan x="34.91" y="45.6" dominant-baseline="ideographic">이 필요한 요청.</tspan></text></g></g></g><g id="g-root-tx__4g322l1otoeff-fill" data-item-order="0" transform="translate(386, 302)"><g id="tx__4g322l1otoeff-fill-merged" stroke="none" fill="#484848"><g><text style="font: 15px Roboto, sans-serif; white-space: pre;" font-size="15px" font-family="Roboto, sans-serif"><tspan x="14.31" y="27.6" dominant-baseline="ideographic">엑셀에 없는 데이터의 </tspan><tspan x="64.35" y="45.6" dominant-baseline="ideographic">예측.</tspan></text></g></g></g><g id="g-root-tx__zlbha51otoetn-fill" data-item-order="0" transform="translate(554, 302)"><g id="tx__zlbha51otoetn-fill-merged" stroke="none" fill="#484848"><g><text style="font: 15px Roboto, sans-serif; white-space: pre;" font-size="15px" font-family="Roboto, sans-serif"><tspan x="13.16" y="27.6" dominant-baseline="ideographic">특정 연도의 매출 차트 </tspan><tspan x="65.06" y="45.6" dominant-baseline="ideographic">분석.</tspan></text></g></g></g><g id="g-root-tx__hwjd4t1otod1e-fill" data-item-order="0" transform="translate(740, 266)"><g id="tx__hwjd4t1otod1e-fill-merged" stroke="none" fill="#ba5de5"><g><text style="font: bold 20px Roboto, sans-serif; white-space: pre;" font-weight="bold" font-size="20px" font-family="Roboto, sans-serif"><tspan x="15.51" y="34" dominant-baseline="ideographic">이상치 분석</tspan></text></g></g></g><g id="g-root-cp_1_disc-1_zlxv7h1otn01s-stroke" data-item-order="-282938" transform="translate(86, 122)"><g id="cp_1_disc-1_zlxv7h1otn01s-stroke" fill="none" stroke-linecap="round" stroke-linejoin="round" stroke-miterlimit="4" stroke="#ffffff" stroke-width="2"><g><path d="M 10 46C 10 65.882251 26.117749 82 46 82C 65.882251 82 82 65.882251 82 46C 82 26.117749 65.882251 10 46 10C 26.117749 10 10 26.117749 10 46"></path></g></g></g><g id="g-root-cp_1_stroke-1_qqxc1p1otmxop-stroke" data-item-order="-282931" transform="translate(74, 110)"><g id="cp_1_stroke-1_qqxc1p1otmxop-stroke" fill="none" stroke-linecap="round" stroke-linejoin="round" stroke-miterlimit="4" stroke="#484848" stroke-width="2"><g><path d="M 10 57.5317C 10 48.1308 12.8152 38.9411 18.0895 31.1245C 23.3638 23.308 30.8603 17.2157 39.6312 13.6182C 48.402 10.0206 58.0532 9.0793 67.3643 10.9133C 76.6754 12.7474 85.2282 17.2743 91.9411 23.9217C 98.654 30.5692 103.2256 39.0385 105.0777 48.2588C 106.9298 57.479 105.9792 67.036 102.3462 75.7213C 98.7132 84.4066 92.5609 91.83 84.6673 97.0529C 76.7738 102.2757 67.7792 105.0634 58.2857 105.0634L 58.2858 126M 58.2858 126L 49.8883 117.7143M 58.2858 126L 66.6833 117.7143"></path></g></g></g><g id="g-root-cp_2_disc-2_mb3tx91otmygy-stroke" data-item-order="-282926" transform="translate(254, 122)"><g id="cp_2_disc-2_mb3tx91otmygy-stroke" fill="none" stroke-linecap="round" stroke-linejoin="round" stroke-miterlimit="4" stroke="#ffffff" stroke-width="2"><g><path d="M 10 46C 10 65.882251 26.117749 82 46 82C 65.882251 82 82 65.882251 82 46C 82 26.117749 65.882251 10 46 10C 26.117749 10 10 26.117749 10 46"></path></g></g></g><g id="g-root-cp_2_stroke-2_dfgtod1otmz9n-stroke" data-item-order="-282919" transform="translate(242, 110)"><g id="cp_2_stroke-2_dfgtod1otmz9n-stroke" fill="none" stroke-linecap="round" stroke-linejoin="round" stroke-miterlimit="4" stroke="#484848" stroke-width="2"><g><path d="M 10 57.5317C 10 48.1308 12.8152 38.9411 18.0895 31.1245C 23.3638 23.308 30.8603 17.2157 39.6312 13.6182C 48.402 10.0206 58.0532 9.0793 67.3643 10.9133C 76.6754 12.7474 85.2282 17.2743 91.9411 23.9217C 98.654 30.5692 103.2256 39.0385 105.0777 48.2588C 106.9298 57.479 105.9792 67.036 102.3462 75.7213C 98.7132 84.4066 92.5609 91.83 84.6673 97.0529C 76.7738 102.2757 67.7792 105.0634 58.2857 105.0634L 58.2858 126M 58.2858 126L 49.8883 117.7143M 58.2858 126L 66.6833 117.7143"></path></g></g></g><g id="g-root-cp_3_disc-3_8znbjx1otn01w-stroke" data-item-order="-282914" transform="translate(422, 122)"><g id="cp_3_disc-3_8znbjx1otn01w-stroke" fill="none" stroke-linecap="round" stroke-linejoin="round" stroke-miterlimit="4" stroke="#ffffff" stroke-width="2"><g><path d="M 10 46C 10 65.882251 26.117749 82 46 82C 65.882251 82 82 65.882251 82 46C 82 26.117749 65.882251 10 46 10C 26.117749 10 10 26.117749 10 46"></path></g></g></g><g id="g-root-cp_3_stroke-3_4mse51otmxot-stroke" data-item-order="-282907" transform="translate(410, 110)"><g id="cp_3_stroke-3_4mse51otmxot-stroke" fill="none" stroke-linecap="round" stroke-linejoin="round" stroke-miterlimit="4" stroke="#484848" stroke-width="2"><g><path d="M 10 57.5317C 10 48.1308 12.8152 38.9411 18.0895 31.1245C 23.3638 23.308 30.8603 17.2157 39.6312 13.6182C 48.402 10.0206 58.0532 9.0793 67.3643 10.9133C 76.6754 12.7474 85.2282 17.2743 91.9411 23.9217C 98.654 30.5692 103.2256 39.0385 105.0777 48.2588C 106.9298 57.479 105.9792 67.036 102.3462 75.7213C 98.7132 84.4066 92.5609 91.83 84.6673 97.0529C 76.7738 102.2757 67.7792 105.0634 58.2857 105.0634L 58.2858 126M 58.2858 126L 49.8883 117.7143M 58.2858 126L 66.6833 117.7143"></path></g></g></g><g id="g-root-cp_4_disc-4_1upxc8t1otmy9y-stroke" data-item-order="-282902" transform="translate(590, 122)"><g id="cp_4_disc-4_1upxc8t1otmy9y-stroke" fill="none" stroke-linecap="round" stroke-linejoin="round" stroke-miterlimit="4" stroke="#ffffff" stroke-width="2"><g><path d="M 10 46C 10 65.882251 26.117749 82 46 82C 65.882251 82 82 65.882251 82 46C 82 26.117749 65.882251 10 46 10C 26.117749 10 10 26.117749 10 46"></path></g></g></g><g id="g-root-cp_4_stroke-4_1luabzx1otmz2n-stroke" data-item-order="-282895" transform="translate(578, 110)"><g id="cp_4_stroke-4_1luabzx1otmz2n-stroke" fill="none" stroke-linecap="round" stroke-linejoin="round" stroke-miterlimit="4" stroke="#484848" stroke-width="2"><g><path d="M 10 57.5317C 10 48.1308 12.8152 38.9411 18.0895 31.1245C 23.3638 23.308 30.8603 17.2157 39.6312 13.6182C 48.402 10.0206 58.0532 9.0793 67.3643 10.9133C 76.6754 12.7474 85.2282 17.2743 91.9411 23.9217C 98.654 30.5692 103.2256 39.0385 105.0777 48.2588C 106.9298 57.479 105.9792 67.036 102.3462 75.7213C 98.7132 84.4066 92.5609 91.83 84.6673 97.0529C 76.7738 102.2757 67.7792 105.0634 58.2857 105.0634L 58.2858 126M 58.2858 126L 49.8883 117.7143M 58.2858 126L 66.6833 117.7143"></path></g></g></g><g id="g-root-cp_5_disc-5_1hegtvh1otmzuw-stroke" data-item-order="-282890" transform="translate(758, 122)"><g id="cp_5_disc-5_1hegtvh1otmzuw-stroke" fill="none" stroke-linecap="round" stroke-linejoin="round" stroke-miterlimit="4" stroke="#ffffff" stroke-width="2"><g><path d="M 10 46C 10 65.882251 26.117749 82 46 82C 65.882251 82 82 65.882251 82 46C 82 26.117749 65.882251 10 46 10C 26.117749 10 10 26.117749 10 46"></path></g></g></g><g id="g-root-cp_5_stroke-5_1cz9su51otmxhd-stroke" data-item-order="-282883" transform="translate(746, 110)"><g id="cp_5_stroke-5_1cz9su51otmxhd-stroke" fill="none" stroke-linecap="round" stroke-linejoin="round" stroke-miterlimit="4" stroke="#484848" stroke-width="2"><g><path d="M 10 57.5317C 10 48.1308 12.8152 38.9411 18.0895 31.1245C 23.3638 23.308 30.8603 17.2157 39.6312 13.6182C 48.402 10.0206 58.0532 9.0793 67.3643 10.9133C 76.6754 12.7474 85.2282 17.2743 91.9411 23.9217C 98.654 30.5692 103.2256 39.0385 105.0777 48.2588C 106.9298 57.479 105.9792 67.036 102.3462 75.7213C 98.7132 84.4066 92.5609 91.83 84.6673 97.0529C 76.7738 102.2757 67.7792 105.0634 58.2857 105.0634L 58.2858 126M 58.2858 126L 49.8883 117.7143M 58.2858 126L 66.6833 117.7143"></path></g></g></g><g id="g-root-ic_astr_1luww8t1otfwuc-stroke" data-item-order="0" transform="translate(434, 134)"><g id="ic_astr_1luww8t1otfwuc-stroke" fill="none" stroke-linecap="round" stroke-linejoin="round" stroke-miterlimit="4" stroke="#ffffff" stroke-width="2"><g><path d="M 43.183998 33.416C 43.183998 33.416 39.071999 38.799999 34 38.799999C 28.927999 38.799999 24.816 33.424 24.816 33.424C 24.816 33.424 28.927999 28.040001 34 28.040001C 39.071999 28.040001 43.183998 33.416 43.183998 33.416ZM 33.25 33.524002C 33.25 33.938213 33.585785 34.274002 34 34.274002C 34.414215 34.274002 34.75 33.938213 34.75 33.524002C 34.75 33.109787 34.414215 32.774002 34 32.774002C 33.585785 32.774002 33.25 33.109787 33.25 33.524002M 54 45L 14 45L 34 11L 54 45ZM 14 23L 54 23L 34 57L 14 23Z"></path></g></g></g><g id="g-root-ic_bubb_qrjt4t1otzkzl-stroke" data-item-order="0" transform="translate(266, 134)"><g id="ic_bubb_qrjt4t1otzkzl-stroke" fill="none" stroke-linecap="round" stroke-linejoin="round" stroke-miterlimit="4" stroke="#ffffff" stroke-width="2"><g><path d="M 26.059999 41.940002L 42.060001 25.939999M 25.060001 27.940001C 25.060001 29.596855 26.403147 30.940001 28.060001 30.940001C 29.716854 30.940001 31.060001 29.596855 31.060001 27.940001C 31.060001 26.283146 29.716854 24.940001 28.060001 24.940001C 26.403147 24.940001 25.060001 26.283146 25.060001 27.940001ZM 37.059998 39.940002C 37.060001 41.596855 38.403145 42.940002 40.060001 42.940002C 41.716858 42.940002 43.060001 41.596855 43.060001 39.940002C 43.060001 38.283146 41.716858 36.940002 40.060001 36.940002C 38.403145 36.940002 37.060001 38.283146 37.060001 39.940002ZM 57 34C 56.993706 30.719007 54.984703 27.774481 51.931999 26.572001C 53.247807 23.564043 52.586002 20.057091 50.264458 17.735544C 47.942909 15.413998 44.435959 14.752193 41.428001 16.068001C 40.230267 13.011635 37.282669 11.000894 34 11.000894C 30.717327 11.000894 27.769732 13.011635 26.572001 16.068001C 23.564043 14.752193 20.057091 15.413998 17.735544 17.735544C 15.413998 20.057091 14.752193 23.564043 16.068001 26.572001C 13.011635 27.769732 11.000894 30.717327 11.000894 34C 11.000894 37.282669 13.011635 40.230267 16.068001 41.428001C 14.752193 44.435959 15.413998 47.942909 17.735544 50.264458C 20.057091 52.586002 23.564043 53.247807 26.572001 51.932003C 27.769732 54.988365 30.717327 56.999107 34 56.999107C 37.282669 56.999107 40.230267 54.988365 41.428001 51.931999C 44.435959 53.247807 47.942909 52.586002 50.264458 50.264458C 52.586002 47.942909 53.247807 44.435959 51.932003 41.428001C 54.984703 40.225517 56.993706 37.280991 57 34Z"></path></g></g></g><g id="g-root-ic_spre_qs6a7x1otmzuz-stroke" data-item-order="0" transform="translate(98, 134)"><g id="ic_spre_qs6a7x1otmzuz-stroke" fill="none" stroke-linecap="round" stroke-linejoin="round" stroke-miterlimit="4" stroke="#ffffff" stroke-width="2"><g><path d="M 56.400002 28.199961L 52 28.199961M 42 28.199961L 42 20.199959C 42 17.99996 43.799999 16.199961 46 16.199961L 56.400002 16.199961M 42 28.199961L 42 47.799999C 42 50 43.799999 51.799999 46 51.799999L 52 51.799999M 42 28.199961L 52 28.199961M 52 28.199961L 52 51.799999M 52 51.799999L 56.400002 51.799999M 42 40.200001L 56.400002 40.200001M 16 28.199961L 16 51.799999M 16 51.799999L 22 51.799999C 24.200001 51.799999 26 50 26 47.799999L 26 28.199961M 16 51.799999L 11.600098 51.799999M 26 28.199961L 11.600098 28.199961M 26 28.199961L 26.000099 20.199959C 26.000099 17.99996 24.2001 16.199961 22.000099 16.199961L 11.600098 16.199961M 26 40.200001L 11.600098 40.200001M 10 10M 35.999001 29.200199L 30.999001 24.200199L 35.999001 19.200199M 10 10M 30.9988 24.200199L 41.998802 24.200199M 10 10M 31.9998 38.799801L 36.999802 43.799801L 31.9998 48.799801M 37 43.799801L 26 43.799801"></path></g></g></g><g id="g-root-ic_bars_dkgpj11othds4-stroke" data-item-order="0" transform="translate(602, 134)"><g id="ic_bars_dkgpj11othds4-stroke" fill="none" stroke-linecap="round" stroke-linejoin="round" stroke-miterlimit="4" stroke="#ffffff" stroke-width="2"><g><path d="M 52.422001 19C 52.7971 19.374985 53.007885 19.88361 53.007999 20.414L 53.007999 55C 53.007999 56.104568 52.112568 57 51.007999 57L 17 57C 15.895431 57 15 56.104568 15 55L 15 13C 15 11.895431 15.895431 11 17 11L 43.599998 11C 44.125534 11.003805 44.628452 11.214312 45 11.586ZM 23.007999 25L 23.007999 47L 47.007999 47M 28 31L 32 31C 32.552284 31 33 31.447716 33 32L 33 47L 33 47L 27 47L 27 47L 27 32C 27 31.447716 27.447716 31 28 31ZM 38 37L 42 37C 42.552284 37 43 37.447716 43 38L 43 47L 43 47L 37 47L 37 47L 37 38C 37 37.447716 37.447716 37 38 37Z"></path></g></g></g><g id="g-root-tx__143msl91otmya2-stroke" data-item-order="0" transform="translate(266, 38)"></g><g id="g-root-ic_bars_1q88i0t1otk5xq-stroke" data-item-order="0" transform="translate(770, 134)"><g id="ic_bars_1q88i0t1otk5xq-stroke" fill="none" stroke-linecap="round" stroke-linejoin="round" stroke-miterlimit="4" stroke="#ffffff" stroke-width="2"><g><path d="M 10.882 49L 56.882 49M 18.882 49L 18.882 40C 18.882 39.447716 18.434284 39 17.882 39L 13.882 39C 13.329716 39 12.882 39.447716 12.882 40L 12.882 49M 30.882 49L 30.882 30C 30.882 29.447716 30.434284 29 29.882 29L 25.882 29C 25.329716 29 24.882 29.447716 24.882 30L 24.882 49M 42.882 49L 42.882 34C 42.882 33.447716 42.434284 33 41.882 33L 37.882 33C 37.329716 33 36.882 33.447716 36.882 34L 36.882 49M 54.882 49L 54.882 20C 54.882 19.447716 54.434284 19 53.882 19L 49.882 19C 49.329716 19 48.882 19.447716 48.882 20L 48.882 49"></path></g></g></g><g id="g-root-tx__8znepp1otmxho-stroke" data-item-order="0" transform="translate(68, 266)"></g><g id="g-root-tx__1usfbr11otn01u-stroke" data-item-order="0" transform="translate(224, 266)"></g><g id="g-root-tx__vcd73x1otmzux-stroke" data-item-order="0" transform="translate(404, 266)"></g><g id="g-root-tx__1cwrznh1otod8q-stroke" data-item-order="0" transform="translate(584, 266)"></g><g id="g-root-tx__1qbcvgd1otocuc-stroke" data-item-order="0" transform="translate(728, 302)"></g><g id="g-root-tx__zn6wjh1otmznp-stroke" data-item-order="0" transform="translate(50, 302)"></g><g id="g-root-tx__1hhlagt1otmygz-stroke" data-item-order="0" transform="translate(218, 302)"></g><g id="g-root-tx__4g322l1otoeff-stroke" data-item-order="0" transform="translate(386, 302)"></g><g id="g-root-tx__zlbha51otoetn-stroke" data-item-order="0" transform="translate(554, 302)"></g><g id="g-root-tx__hwjd4t1otod1e-stroke" data-item-order="0" transform="translate(740, 266)"></g></g></g><path id="w4hye6l1nfxfk7" d="M65.283 12.757a.35.35 0 0 0 .584.157l5.203-5.141-6.183 3.523.396 1.461zm-2.216-11.7a.35.35 0 0 0-.522.305v3.111l3.276-1.868-2.754-1.548zm3.728 2.105l-4.25 2.421v2.445l6.391-3.644-2.141-1.222zm4.708 3.303a.35.35 0 0 0 0-.609l-1.592-.9-7.365 4.199v1.782a.35.35 0 0 0 .523.305l8.435-4.777z M44.542 2.513c0-.433.355-.783.792-.783s.792.35.792.783-.355.783-.792.783-.792-.35-.792-.783zm59.171 0c0-.433.355-.783.792-.783s.792.35.792.783-.355.783-.792.783-.792-.35-.792-.783zm-85.951 7.636h-1.27v-.487c-.276.201-.864.609-1.881.609-1.202 0-2.274-.794-2.137-2.078.118-1.106 1.153-1.584 1.848-1.727l2.17-.345c0-.539-.29-.956-1.064-1.006s-1.21.305-1.571 1.017l-1.124-.605c1.218-2.631 5.029-1.764 5.029.414v4.207zm-1.27-2.86c.006.396-.062 1.112-.819 1.59-.587.37-1.841.299-1.903-.395-.049-.555.461-.791.906-.898l1.816-.297zm72.662 2.86h-1.27v-.487c-.276.201-.864.609-1.881.609-1.202 0-2.274-.794-2.137-2.078.118-1.106 1.153-1.584 1.848-1.727l2.17-.345c0-.539-.29-.956-1.064-1.006s-1.21.305-1.571 1.017l-1.124-.605c1.218-2.631 5.029-1.764 5.029.414v4.207zm-1.27-2.86c.006.396-.062 1.112-.82 1.59-.587.37-1.841.299-1.903-.395-.049-.555.461-.791.906-.898l1.816-.297zM99.096 10.149H97.85v-8.45h1.246v4.895l2.68-2.559h1.738l-2.633 2.535 2.715 3.578h-1.556l-2.077-2.707-.867.844v1.863zm6.053-6.114h-1.255v6.113h1.255V4.035zm-59.2 0h-1.255v6.113h1.255V4.035zm5.584 6.113V1.697h1.255v2.695c.361-.346 1-.485 1.47-.485 1.452 0 2.477 1.082 2.457 2.448v3.792h-1.27v-3.68c0-.408-.214-1.339-1.315-1.339-.968 0-1.342.756-1.342 1.339v3.681h-1.255zm-4.76-4.894V4.039h.621a.45.45 0 0 0 .45-.45v-.855h1.251v1.305h1.309v1.215h-1.309v3.109c0 .293.105.664.648.664.365 0 .531-.035.736-.07v1.137s-.361.113-.857.113c-1.398 0-1.777-1.051-1.777-1.788V5.254h-1.071zM36.528 4.039h-1.394l2.191 6.106h1.125l1.234-3.918 1.238 3.918h1.129l2.188-6.106h-1.383l-1.359 3.93-1.256-3.93h-1.124l-1.242 3.957-1.348-3.957zM26.212 7.141c-.02 1.566 1.187 3.129 3.223 3.129 1.566 0 2.383-.918 2.734-1.719L31.172 8c-.315.399-.801 1.094-1.738 1.094-1.145 0-1.825-.781-1.891-1.52h4.625c.074-.284.148-.995-.03-1.559-.336-1.064-1.221-2.102-2.839-2.102s-3.088 1.152-3.088 3.227zm1.363-.75h3.348c-.055-.43-.566-1.301-1.623-1.301a1.79 1.79 0 0 0-1.725 1.301zm-8.758.75c.038 1.758 1.277 3.133 3.145 3.133 1.074 0 1.723-.477 1.961-.672v.547h1.242V1.703h-1.258v2.888c-.414-.36-1.062-.68-1.93-.68-1.91 0-3.198 1.473-3.16 3.23zm1.309-.08c0 1.119.723 1.978 1.836 1.978a1.88 1.88 0 0 0 1.94-1.904c0-1.371-1.011-1.99-1.972-1.99s-1.805.798-1.805 1.916zm76.683-.028C96.771 5.275 95.532 3.9 93.664 3.9c-1.074 0-1.723.477-1.961.672v-.547h-1.242v8.22h1.258V9.583c.414.36 1.063.68 1.93.68 1.91 0 3.198-1.473 3.16-3.23zm-1.309.08c0-1.119-.723-1.978-1.836-1.978a1.88 1.88 0 0 0-1.94 1.904c0 1.371 1.011 1.99 1.972 1.99S95.5 8.231 95.5 7.113zM106.441 10.173V4.036h1.254v.382c.361-.346 1-.485 1.47-.485 1.452 0 2.477 1.082 2.457 2.448v3.792h-1.27V6.492c0-.408-.214-1.339-1.315-1.339-.969 0-1.342.756-1.342 1.339v3.681h-1.254zm-30.383-.021V1.824h1.084l4.215 5.777V1.824h1.32v8.328h-1.094l-4.207-5.796v5.796h-1.319zM5.24 10.149H4V2.377h1.014l2.664 3.597 2.654-3.592h1.03v7.766h-1.256V4.762L7.678 8.068 5.24 4.742v5.407z" transform="translate(791, 389)" fill="#80808088" stroke="none"></path></svg>