<?xml version="1.0" encoding="utf-8" standalone="yes"?>
<!DOCTYPE svg PUBLIC "-//W3C//DTD SVG 1.1//EN" "http://www.w3.org/Graphics/SVG/1.1/DTD/svg11.dtd">
<svg width="840" height="696" viewBox="0 0 840 696" style="fill:none;stroke:none;fill-rule:evenodd;clip-rule:evenodd;stroke-linecap:round;stroke-linejoin:round;stroke-miterlimit:1.5;" version="1.1" xmlns="http://www.w3.org/2000/svg" xmlns:xlink="http://www.w3.org/1999/xlink"><style class="text-font-style fontImports" data-font-family="Roboto">@import url(https://fonts.googleapis.com/css2?family=Roboto:wght@400;700&amp;amp;display=block);</style><g id="items" style="isolation: isolate"><g id="blend" style="mix-blend-mode: normal"><g id="g-root-cp_1_g-1_qn6nv11ojx897-fill" data-item-order="-475188" transform="translate(38, 158)"><g id="cp_1_g-1_qn6nv11ojx897-fill-merged" stroke="none" fill="#4e88e7"><g><path d="M10 10 H178 V274 H10 V10"></path></g></g></g><g id="g-root-cp_0_g-0_dccmkt1ojx6oc-fill" data-item-order="-475174" transform="translate(64.25, 445.248046875)"><g id="cp_0_g-0_dccmkt1ojx6oc-fill-merged" stroke="none" fill="#666666"><g><path d="M72.788 78.167C72.97 79.673 72.97 81.143 72.716 82.529C71.804 87.351 76.118 94.426 81.234 98.205C80.803 93.358 81.451 88.768 79.665 85.723C78.237 83.286 74.485 79.67 72.788 78.167 M57.78 143.748C84.977 130 77.788 123.001 109.266 106.554C116.786 102.626 105.058 88.349 89.396 100.532C88.321 99.966 86.506 100.653 84.977 100.15C83.599 99.697 82.35 99.029 81.234 98.205C76.118 94.426 71.804 87.351 72.716 82.529C72.97 81.143 72.97 79.673 72.788 78.167C71.81 70.043 70.567 59.893 70.635 57.477C73.389 32.967 74.78 26.266 71.732 16.522C68.683 6.778 62.722 9.864 62.104 13.555C60.945 20.484 60.314 35.534 54.715 54.918C54.473 56.528 53.132 61.366 52.894 62.78C48.492 63.876 47.265 63.493 43.256 67.397C37.855 68.861 31.383 76.937 30.602 79.282C23.676 83.136 21.084 90.682 20.677 95.278C21.104 98.782 20.164 109.557 20.164 109.557C20.164 137.8 10 143.748 10 163.669 H52.375C52.375 153.448 56.73 144.231 57.78 143.748 M57.78 143.748C59.252 142.033 63.003 136.705 63.003 130 M30.602 79.282L28.902 82.529 M52.894 62.78C50.096 65.219 50.182 68.936 47.959 72.356 M43.256 67.397C42.355 68.895 40.381 72.418 39.687 74.529 M96.698 105.187C96.44 104.308 92.649 102.244 89.396 100.532"></path></g></g></g><g id="g-root-cp_2_g-2_8wj4gd1ojx7gl-fill" data-item-order="-475170" transform="translate(230, 122)"><g id="cp_2_g-2_8wj4gd1ojx7gl-fill-merged" stroke="none" fill="#3cc583"><g><path d="M10 10 H178 V250 H10 V10"></path></g></g></g><g id="g-root-cp_0_g-0_1_1um6o251ojx8ue-fill" data-item-order="-475156" transform="translate(280.07000732421875, 384.2359619140625)"><g id="cp_0_g-0_1_1um6o251ojx8ue-fill-merged" stroke="none" fill="#666666"><g><path d="M40.099 60.654C40.28 63.405 40.404 65.872 40.486 68.125C40.651 72.662 40.645 76.328 40.59 79.681C40.567 81.097 40.535 82.457 40.504 83.803C40.544 82.569 40.574 81.174 40.59 79.681C40.631 76.105 40.602 71.966 40.486 68.125C40.403 65.378 40.277 62.783 40.099 60.654 M15.071 87.668L14.768 88.363L14.426 88.967L14.228 89.229L14.031 89.43C14.29 89.207 14.534 88.842 14.768 88.363C15.057 87.771 15.331 87.004 15.596 86.121L15.341 86.923L15.071 87.668 M16.282 83.546L17.035 80.339C16.971 80.616 16.907 80.892 16.844 81.167C16.655 81.982 16.469 82.782 16.282 83.546 M64.923 137.234C68.366 132.807 79.864 119.767 83.785 103.313C86.834 90.521 86.051 80.268 88.2 72.441C90.873 62.703 76.654 66.789 74.749 80.109C72.845 93.428 68.401 94.116 66.239 94.984L62.956 93.732C61.621 87.525 61.116 78.31 59.801 69.481C52.687 36.478 53.501 18.524 48.875 13.011C44.249 7.498 38.446 10.515 38.639 14.43C39 21.779 41.499 39.569 40.099 60.654C40.277 62.783 40.403 65.378 40.486 68.125C40.651 72.662 40.645 76.328 40.59 79.681C40.573 81.212 40.543 82.639 40.501 83.896 V83.803C40.535 82.457 40.567 81.097 40.59 79.681C40.631 76.105 40.602 71.966 40.486 68.125C40.404 65.872 40.28 63.405 40.099 60.654C39.842 57.562 39.614 56.356 38.87 55.41C37.384 53.519 33.288 52.028 29.409 56.342C28.063 57.839 26.912 61.163 26.606 65.674L26.415 69.456 V70.471C26.312 72.312 26.255 74.081 26.152 75.599 V75.669C25.992 77.912 25.736 79.57 25.201 80.105L25.33 79.947L25.496 79.638L25.708 79.006L25.899 78.058L26.145 75.702 V75.599L26.278 73.178L26.378 70.471C26.389 70.156 26.401 69.84 26.413 69.522C26.464 68.194 26.521 66.915 26.606 65.674C22.741 65.764 22.165 67.444 20.049 70.83C19.212 72.169 18.525 74.331 17.906 76.722L17.488 78.406L17.035 80.339C17.183 79.696 17.334 79.048 17.488 78.406C17.624 77.838 17.763 77.274 17.906 76.722C17.447 76.689 17.68 77.029 15.561 78.727C13.101 80.698 10.797 86.859 10.161 89.362L10 89.87L10.884 99.683C13.567 122.361 20.19 132.457 21.604 140.376L26.034 164.742 H66.033C64.202 153.872 64.179 138.189 64.923 137.234 M14.768 88.363L15.071 87.668L15.341 86.923L15.596 86.121C15.331 87.004 15.057 87.771 14.768 88.363C14.534 88.842 14.29 89.207 14.031 89.43L14.228 89.229L14.426 88.967L14.768 88.363 M66.433 100.831C64.782 99.915 63.729 97.329 62.956 93.732 M40.501 83.896C40.502 83.865 40.503 83.834 40.504 83.803 M20.049 70.83C18.801 72.826 17.886 76.653 17.035 80.339 M14.031 89.43C15.127 88.489 15.962 84.985 16.844 81.167C16.428 82.966 16.023 84.696 15.596 86.121 M15.596 86.121L15.837 85.277L16.282 83.546C16.057 84.47 15.829 85.341 15.596 86.121 M26.415 69.456C26.414 69.478 26.414 69.5 26.413 69.522 M26.152 75.599C26.15 75.633 26.148 75.668 26.145 75.702"></path></g></g></g><g id="g-root-cp_3_g-3_1hbcmrx1ojx79j-fill" data-item-order="-475152" transform="translate(422, 200)"><g id="cp_3_g-3_1hbcmrx1ojx79j-fill-merged" stroke="none" fill="#de8431"><g><path d="M10 10 H178 V250 H10 V10"></path></g></g></g><g id="g-root-cp_0_g-0_2_1cvj4nh1ojx81s-fill" data-item-order="-475138" transform="translate(469.2269287109375, 463.864990234375)"><g id="cp_0_g-0_2_1cvj4nh1ojx81s-fill-merged" stroke="none" fill="#666666"><g><path d="M27.242 158.898C27.011 154.179 29.2 142.192 20.924 132.984C12.649 123.775 9.882 104.089 10.004 90.369C10.029 87.571 11.623 86.265 15.496 83.5C23.764 77.596 29.914 73.995 29.914 73.995C37.197 49.137 35.947 41.461 39.578 24.214C41.832 4.69 53.321 9.147 53.321 14.973C53.321 20.799 52.015 24.295 52.015 32.35C51.387 42.375 50.793 56.405 50.792 66.846C55.798 60.708 63.549 66.217 63.456 71.235C70.64 69.435 73.83 75.202 75.067 81.245C75.555 81.294 77.802 81.991 79.889 83.809C82.312 85.92 82.74 92.23 83.191 94.492L83.316 94.957C83.316 94.957 86.365 98.037 87.357 103.658C88.348 109.279 68.765 140.18 68.774 146.406C68.78 149.917 67.657 152.163 68.218 158.898 H27.242 M25.182 99.684C25.182 97.338 25.223 93.208 25.339 91.322 M50.792 66.846 V71.232 M29.914 73.995C27.367 82.686 25.681 85.805 25.339 91.322 M25.339 91.322C23.869 91.789 20.929 93.341 20.929 95.818"></path></g></g></g><g id="g-root-cp_4_g-4_13zw4el1ojx8uh-fill" data-item-order="-475134" transform="translate(614, 146)"><g id="cp_4_g-4_13zw4el1ojx8uh-fill-merged" stroke="none" fill="#e0cb15"><g><path d="M10 10 H178 V238 H10 V10"></path></g></g></g><g id="g-root-cp_0_g-0_3_qp234d1ojx79m-fill" data-item-order="-475120" transform="translate(645.5780029296875, 396.4630126953125)"><g id="cp_0_g-0_3_qp234d1ojx79m-fill-merged" stroke="none" fill="#666666"><g><path d="M54.467 145.426C50.675 141.646 33.642 130.52 29.111 115.018C25.048 101.122 14.98 89.31 10.836 81.661C6.243 73.184 21.651 68.071 30.969 85.117C36.353 91.596 42.36 96.941 45.647 97.541C46.937 97.777 50.808 95.08 52.288 92.558C54.578 88.656 54.294 84.208 54.294 84.208C54.653 80.048 54.522 78.14 54.467 74.571C54.442 72.958 54.433 71.006 54.492 68.354C54.765 65.207 54.984 62.206 55.159 59.347C56.771 33.034 54.724 18.766 58.082 13.556C61.804 7.78 67.661 9.943 67.947 13.675C68.485 20.68 68.248 37.829 72.097 57.635C72.195 59.26 72.3 60.78 72.412 62.21C72.481 63.092 72.552 63.94 72.625 64.758C73.012 69.075 73.456 72.547 73.91 75.716C74.109 77.164 74.309 78.513 74.499 79.699 V79.611C74.295 78.34 74.101 77.055 73.91 75.716C73.443 72.334 72.976 68.411 72.625 64.758C72.552 63.94 72.481 63.092 72.412 62.21C76.699 63.694 81.612 70.325 85.257 74.571C90.506 76.51 92.956 81.803 93.525 84.208C96.092 85.781 99.121 90.615 99.116 95.229C102.634 98.023 101.787 102.638 101.787 102.638C101.96 124.44 96.927 131.891 102.638 144.435C108.348 156.979 108.348 168.007 108.348 168.007 H68.231C62.287 151.433 55.285 146.242 54.467 145.426 M55.159 59.347C54.984 62.206 54.765 65.207 54.492 68.354C54.433 71.006 54.442 72.958 54.467 74.571L50.027 73.571C43.466 78.674 38.391 81.504 33.044 76.958C27.698 72.412 34.353 68.354 40.55 64.122C45.507 60.735 52.355 59.528 55.159 59.347 M74.499 79.699C74.494 79.67 74.49 79.641 74.486 79.611C74.3 78.447 74.105 77.129 73.91 75.716 M50.027 73.571C52.457 73.571 54 74.571 54.467 74.571 M52.288 92.558C50.922 96.277 49.598 101.307 45.01 102.638"></path></g></g></g><g id="g-root-ic_chec_93efkd1ojq6tn-fill" data-item-order="-5184" transform="translate(278, 146)"><g id="ic_chec_93efkd1ojq6tn-fill-merged" stroke="none" fill="#ffffff"><g><path d="M62.5 43C51.73 43 43 51.73 43 62.5C43 73.27 51.73 82 62.5 82C73.27 82 82 73.27 82 62.5C81.983 51.737 73.263 43.017 62.5 43 M71.5 56.74L62.8 68.35C62.017 69.393 60.82 70.044 59.519 70.137C58.219 70.229 56.942 69.752 56.02 68.83L51.52 64.33C50.918 63.769 50.67 62.924 50.874 62.127C51.077 61.33 51.7 60.707 52.497 60.504C53.294 60.3 54.139 60.548 54.7 61.15L58.6 65.05C58.754 65.194 58.959 65.27 59.17 65.26C59.385 65.242 59.581 65.133 59.71 64.96L67.9 54.04C68.646 53.046 70.056 52.844 71.05 53.59C72.044 54.336 72.246 55.746 71.5 56.74 M25 40.75 H44.5C45.743 40.75 46.75 39.743 46.75 38.5C46.75 37.257 45.743 36.25 44.5 36.25 H25C23.757 36.25 22.75 37.257 22.75 38.5C22.75 39.743 23.757 40.75 25 40.75 M25 51.25 H34C35.243 51.25 36.25 50.243 36.25 49C36.25 47.757 35.243 46.75 34 46.75 H25C23.757 46.75 22.75 47.757 22.75 49C22.75 50.243 23.757 51.25 25 51.25 M25 61.75 H33.25C34.493 61.75 35.5 60.743 35.5 59.5C35.5 58.257 34.493 57.25 33.25 57.25 H25C23.757 57.25 22.75 58.257 22.75 59.5C22.75 60.743 23.757 61.75 25 61.75 M25.75 28.75 H51.25C51.664 28.75 52 28.414 52 28 V19C52 18.586 51.664 18.25 51.25 18.25 H46 V17.5C45.992 15.153 44.889 12.943 43.018 11.525C41.147 10.108 38.722 9.643 36.46 10.27C33.165 11.264 30.934 14.329 31 17.77 V18.25 H25.75C25.336 18.25 25 18.586 25 19 V28C25 28.414 25.336 28.75 25.75 28.75 M38.5 14.5C39.743 14.5 40.75 15.507 40.75 16.75C40.75 17.993 39.743 19 38.5 19C37.257 19 36.25 17.993 36.25 16.75C36.266 15.514 37.264 14.516 38.5 14.5 M43 76.33C42.868 76.126 42.643 76.002 42.4 76 H17.5C16.672 76 16 75.328 16 74.5 V25.75C16 24.922 16.672 24.25 17.5 24.25 H19.75C20.164 24.25 20.5 23.914 20.5 23.5 V19C20.5 18.586 20.164 18.25 19.75 18.25 H16C12.686 18.25 10 20.936 10 24.25 V76C10 79.314 12.686 82 16 82 H46.36C46.673 81.992 46.953 81.806 47.08 81.52C47.195 81.224 47.111 80.887 46.87 80.68C45.414 79.386 44.115 77.926 43 76.33 M66.13 38.77C66.342 38.828 66.57 38.771 66.73 38.62C66.899 38.479 66.998 38.27 67 38.05 V24.25C67 20.936 64.314 18.25 61 18.25 H57.25C56.836 18.25 56.5 18.586 56.5 19 V23.5C56.5 23.914 56.836 24.25 57.25 24.25 H59.5C60.328 24.25 61 24.922 61 25.75 V37.75C61.003 37.955 61.089 38.15 61.24 38.29C61.386 38.427 61.58 38.502 61.78 38.5 H62.5C63.715 38.498 64.929 38.588 66.13 38.77"></path></g></g></g><g id="g-root-ic_page_2rjgt1ojx79o-fill" data-item-order="-5184" transform="translate(86, 182)"><g id="ic_page_2rjgt1ojx79o-fill-merged" stroke="none" fill="#ffffff"><g><path d="M70.72 66.49C76.757 58.243 75.427 46.738 67.666 40.086C59.906 33.434 48.333 33.878 41.106 41.106C33.878 48.333 33.434 59.906 40.086 67.666C46.738 75.427 58.243 76.757 66.49 70.72L76.87 81.13C77.433 81.698 78.2 82.017 79 82.017C79.8 82.017 80.567 81.698 81.13 81.13C81.698 80.567 82.017 79.8 82.017 79C82.017 78.2 81.698 77.433 81.13 76.87L70.72 66.49 M55 41.5C62.456 41.5 68.5 47.544 68.5 55C68.5 62.456 62.456 68.5 55 68.5C47.544 68.5 41.5 62.456 41.5 55C41.516 47.551 47.551 41.516 55 41.5 M49 57.25 H61C62.243 57.25 63.25 56.243 63.25 55C63.25 53.757 62.243 52.75 61 52.75 H49C47.757 52.75 46.75 53.757 46.75 55C46.75 56.243 47.757 57.25 49 57.25 M16 10C12.686 10 10 12.686 10 16 V22C10 23.657 11.343 25 13 25C14.657 25 16 23.657 16 22 V16 H22C23.657 16 25 14.657 25 13C25 11.343 23.657 10 22 10 H16 M16 76 V70C16 68.343 14.657 67 13 67C11.343 67 10 68.343 10 70 V76C10 79.314 12.686 82 16 82 H22C23.657 82 25 80.657 25 79C25 77.343 23.657 76 22 76 H16 M13 44.59C14.657 44.59 16 43.247 16 41.59 V32.8C16 31.143 14.657 29.8 13 29.8C11.343 29.8 10 31.143 10 32.8 V41.59C10 43.247 11.343 44.59 13 44.59 M13 62.2C14.657 62.2 16 60.857 16 59.2 V50.41C16 48.753 14.657 47.41 13 47.41C11.343 47.41 10 48.753 10 50.41 V59.2C10 60.857 11.343 62.2 13 62.2 M79 29.8C77.343 29.8 76 31.143 76 32.8 V41.59C76 43.247 77.343 44.59 79 44.59C80.657 44.59 82 43.247 82 41.59 V32.8C82 31.143 80.657 29.8 79 29.8 M32.8 16 H40C41.657 16 43 14.657 43 13C43 11.343 41.657 10 40 10 H32.8C31.143 10 29.8 11.343 29.8 13C29.8 14.657 31.143 16 32.8 16 M52 16 H59.2C60.857 16 62.2 14.657 62.2 13C62.2 11.343 60.857 10 59.2 10 H52C50.343 10 49 11.343 49 13C49 14.657 50.343 16 52 16 M76 16 V22C76 23.657 77.343 25 79 25C80.657 25 82 23.657 82 22 V16C82 12.686 79.314 10 76 10 H70C68.343 10 67 11.343 67 13C67 14.657 68.343 16 70 16 H76 M40 76 H32.8C31.143 76 29.8 77.343 29.8 79C29.8 80.657 31.143 82 32.8 82 H40C41.657 82 43 80.657 43 79C43 77.343 41.657 76 40 76"></path></g></g></g><g id="g-root-ic_puzz_18eguod1ojyneu-fill" data-item-order="-5184" transform="translate(662, 170)"><g id="ic_puzz_18eguod1ojyneu-fill-merged" stroke="none" fill="#ffffff"><g><path d="M63.43 35.05C64.846 33.608 66.894 32.977 68.876 33.37C70.859 33.762 72.51 35.127 73.27 37C73.446 37.475 73.854 37.827 74.35 37.93C74.851 38.024 75.366 37.867 75.73 37.51L80.41 32.83C81.573 31.66 81.573 29.77 80.41 28.6L76.42 24.7C76.251 24.525 76.173 24.281 76.21 24.04C76.25 23.801 76.408 23.598 76.63 23.5C77.239 23.201 77.796 22.806 78.28 22.33C80.624 19.985 80.623 16.185 78.279 13.841C75.935 11.497 72.135 11.496 69.79 13.84C69.314 14.324 68.919 14.881 68.62 15.49C68.522 15.712 68.319 15.87 68.08 15.91C67.839 15.947 67.595 15.869 67.42 15.7L63.43 11.71C62.26 10.547 60.37 10.547 59.2 11.71L55 16C54.685 16.317 54.521 16.754 54.55 17.2C54.603 17.647 54.843 18.05 55.21 18.31C55.557 18.535 55.879 18.796 56.17 19.09C57.808 20.58 58.493 22.85 57.951 24.997C57.409 27.144 55.729 28.818 53.581 29.352C51.432 29.886 49.164 29.193 47.68 27.55C47.388 27.268 47.127 26.956 46.9 26.62C46.652 26.254 46.258 26.014 45.82 25.96C45.364 25.926 44.916 26.09 44.59 26.41L40 30.82C38.837 31.99 38.837 33.88 40 35.05L57.07 52C58.24 53.163 60.13 53.163 61.3 52L66.01 47.29C66.341 46.948 66.486 46.468 66.4 46C66.308 45.498 65.953 45.085 65.47 44.92C64.709 44.606 64.016 44.148 63.43 43.57C62.294 42.443 61.655 40.91 61.655 39.31C61.655 37.71 62.294 36.177 63.43 35.05 M77.71 67.36C78.18 67.123 78.494 66.66 78.543 66.136C78.592 65.612 78.368 65.1 77.95 64.78C75.972 63.039 73.214 62.489 70.72 63.34L60.46 66.73C60.073 66.869 59.752 67.147 59.56 67.51C58.552 69.539 56.486 70.827 54.22 70.84 H42.22C41.392 70.84 40.72 70.168 40.72 69.34C40.72 68.512 41.392 67.84 42.22 67.84 H54.22C55.877 67.84 57.22 66.497 57.22 64.84C57.22 63.183 55.877 61.84 54.22 61.84 H43.99C43.819 61.837 43.652 61.785 43.51 61.69C40.124 59.057 36.005 57.537 31.72 57.34 H25.54C23.676 57.337 21.838 57.769 20.17 58.6L11.17 63.13C10.912 63.248 10.748 63.506 10.75 63.79 V79.99C10.755 80.263 10.903 80.513 11.14 80.65C11.372 80.784 11.658 80.784 11.89 80.65L22 74.2C22.401 74.023 22.859 74.023 23.26 74.2C54.16 84.37 43.72 84.55 77.71 67.36"></path></g></g></g><g id="g-root-ic_brai_4hyqtp1ojey32-fill" data-item-order="-5184" transform="translate(470, 224)"><g id="ic_brai_4hyqtp1ojey32-fill-merged" stroke="none" fill="#ffffff"><g><path d="M79.18 39.16C78.672 38.568 77.79 38.475 77.17 38.95L67.63 46.15C67.439 46.274 67.335 46.494 67.36 46.72C67.375 46.99 67.375 47.26 67.36 47.53C67.003 49.989 64.721 51.694 62.261 51.337C59.802 50.981 58.097 48.699 58.453 46.239C58.809 43.78 61.091 42.075 63.55 42.43C63.818 42.468 64.079 42.539 64.33 42.64C64.52 42.732 64.74 42.732 64.93 42.64L67.03 41.05C67.693 40.553 67.827 39.613 67.33 38.95L64.75 35.53C64.483 35.149 64.045 34.925 63.58 34.93 H63.1C60.615 34.573 58.89 32.27 59.246 29.785C59.602 27.3 61.905 25.574 64.39 25.93C66.834 26.285 68.527 28.556 68.17 31 V31.48C68.056 31.924 68.144 32.396 68.41 32.77L70.99 36.19C71.226 36.514 71.583 36.731 71.98 36.79C72.374 36.826 72.768 36.72 73.09 36.49L76.87 33.49C77.18 33.271 77.386 32.935 77.44 32.56C77.499 32.042 77.52 31.521 77.5 31C77.5 25.201 72.799 20.5 67 20.5C66.605 14.581 61.682 9.987 55.75 10C53.231 9.998 50.786 10.855 48.82 12.43C48.458 12.71 48.248 13.143 48.25 13.6 V40C48.25 41.243 47.243 42.25 46 42.25C44.757 42.25 43.75 41.243 43.75 40 V13.6C43.752 13.143 43.542 12.71 43.18 12.43C41.214 10.855 38.769 9.998 36.25 10C30.329 9.986 25.411 14.563 25 20.47C22.21 20.47 19.535 21.58 17.565 23.556C15.595 25.532 14.492 28.21 14.5 31C14.504 31.563 14.554 32.125 14.65 32.68C14.704 33.055 14.91 33.391 15.22 33.61L19 36.46C19.322 36.69 19.716 36.796 20.11 36.76C20.507 36.701 20.864 36.484 21.1 36.16L23.68 32.74C23.946 32.366 24.034 31.894 23.92 31.45 V30.97C23.561 28.546 25.22 26.285 27.64 25.9C30.126 25.543 32.43 27.269 32.786 29.755C33.142 32.241 31.416 34.544 28.93 34.9 H28.45C27.985 34.895 27.547 35.119 27.28 35.5L24.7 38.86C24.203 39.523 24.337 40.463 25 40.96L27.07 42.55C27.271 42.639 27.499 42.639 27.7 42.55C27.951 42.449 28.212 42.378 28.48 42.34C30.939 41.985 33.221 43.69 33.577 46.149C33.933 48.609 32.228 50.891 29.769 51.247C27.309 51.604 25.027 49.899 24.67 47.44C24.655 47.17 24.655 46.9 24.67 46.63C24.695 46.404 24.591 46.184 24.4 46.06L14.83 38.95C14.21 38.475 13.328 38.568 12.82 39.16C11.072 41.016 10.068 43.451 10 46C10.146 49.546 11.988 52.805 14.95 54.76C15.549 55.174 15.764 55.958 15.46 56.62C14.241 59.257 14.176 62.283 15.28 64.97C16.385 67.657 18.559 69.763 21.28 70.78C21.844 70.989 22.478 70.848 22.9 70.42L28 65.41C28.148 65.248 28.215 65.027 28.18 64.81C28.09 64.548 28.03 64.276 28 64C28 61.515 30.015 59.5 32.5 59.5C34.985 59.5 37 61.515 37 64C37 66.485 34.985 68.5 32.5 68.5C32.231 68.529 31.959 68.529 31.69 68.5C31.473 68.465 31.252 68.532 31.09 68.68L26.23 73.45C25.814 73.892 25.686 74.532 25.9 75.1C27.649 79.272 31.727 81.99 36.25 82C38.769 82.002 41.214 81.145 43.18 79.57C43.542 79.29 43.752 78.857 43.75 78.4 V71.5C43.75 70.257 44.757 69.25 46 69.25C47.243 69.25 48.25 70.257 48.25 71.5 V78.4C48.248 78.857 48.458 79.29 48.82 79.57C50.786 81.145 53.231 82.002 55.75 82C60.273 81.99 64.351 79.272 66.1 75.1C66.314 74.532 66.186 73.892 65.77 73.45L61 68.59C60.838 68.442 60.617 68.375 60.4 68.41C60.131 68.439 59.859 68.439 59.59 68.41C57.754 68.446 56.08 67.364 55.361 65.674C54.641 63.985 55.02 62.027 56.319 60.729C57.617 59.43 59.575 59.051 61.264 59.771C62.954 60.49 64.036 62.164 64 64C64.029 64.269 64.029 64.541 64 64.81C63.965 65.027 64.032 65.248 64.18 65.41L69.19 70.42C69.612 70.848 70.246 70.989 70.81 70.78C73.531 69.763 75.705 67.657 76.81 64.97C77.914 62.283 77.849 59.257 76.63 56.62C76.326 55.958 76.541 55.174 77.14 54.76C80.068 52.785 81.874 49.529 82 46C81.932 43.451 80.928 41.016 79.18 39.16"></path></g></g></g><g id="g-root-tx_llm_ddlkr11ojx8uj-fill" data-item-order="0" transform="translate(218, 38)"><g id="tx_llm_ddlkr11ojx8uj-fill-merged" stroke="none" fill="#484848"><g><text style="font: bold 25px Roboto, sans-serif; white-space: pre;" font-weight="bold" font-size="25px" font-family="Roboto, sans-serif"><tspan x="12.49" y="42.6" dominant-baseline="ideographic">LLM으로 엑셀 처리 시 실패하는 이유</tspan></text></g></g></g><g id="g-root-tx__dbqbt91ojeya1-fill" data-item-order="0" transform="translate(242, 242)"><g id="tx__dbqbt91ojeya1-fill-merged" stroke="none" fill="#ffffff"><g><text style="font: bold 20px Roboto, sans-serif; white-space: pre;" font-weight="bold" font-size="20px" font-family="Roboto, sans-serif"><tspan x="12.63" y="34" dominant-baseline="ideographic">검색 신뢰성 향상</tspan></text></g></g></g><g id="g-root-tx__1lw60r11ojq7ls-fill" data-item-order="0" transform="translate(56, 278)"><g id="tx__1lw60r11ojq7ls-fill-merged" stroke="none" fill="#ffffff"><g><text style="font: bold 20px Roboto, sans-serif; white-space: pre;" font-weight="bold" font-size="20px" font-family="Roboto, sans-serif"><tspan x="13.34" y="34" dominant-baseline="ideographic">토큰 길이 제한 </tspan><tspan x="55.11" y="58" dominant-baseline="ideographic">해결</tspan></text></g></g></g><g id="g-root-tx__waj11ojewp6-fill" data-item-order="0" transform="translate(248, 278)"><g id="tx__waj11ojewp6-fill-merged" stroke="none" fill="#ffffff"><g><text style="font: 15px Roboto, sans-serif; white-space: pre;" font-size="15px" font-family="Roboto, sans-serif"><tspan x="17.08" y="27.6" dominant-baseline="ideographic">하나의 엑셀의 모든</tspan><tspan x="17.08" y="45.6" dominant-baseline="ideographic">데이터 청크를 검색</tspan><tspan x="16.25" y="63.6" dominant-baseline="ideographic">후 LLM에게 전달할</tspan><tspan x="17.08" y="81.6" dominant-baseline="ideographic">것이라고 보장 불가</tspan></text></g></g></g><g id="g-root-tx__hxr9e51otk6bs-fill" data-item-order="0" transform="translate(638, 266)"><g id="tx__hxr9e51otk6bs-fill-merged" stroke="none" fill="#ffffff"><g><text style="font: bold 20px Roboto, sans-serif; white-space: pre;" font-weight="bold" font-size="20px" font-family="Roboto, sans-serif"><tspan x="12.31" y="34" dominant-baseline="ideographic">모호한 컬럼명</tspan></text></g></g></g><g id="g-root-tx__4j6dl91otlkw2-fill" data-item-order="0" transform="translate(626, 302)"><g id="tx__4j6dl91otlkw2-fill-merged" stroke="none" fill="#ffffff"><g><text style="font: 15px Roboto, sans-serif; white-space: pre;" font-size="15px" font-family="Roboto, sans-serif"><tspan x="15.02" y="30.6" dominant-baseline="ideographic">사용자 질문과 컬럼명 </tspan><tspan x="13.16" y="48.6" dominant-baseline="ideographic">간의 일치가 되지 않아 </tspan><tspan x="19.94" y="66.6" dominant-baseline="ideographic">질문에 답변을 못함.</tspan></text></g></g></g><g id="g-root-tx__qvxhe51ojx91e-fill" data-item-order="0" transform="translate(446, 320)"><g id="tx__qvxhe51ojx91e-fill-merged" stroke="none" fill="#ffffff"><g><text style="font: bold 20px Roboto, sans-serif; white-space: pre;" font-weight="bold" font-size="20px" font-family="Roboto, sans-serif"><tspan x="12.31" y="34" dominant-baseline="ideographic">자유로운 형식</tspan></text></g></g></g><g id="g-root-tx__zpoz7x1ojq6tl-fill" data-item-order="0" transform="translate(56, 338)"><g id="tx__zpoz7x1ojq6tl-fill-merged" stroke="none" fill="#ffffff"><g><text style="font: 15px Roboto, sans-serif; white-space: pre;" font-size="15px" font-family="Roboto, sans-serif"><tspan x="17.07" y="27.6" dominant-baseline="ideographic">데이터가 큰 엑셀의</tspan><tspan x="30.05" y="45.6" dominant-baseline="ideographic">경우 LLM에게 </tspan><tspan x="25.84" y="63.6" dominant-baseline="ideographic">데이터를 한번에</tspan><tspan x="30.88" y="81.6" dominant-baseline="ideographic">전달할 수 없음</tspan></text></g></g></g><g id="g-root-tx__9mxql1ojx91g-fill" data-item-order="0" transform="translate(434, 356)"><g id="tx__9mxql1ojx91g-fill-merged" stroke="none" fill="#ffffff"><g><text style="font: 15px Roboto, sans-serif; white-space: pre;" font-size="15px" font-family="Roboto, sans-serif"><tspan x="13.16" y="27.6" dominant-baseline="ideographic">여러 줄 제목과 병합된 </tspan><tspan x="28.82" y="45.6" dominant-baseline="ideographic">그룹핑된 셀들을 </tspan><tspan x="51.38" y="63.6" dominant-baseline="ideographic">정확하게 </tspan><tspan x="37.58" y="81.6" dominant-baseline="ideographic">인식하지 못함</tspan></text></g></g></g><g id="g-root-cp_1_g-1_qn6nv11ojx897-stroke" data-item-order="-475188" transform="translate(38, 158)"><g id="cp_1_g-1_qn6nv11ojx897-stroke" fill="none" stroke-linecap="round" stroke-linejoin="round" stroke-miterlimit="4" stroke="#ffffff" stroke-width="2"><g><path d="M 10 10L 178 10L 178 274L 10 274Z"></path></g></g></g><g id="g-root-cp_0_g-0_dccmkt1ojx6oc-stroke" data-item-order="-475174" transform="translate(64.25, 445.248046875)"><g id="cp_0_g-0_dccmkt1ojx6oc-stroke" fill="none" stroke-linecap="round" stroke-linejoin="round" stroke-miterlimit="4" stroke="#ffffff" stroke-width="2"><g><path d="M 72.7884 78.1666C 72.9699 79.6726 72.9705 81.1432 72.7164 82.5292C 71.8039 87.3509 76.1184 94.4256 81.2342 98.2049C 80.8031 93.3577 81.4507 88.7684 79.6652 85.7226C 78.2369 83.2859 74.4855 79.67 72.7884 78.1666ZM 57.7796 143.7479C 84.9765 130.0002 77.7884 123.0008 109.2661 106.5545C 116.7859 102.6256 105.0579 88.349 89.3964 100.5319C 88.321 99.966 86.506 100.6529 84.9765 100.1498C 83.5988 99.6966 82.3499 99.0291 81.2342 98.2049C 76.1184 94.4256 71.8039 87.3509 72.7164 82.5292C 72.9705 81.1432 72.9699 79.6726 72.7884 78.1666C 71.8096 70.0428 70.5671 59.8926 70.6347 57.4772C 73.3887 32.9666 74.7801 26.2659 71.7316 16.5218C 68.6831 6.7777 62.7219 9.8636 62.1042 13.5553C 60.9449 20.4838 60.314 35.5344 54.7155 54.9185C 54.4734 56.5281 53.1325 61.3655 52.8939 62.7801C 48.4915 63.8761 47.2649 63.4928 43.2561 67.3972C 37.8553 68.8606 31.3831 76.9374 30.602 79.2817C 23.6756 83.1363 21.0837 90.6819 20.6773 95.2783C 21.1037 98.7821 20.1645 109.557 20.1645 109.557C 20.1645 137.8004 10 143.7479 10 163.6688L 52.3748 163.6688C 52.3748 153.448 56.7298 144.2311 57.7796 143.7479ZM 57.7796 143.7479C 59.2523 142.0335 63.0028 136.7049 63.0028 130.0002M 30.602 79.2817L 28.9023 82.5292M 52.8939 62.7801C 50.0961 65.2189 50.1816 68.9362 47.9586 72.3562M 43.2561 67.3972C 42.3554 68.895 40.3805 72.4181 39.6865 74.5286M 96.6975 105.1865C 96.4405 104.3083 92.6493 102.2436 89.3964 100.5319"></path></g></g></g><g id="g-root-cp_2_g-2_8wj4gd1ojx7gl-stroke" data-item-order="-475170" transform="translate(230, 122)"><g id="cp_2_g-2_8wj4gd1ojx7gl-stroke" fill="none" stroke-linecap="round" stroke-linejoin="round" stroke-miterlimit="4" stroke="#ffffff" stroke-width="2"><g><path d="M 10 10L 178 10L 178 250L 10 250Z"></path></g></g></g><g id="g-root-cp_0_g-0_1_1um6o251ojx8ue-stroke" data-item-order="-475156" transform="translate(280.07000732421875, 384.2359619140625)"><g id="cp_0_g-0_1_1um6o251ojx8ue-stroke" fill="none" stroke-linecap="round" stroke-linejoin="round" stroke-miterlimit="4" stroke="#ffffff" stroke-width="2"><g><path d="M 40.0995 60.6544C 40.2803 63.4046 40.4042 65.872 40.4861 68.1247C 40.651 72.6616 40.6454 76.3278 40.5905 79.6807C 40.5673 81.0968 40.5353 82.4571 40.5036 83.8034C 40.5437 82.5691 40.5736 81.174 40.5905 79.6807C 40.631 76.105 40.6017 71.9664 40.4861 68.1247C 40.4034 65.3781 40.2765 62.7832 40.0995 60.6544ZM 15.0709 87.6678L 14.768 88.363L 14.426 88.967L 14.2283 89.2293L 14.0305 89.4297C 14.2895 89.2073 14.534 88.8419 14.768 88.363C 15.0574 87.7705 15.3308 87.0042 15.5957 86.1206L 15.3411 86.9232L 15.0709 87.6678ZM 16.2825 83.5462L 17.0346 80.3391C 16.9706 80.6161 16.907 80.8922 16.8436 81.1668C 16.6554 81.9816 16.4694 82.782 16.2825 83.5462ZM 64.9226 137.2336C 68.3662 132.8074 79.8638 119.767 83.7854 103.3127C 86.8339 90.5215 86.0511 80.2677 88.1997 72.4411C 90.8731 62.7032 76.6539 66.7893 74.7493 80.1088C 72.8447 93.4283 68.4012 94.1162 66.2393 94.9845L 62.9556 93.7317C 61.6207 87.5251 61.1162 78.3104 59.8008 69.4808C 52.6867 36.4779 53.5006 18.524 48.8747 13.0108C 44.2488 7.4977 38.4465 10.5146 38.6391 14.4303C 39.0004 21.779 41.4985 39.5686 40.0995 60.6544C 40.2765 62.7832 40.4034 65.3781 40.4861 68.1247C 40.651 72.6616 40.6454 76.3278 40.5905 79.6807C 40.5731 81.2116 40.543 82.6393 40.5015 83.8964L 40.5036 83.8034C 40.5353 82.4571 40.5673 81.0968 40.5905 79.6807C 40.631 76.105 40.6017 71.9664 40.4861 68.1247C 40.4042 65.872 40.2803 63.4046 40.0995 60.6544C 39.8422 57.5616 39.6136 56.3563 38.8697 55.4099C 37.3837 53.5192 33.288 52.0276 29.4085 56.3424C 28.0633 57.8386 26.9117 61.1627 26.6057 65.6738L 26.4153 69.4557L 26.4128 69.522L 26.3777 70.4708C 26.3115 72.3121 26.255 74.0814 26.1524 75.5986L 26.1487 75.6689L 26.1453 75.702C 25.9915 77.9122 25.7355 79.57 25.2006 80.1053L 25.3297 79.9468L 25.4962 79.6385L 25.7081 79.0058L 25.8993 78.0582L 26.1453 75.702L 26.1524 75.5986L 26.2777 73.1777L 26.3777 70.4708C 26.389 70.1564 26.4006 69.8398 26.4128 69.522L 26.4149 69.4627L 26.4153 69.4557C 26.4638 68.1944 26.5215 66.915 26.6057 65.6738L 26.6059 65.6706C 22.7409 65.7637 22.165 67.4437 20.0488 70.8299C 19.212 72.169 18.5249 74.3313 17.9061 76.7224L 17.4879 78.4061L 17.0346 80.3391C 17.1833 79.6956 17.3339 79.0477 17.4879 78.4061C 17.6243 77.8376 17.7634 77.2739 17.9061 76.7224C 17.4465 76.6893 17.6795 77.0292 15.5609 78.7269C 13.1008 80.6983 10.7969 86.8591 10.1612 89.3619L 10 89.8699L 10.8835 99.683C 13.5672 122.3607 20.1895 132.4568 21.604 140.3763L 26.0337 164.7415L 66.0334 164.7415C 64.2017 153.8724 64.1794 138.189 64.9226 137.2336ZM 14.768 88.363L 15.0709 87.6678L 15.3411 86.9232L 15.5957 86.1206C 15.3308 87.0042 15.0574 87.7705 14.768 88.363C 14.534 88.8419 14.2895 89.2073 14.0305 89.4297L 14.2283 89.2293L 14.426 88.967L 14.768 88.363ZM 66.4327 100.8314C 64.7818 99.9154 63.7292 97.3287 62.9556 93.7317M 40.5015 83.8964C 40.5022 83.8654 40.5029 83.8344 40.5036 83.8034M 20.0488 70.8299C 18.8011 72.8264 17.8864 76.6528 17.0346 80.3391M 14.0305 89.4297C 15.1268 88.4887 15.9618 84.9851 16.8436 81.1668C 16.428 82.9664 16.0228 84.6962 15.5957 86.1206M 15.5957 86.1206L 15.8372 85.2766L 16.2825 83.5462C 16.0566 84.47 15.8294 85.3412 15.5957 86.1206ZM 26.4153 69.4557C 26.4145 69.4778 26.4136 69.4999 26.4128 69.522M 26.1524 75.5986C 26.15 75.6332 26.1477 75.6676 26.1453 75.702"></path></g></g></g><g id="g-root-cp_3_g-3_1hbcmrx1ojx79j-stroke" data-item-order="-475152" transform="translate(422, 200)"><g id="cp_3_g-3_1hbcmrx1ojx79j-stroke" fill="none" stroke-linecap="round" stroke-linejoin="round" stroke-miterlimit="4" stroke="#ffffff" stroke-width="2"><g><path d="M 10 10L 178 10L 178 250L 10 250Z"></path></g></g></g><g id="g-root-cp_0_g-0_2_1cvj4nh1ojx81s-stroke" data-item-order="-475138" transform="translate(469.2269287109375, 463.864990234375)"><g id="cp_0_g-0_2_1cvj4nh1ojx81s-stroke" fill="none" stroke-linecap="round" stroke-linejoin="round" stroke-miterlimit="4" stroke="#ffffff" stroke-width="2"><g><path d="M 27.241861 158.8985C 27.011061 154.1789 29.199661 142.1922 20.924361 132.9837C 12.649161 123.7752 9.881761 104.0888 10.003861 90.3689C 10.028761 87.5711 11.622561 86.2651 15.495661 83.4998C 23.763861 77.5964 29.913961 73.9947 29.913961 73.9947C 37.197261 49.1373 35.947061 41.4614 39.578461 24.2141C 41.832161 4.6901 53.321161 9.1467 53.321161 14.973C 53.321161 20.7994 52.015461 24.2949 52.015461 32.3502C 51.387261 42.3745 50.792561 56.4052 50.792361 66.8456C 55.797861 60.7075 63.549061 66.2168 63.455561 71.2353L 63.455661 71.2325C 70.640061 69.4345 73.829661 75.2025 75.066961 81.2454C 75.554961 81.294 77.801861 81.9907 79.888761 83.8087C 82.312161 85.9197 82.739561 92.2299 83.190661 94.4923L 83.316161 94.957C 83.316161 94.957 86.364661 98.0372 87.356561 103.6579C 88.348461 109.2785 68.765261 140.1801 68.774461 146.4055C 68.779561 149.9173 67.656961 152.1626 68.218261 158.8985L 27.241861 158.8985ZM 25.182061 99.6842C 25.182061 97.3382 25.222561 93.2084 25.339361 91.3224M 50.792361 66.8456L 50.792361 71.2325M 29.913961 73.9947C 27.367461 82.6859 25.680961 85.8049 25.339361 91.3224M 25.339361 91.3224C 23.869161 91.7886 20.928861 93.3406 20.928861 95.8185"></path></g></g></g><g id="g-root-cp_4_g-4_13zw4el1ojx8uh-stroke" data-item-order="-475134" transform="translate(614, 146)"><g id="cp_4_g-4_13zw4el1ojx8uh-stroke" fill="none" stroke-linecap="round" stroke-linejoin="round" stroke-miterlimit="4" stroke="#ffffff" stroke-width="2"><g><path d="M 10 10L 178 10L 178 238L 10 238Z"></path></g></g></g><g id="g-root-cp_0_g-0_3_qp234d1ojx79m-stroke" data-item-order="-475120" transform="translate(645.5780029296875, 396.4630126953125)"><g id="cp_0_g-0_3_qp234d1ojx79m-stroke" fill="none" stroke-linecap="round" stroke-linejoin="round" stroke-miterlimit="4" stroke="#ffffff" stroke-width="2"><g><path d="M 54.4671 145.4262C 50.6754 141.6458 33.6424 130.5195 29.1105 115.0183C 25.0477 101.1216 14.9798 89.3104 10.8357 81.6611C 6.243 73.1838 21.6512 68.0709 30.9688 85.1167C 36.3531 91.5965 42.3599 96.9406 45.6467 97.5415C 46.9371 97.7774 50.8085 95.0803 52.2883 92.5581C 54.5777 88.6561 54.294 84.2078 54.294 84.2078C 54.6532 80.0482 54.5218 78.1402 54.4671 74.5708C 54.4424 72.9581 54.4333 71.0063 54.4921 68.3545C 54.7653 65.2074 54.9837 62.2063 55.1589 59.3475C 56.7714 33.034 54.7245 18.766 58.0816 13.556C 61.8035 7.78 67.6608 9.9431 67.9471 13.6752C 68.4846 20.6795 68.2478 37.8294 72.0973 57.6352C 72.195 59.26 72.3004 60.7796 72.412 62.2099C 72.4809 63.0919 72.5521 63.94 72.6254 64.7577C 73.0123 69.0749 73.4565 72.547 73.9098 75.7165C 74.1095 77.1645 74.309 78.5133 74.4988 79.699L 74.4856 79.6113C 74.2945 78.3397 74.1013 77.0551 73.9098 75.7165C 73.4435 72.3343 72.9757 68.4106 72.6254 64.7577C 72.5521 63.94 72.4809 63.0919 72.412 62.2099C 76.6993 63.6936 81.6116 70.3248 85.2567 74.5708C 90.5056 76.5096 92.9562 81.8035 93.5254 84.2082C 96.0917 85.781 99.1212 90.615 99.1164 95.2294C 102.6336 98.023 101.7872 102.638 101.7872 102.638C 101.9598 124.4405 96.9271 131.8909 102.6378 144.4351C 108.3484 156.9792 108.3484 168.0066 108.3484 168.0066L 68.2311 168.0066C 62.2873 151.4328 55.2855 146.2422 54.4671 145.4262ZM 55.1589 59.3475C 54.9837 62.2063 54.7653 65.2074 54.4921 68.3545C 54.4333 71.0063 54.4424 72.9581 54.4671 74.5708L 50.027 73.5708C 43.4658 78.6739 38.3906 81.504 33.0445 76.958C 27.6984 72.4121 34.3531 68.3545 40.5497 64.1216C 45.5071 60.7352 52.3547 59.5279 55.1589 59.3475ZM 74.4988 79.699C 74.4944 79.6698 74.49 79.6405 74.4856 79.6113C 74.3 78.4469 74.1046 77.129 73.9098 75.7165M 50.027 73.5708C 52.457 73.5708 53.9996 74.5708 54.4671 74.5708M 52.2883 92.5581C 50.9217 96.2773 49.5982 101.3065 45.0102 102.638"></path></g></g></g><g id="g-root-ic_chec_93efkd1ojq6tn-stroke" data-item-order="-5184" transform="translate(278, 146)"></g><g id="g-root-ic_page_2rjgt1ojx79o-stroke" data-item-order="-5184" transform="translate(86, 182)"></g><g id="g-root-ic_puzz_18eguod1ojyneu-stroke" data-item-order="-5184" transform="translate(662, 170)"></g><g id="g-root-ic_brai_4hyqtp1ojey32-stroke" data-item-order="-5184" transform="translate(470, 224)"></g><g id="g-root-tx_llm_ddlkr11ojx8uj-stroke" data-item-order="0" transform="translate(218, 38)"></g><g id="g-root-tx__dbqbt91ojeya1-stroke" data-item-order="0" transform="translate(242, 242)"></g><g id="g-root-tx__1lw60r11ojq7ls-stroke" data-item-order="0" transform="translate(56, 278)"></g><g id="g-root-tx__waj11ojewp6-stroke" data-item-order="0" transform="translate(248, 278)"></g><g id="g-root-tx__hxr9e51otk6bs-stroke" data-item-order="0" transform="translate(638, 266)"></g><g id="g-root-tx__4j6dl91otlkw2-stroke" data-item-order="0" transform="translate(626, 302)"></g><g id="g-root-tx__qvxhe51ojx91e-stroke" data-item-order="0" transform="translate(446, 320)"></g><g id="g-root-tx__zpoz7x1ojq6tl-stroke" data-item-order="0" transform="translate(56, 338)"></g><g id="g-root-tx__9mxql1ojx91g-stroke" data-item-order="0" transform="translate(434, 356)"></g></g></g><path id="w142dxlp1p3s7ws" d="M65.283 12.757a.35.35 0 0 0 .584.157l5.203-5.141-6.183 3.523.396 1.461zm-2.216-11.7a.35.35 0 0 0-.522.305v3.111l3.276-1.868-2.754-1.548zm3.728 2.105l-4.25 2.421v2.445l6.391-3.644-2.141-1.222zm4.708 3.303a.35.35 0 0 0 0-.609l-1.592-.9-7.365 4.199v1.782a.35.35 0 0 0 .523.305l8.435-4.777z M44.542 2.513c0-.433.355-.783.792-.783s.792.35.792.783-.355.783-.792.783-.792-.35-.792-.783zm59.171 0c0-.433.355-.783.792-.783s.792.35.792.783-.355.783-.792.783-.792-.35-.792-.783zm-85.951 7.636h-1.27v-.487c-.276.201-.864.609-1.881.609-1.202 0-2.274-.794-2.137-2.078.118-1.106 1.153-1.584 1.848-1.727l2.17-.345c0-.539-.29-.956-1.064-1.006s-1.21.305-1.571 1.017l-1.124-.605c1.218-2.631 5.029-1.764 5.029.414v4.207zm-1.27-2.86c.006.396-.062 1.112-.819 1.59-.587.37-1.841.299-1.903-.395-.049-.555.461-.791.906-.898l1.816-.297zm72.662 2.86h-1.27v-.487c-.276.201-.864.609-1.881.609-1.202 0-2.274-.794-2.137-2.078.118-1.106 1.153-1.584 1.848-1.727l2.17-.345c0-.539-.29-.956-1.064-1.006s-1.21.305-1.571 1.017l-1.124-.605c1.218-2.631 5.029-1.764 5.029.414v4.207zm-1.27-2.86c.006.396-.062 1.112-.82 1.59-.587.37-1.841.299-1.903-.395-.049-.555.461-.791.906-.898l1.816-.297zM99.096 10.149H97.85v-8.45h1.246v4.895l2.68-2.559h1.738l-2.633 2.535 2.715 3.578h-1.556l-2.077-2.707-.867.844v1.863zm6.053-6.114h-1.255v6.113h1.255V4.035zm-59.2 0h-1.255v6.113h1.255V4.035zm5.584 6.113V1.697h1.255v2.695c.361-.346 1-.485 1.47-.485 1.452 0 2.477 1.082 2.457 2.448v3.792h-1.27v-3.68c0-.408-.214-1.339-1.315-1.339-.968 0-1.342.756-1.342 1.339v3.681h-1.255zm-4.76-4.894V4.039h.621a.45.45 0 0 0 .45-.45v-.855h1.251v1.305h1.309v1.215h-1.309v3.109c0 .293.105.664.648.664.365 0 .531-.035.736-.07v1.137s-.361.113-.857.113c-1.398 0-1.777-1.051-1.777-1.788V5.254h-1.071zM36.528 4.039h-1.394l2.191 6.106h1.125l1.234-3.918 1.238 3.918h1.129l2.188-6.106h-1.383l-1.359 3.93-1.256-3.93h-1.124l-1.242 3.957-1.348-3.957zM26.212 7.141c-.02 1.566 1.187 3.129 3.223 3.129 1.566 0 2.383-.918 2.734-1.719L31.172 8c-.315.399-.801 1.094-1.738 1.094-1.145 0-1.825-.781-1.891-1.52h4.625c.074-.284.148-.995-.03-1.559-.336-1.064-1.221-2.102-2.839-2.102s-3.088 1.152-3.088 3.227zm1.363-.75h3.348c-.055-.43-.566-1.301-1.623-1.301a1.79 1.79 0 0 0-1.725 1.301zm-8.758.75c.038 1.758 1.277 3.133 3.145 3.133 1.074 0 1.723-.477 1.961-.672v.547h1.242V1.703h-1.258v2.888c-.414-.36-1.062-.68-1.93-.68-1.91 0-3.198 1.473-3.16 3.23zm1.309-.08c0 1.119.723 1.978 1.836 1.978a1.88 1.88 0 0 0 1.94-1.904c0-1.371-1.011-1.99-1.972-1.99s-1.805.798-1.805 1.916zm76.683-.028C96.771 5.275 95.532 3.9 93.664 3.9c-1.074 0-1.723.477-1.961.672v-.547h-1.242v8.22h1.258V9.583c.414.36 1.063.68 1.93.68 1.91 0 3.198-1.473 3.16-3.23zm-1.309.08c0-1.119-.723-1.978-1.836-1.978a1.88 1.88 0 0 0-1.94 1.904c0 1.371 1.011 1.99 1.972 1.99S95.5 8.231 95.5 7.113zM106.441 10.173V4.036h1.254v.382c.361-.346 1-.485 1.47-.485 1.452 0 2.477 1.082 2.457 2.448v3.792h-1.27V6.492c0-.408-.214-1.339-1.315-1.339-.969 0-1.342.756-1.342 1.339v3.681h-1.254zm-30.383-.021V1.824h1.084l4.215 5.777V1.824h1.32v8.328h-1.094l-4.207-5.796v5.796h-1.319zM5.24 10.149H4V2.377h1.014l2.664 3.597 2.654-3.592h1.03v7.766h-1.256V4.762L7.678 8.068 5.24 4.742v5.407z" transform="translate(704, 662)" fill="#80808088" stroke="none"></path></svg>