<?xml version="1.0" encoding="utf-8" standalone="yes"?>
<!DOCTYPE svg PUBLIC "-//W3C//DTD SVG 1.1//EN" "http://www.w3.org/Graphics/SVG/1.1/DTD/svg11.dtd">
<svg width="679" height="630" viewBox="0 0 679 630" style="fill:none;stroke:none;fill-rule:evenodd;clip-rule:evenodd;stroke-linecap:round;stroke-linejoin:round;stroke-miterlimit:1.5;" version="1.1" xmlns="http://www.w3.org/2000/svg" xmlns:xlink="http://www.w3.org/1999/xlink"><style class="text-font-style fontImports" data-font-family="Roboto">@import url(https://fonts.googleapis.com/css2?family=Roboto:wght@400;700&amp;amp;display=block);</style><g id="items" style="isolation: isolate"><g id="blend" style="mix-blend-mode: normal"><g id="g-root-cp_1_circle-1_1haq2m51lrua6g-fill" data-item-order="-331894" transform="translate(109.83984375, 138)"><g id="cp_1_circle-1_1haq2m51lrua6g-fill-merged" stroke="none" fill="url(#gradient-76aaff-163240667)"><g><path d="M10 46C10 65.882 26.118 82 46 82C65.882 82 82 65.882 82 46C82 26.118 65.882 10 46 10C26.118 10 10 26.118 10 46"></path></g></g></g><g id="g-root-sy_1_Subtract_13zw1bx1lru8ll-fill" data-item-order="-331885" transform="translate(145.83987426757812, 210)"></g><g id="g-root-sy_2_Subtract_zk2j7h1lru9du-fill" data-item-order="-331875" transform="translate(323.35986328125, 218)"></g><g id="g-root-sy_2_Subtract-start_qofiyl1lrua6j-fill" data-item-order="-331873" transform="translate(320.3599853515625, 211)"></g><g id="g-root-cp_3_circle-3_m98hx91lru7t0-fill" data-item-order="-331868" transform="translate(465.51983642578125, 138)"><g id="cp_3_circle-3_m98hx91lru7t0-fill-merged" stroke="none" fill="url(#gradient-64edab-240055791)"><g><path d="M10 46C10 65.882 26.118 82 46 82C65.882 82 82 65.882 82 46C82 26.118 65.882 10 46 10C26.118 10 10 26.118 10 46"></path></g></g></g><g id="g-root-sy_3_Subtract_ddlhod1lru8lp-fill" data-item-order="-331859" transform="translate(501.5198974609375, 210)"></g><g id="g-root-cp_1_g-1_1_8xrzjx1lru9dy-fill" data-item-order="-331854" transform="translate(85, 283)"><g id="cp_1_g-1_1_8xrzjx1lru9dy-fill-merged" stroke="none" fill="url(#gradient-76aaff-163240667)"><g><path d="M16 22L10 10 H131L163 58L131 106 H10L16 94 H123L147 58L123 22 H16"></path></g></g></g><g id="g-root-cp_0_g-0_1uo208t1lru7lz-fill" data-item-order="-331848" transform="translate(30, 295)"><g id="cp_0_g-0_1uo208t1lru7lz-fill-merged" stroke="none" fill="url(#gradient-cbcbcb-248399021)"><g><path d="M34 10 H178 V82 H34 V10"></path></g></g><g id="cp_0_g-0_1uo208t1lru7lz-fill-merged" stroke="none" fill="url(#gradient-cbcbcb-248399021)"><g><path d="M10 10L34 46L10 82 H34 V10 H10"></path></g></g><g id="cp_0_g-0_1uo208t1lru7lz-fill-merged" stroke="none" fill="url(#gradient-cbcbcb-248399021)"><g><path d="M178 10L202 46L178 82 V10"></path></g></g></g><g id="g-root-cp_2_g-2_1_1q88i4d1lru8e8-fill" data-item-order="-331824" transform="translate(269, 283)"><g id="cp_2_g-2_1_1q88i4d1lru8e8-fill-merged" stroke="none" fill="url(#gradient-4dd3ff-378786070)"><g><path d="M16 22L10 10 H131L163 58L131 106 H10L16 94 H123L147 58L123 22 H16"></path></g></g></g><g id="g-root-cp_0_g-0_1_1hclhvh1lru96x-fill" data-item-order="-331818" transform="translate(214, 295)"><g id="cp_0_g-0_1_1hclhvh1lru96x-fill-merged" stroke="none" fill="url(#gradient-cbcbcb-248399021)"><g><path d="M34 10 H178 V82 H34 V10"></path></g></g><g id="cp_0_g-0_1_1hclhvh1lru96x-fill-merged" stroke="none" fill="url(#gradient-cbcbcb-248399021)"><g><path d="M10 10L34 46L10 82 H34 V10 H10"></path></g></g><g id="cp_0_g-0_1_1hclhvh1lru96x-fill-merged" stroke="none" fill="url(#gradient-cbcbcb-248399021)"><g><path d="M178 10L202 46L178 82 V10"></path></g></g></g><g id="g-root-cp_1_g-1_2_141rgl91lru7m2-fill" data-item-order="-331804" transform="translate(214, 295)"><g id="cp_1_g-1_2_141rgl91lru7m2-fill-merged" stroke="none" fill="url(#gradient-76aaff-163240667)"><g><path d="M32.685 45.342 H34 V46.657 H32.685 V45.342"></path></g></g></g><g id="g-root-cp_3_g-3_1_mahg3h1lru9z7-fill" data-item-order="-331790" transform="translate(453, 283)"><g id="cp_3_g-3_1_mahg3h1lru9z7-fill-merged" stroke="none" fill="url(#gradient-64edab-240055791)"><g><path d="M16 22L10 10 H131L163 58L131 106 H10L16 94 H123L147 58L123 22 H16"></path></g></g></g><g id="g-root-cp_0_g-0_2_dfgwxp1lru7m4-fill" data-item-order="-331784" transform="translate(398, 295)"><g id="cp_0_g-0_2_dfgwxp1lru7m4-fill-merged" stroke="none" fill="url(#gradient-cbcbcb-248399021)"><g><path d="M34 10 H178 V82 H34 V10"></path></g></g><g id="cp_0_g-0_2_dfgwxp1lru7m4-fill-merged" stroke="none" fill="url(#gradient-cbcbcb-248399021)"><g><path d="M10 10L34 46L10 82 H34 V10 H10"></path></g></g><g id="cp_0_g-0_2_dfgwxp1lru7m4-fill-merged" stroke="none" fill="url(#gradient-cbcbcb-248399021)"><g><path d="M178 10L202 46L178 82 V10"></path></g></g></g><g id="g-root-cp_2_g-2_2_40ekd1lru971-fill" data-item-order="-331770" transform="translate(398, 295)"><g id="cp_2_g-2_2_40ekd1lru971-fill-merged" stroke="none" fill="url(#gradient-4dd3ff-378786070)"><g><path d="M32.685 45.342 H34 V46.657 H32.685 V45.342"></path></g></g></g><g id="g-root-sy_1_Subtract_1_1upayf11lru9s6-fill" data-item-order="-331751" transform="translate(145.9998779296875, 379)"></g><g id="g-root-sy_1_Subtract-start_1luaf991lru7f3-fill" data-item-order="-331749" transform="translate(143, 444)"></g><g id="g-root-sy_2_Subtract_1_1hegx4t1lru87c-fill" data-item-order="-331737" transform="translate(329.83990478515625, 379)"></g><g id="g-root-cp_2_circle-2_1cynf0d1lru8zl-fill" data-item-order="-331736" transform="translate(293.83984375, 451)"><defs><linearGradient id="gradient-76aaff-163240667" x2="0" y2="1"><stop offset="0" stop-color="#9cc2ff"></stop><stop offset="1" stop-color="#4f92ff"></stop></linearGradient><linearGradient id="gradient-64edab-240055791" x2="0" y2="1"><stop offset="0" stop-color="#83fac1"></stop><stop offset="1" stop-color="#44e095"></stop></linearGradient><linearGradient id="gradient-cbcbcb-248399021" x2="0" y2="1"><stop offset="0" stop-color="#d9d9d9"></stop><stop offset="1" stop-color="#bcbcbc"></stop></linearGradient><linearGradient id="gradient-4dd3ff-378786070" x2="0" y2="1"><stop offset="0" stop-color="#7fdfff"></stop><stop offset="1" stop-color="#1ac6ff"></stop></linearGradient></defs><g id="cp_2_circle-2_1cynf0d1lru8zl-fill-merged" stroke="none" fill="url(#gradient-4dd3ff-378786070)"><g><path d="M10 46C10 65.882 26.118 82 46 82C65.882 82 82 65.882 82 46C82 26.118 65.882 10 46 10C26.118 10 10 26.118 10 46"></path></g></g></g><g id="g-root-sy_3_Subtract_1_1430erh1lru9sa-fill" data-item-order="-331725" transform="translate(507.679931640625, 379)"></g><g id="g-root-sy_3_Subtract-start_zntdq51lru7er-fill" data-item-order="-331723" transform="translate(504.67999267578125, 444)"></g><g id="g-root-tx_latesept_1ut1sxp1lru7sy-fill" data-item-order="0" transform="translate(250, 319)"><g id="tx_latesept_1ut1sxp1lru7sy-fill-merged" stroke="none" fill="#484848"><g><text style="font: bold 20px Roboto, sans-serif; white-space: pre;" font-weight="bold" font-size="20px" font-family="Roboto, sans-serif"><tspan x="12" y="34" dominant-baseline="ideographic">  DevBOT 통합</tspan></text></g></g></g><g id="g-root-tx_earlyoct_18lyabh1lrua6j-fill" data-item-order="0" transform="translate(434, 319)"><g id="tx_earlyoct_18lyabh1lrua6j-fill-merged" stroke="none" fill="#484848"><g><text style="font: bold 20px Roboto, sans-serif; white-space: pre;" font-weight="bold" font-size="20px" font-family="Roboto, sans-serif"><tspan x="12" y="34" dominant-baseline="ideographic">      공식 오픈</tspan></text></g></g></g><g id="g-root-tx__hrjkjh1lrvnrc-fill" data-item-order="0" transform="translate(441.67999267578125, 499)"><g id="tx__hrjkjh1lrvnrc-fill-merged" stroke="none" fill="#484848"><g><text style="font: 15px Roboto, sans-serif; white-space: pre;" font-size="15px" font-family="Roboto, sans-serif"><tspan x="17.07" y="27.6" dominant-baseline="ideographic">엑셀 기반 질의응답</tspan><tspan x="30.88" y="45.6" dominant-baseline="ideographic">기능 공식 출시</tspan></text></g></g></g><g id="g-root-tx_3_zp2bwd1lru9kw-fill" data-item-order="0" transform="translate(489.67999267578125, 156)"><g id="tx_3_zp2bwd1lru9kw-fill-merged" stroke="none" fill="#484848"><g><text style="font: bold 25px Roboto, sans-serif; white-space: pre;" font-weight="bold" font-size="25px" font-family="Roboto, sans-serif"><tspan x="14.82" y="42.6" dominant-baseline="ideographic">3</tspan></text></g></g></g><g id="g-root-tx_1_91iu2l1lru7et-fill" data-item-order="0" transform="translate(134, 156)"><g id="tx_1_91iu2l1lru7et-fill-merged" stroke="none" fill="#484848"><g><text style="font: bold 25px Roboto, sans-serif; white-space: pre;" font-weight="bold" font-size="25px" font-family="Roboto, sans-serif"><tspan x="14.82" y="42.6" dominant-baseline="ideographic">1</tspan></text></g></g></g><g id="g-root-tx_devbotpr_18kpc591lru80f-fill" data-item-order="0" transform="translate(257.67999267578125, 138)"><g id="tx_devbotpr_18kpc591lru80f-fill-merged" stroke="none" fill="#484848"><g><text style="font: 15px Roboto, sans-serif; white-space: pre;" font-size="15px" font-family="Roboto, sans-serif"><tspan x="14.16" y="30.6" dominant-baseline="ideographic">DevBOT 및 Private </tspan><tspan x="13.41" y="48.6" dominant-baseline="ideographic">DevBOT에 엑셀/표 </tspan><tspan x="28.16" y="66.6" dominant-baseline="ideographic">처리 적용/개선</tspan></text></g></g></g><g id="g-root-tx__qvaqwt1lru9dw-fill" data-item-order="0" transform="translate(116, 463)"><g id="tx__qvaqwt1lru9dw-fill-merged" stroke="none" fill="#4e88e7"><g><text style="font: bold 20px Roboto, sans-serif; white-space: pre;" font-weight="bold" font-size="20px" font-family="Roboto, sans-serif"><tspan x="15.86" y="34" dominant-baseline="ideographic">9월중</tspan></text></g></g></g><g id="g-root-tx_devbot_1ur6dod1lru8sm-fill" data-item-order="0" transform="translate(293.67999267578125, 102)"><g id="tx_devbot_1ur6dod1lru8sm-fill-merged" stroke="none" fill="#1eabda"><g><text style="font: bold 20px Roboto, sans-serif; white-space: pre;" font-weight="bold" font-size="20px" font-family="Roboto, sans-serif"><tspan x="15.86" y="34" dominant-baseline="ideographic">9월말</tspan></text></g></g></g><g id="g-root-tx__qs6dh91lru87g-fill" data-item-order="0" transform="translate(251.5, 38)"><g id="tx__qs6dh91lru87g-fill-merged" stroke="none" fill="#484848"><g><text style="font: bold 25px Roboto, sans-serif; white-space: pre;" font-weight="bold" font-size="25px" font-family="Roboto, sans-serif"><tspan x="12.78" y="42.6" dominant-baseline="ideographic">향후 적용 계획</tspan></text></g></g></g><g id="g-root-tx_2_1lza7y51lru7ly-fill" data-item-order="0" transform="translate(317.8399658203125, 469)"><g id="tx_2_1lza7y51lru7ly-fill-merged" stroke="none" fill="#484848"><g><text style="font: bold 25px Roboto, sans-serif; white-space: pre;" font-weight="bold" font-size="25px" font-family="Roboto, sans-serif"><tspan x="14.82" y="42.6" dominant-baseline="ideographic">2</tspan></text></g></g></g><g id="g-root-tx__zs6pbx1lru9zj-fill" data-item-order="0" transform="translate(471.67999267578125, 463)"><g id="tx__zs6pbx1lru9zj-fill-merged" stroke="none" fill="#3cc583"><g><text style="font: bold 20px Roboto, sans-serif; white-space: pre;" font-weight="bold" font-size="20px" font-family="Roboto, sans-serif"><tspan x="16.13" y="34" dominant-baseline="ideographic">10월초</tspan></text></g></g></g><g id="g-root-tx_n8n_4otpdp1lru8lp-fill" data-item-order="0" transform="translate(74, 499)"><g id="tx_n8n_4otpdp1lru8lp-fill-merged" stroke="none" fill="#484848"><g><text style="font: 15px Roboto, sans-serif; white-space: pre;" font-size="15px" font-family="Roboto, sans-serif"><tspan x="13.81" y="27.6" dominant-baseline="ideographic">엑셀 처리를 위한 n8n </tspan><tspan x="50.73" y="45.6" dominant-baseline="ideographic">서버 설정</tspan></text></g></g></g><g id="g-root-tx_midsepte_me8am51lru801-fill" data-item-order="0" transform="translate(66, 319)"><g id="tx_midsepte_me8am51lru801-fill-merged" stroke="none" fill="#484848"><g><text style="font: bold 20px Roboto, sans-serif; white-space: pre;" font-weight="bold" font-size="20px" font-family="Roboto, sans-serif"><tspan x="12" y="34" dominant-baseline="ideographic">   인프라 구축</tspan></text></g></g></g><g id="g-root-cp_1_circle-1_1haq2m51lrua6g-stroke" data-item-order="-331894" transform="translate(109.83984375, 138)"><g id="cp_1_circle-1_1haq2m51lrua6g-stroke" fill="none" stroke-linecap="round" stroke-linejoin="round" stroke-miterlimit="4" stroke="#484848" stroke-width="2"><g><path d="M 10.000002 46C 10.000002 65.882251 26.117751 82 46.000002 82C 65.882253 82 82.000002 65.882251 82.000002 46C 82.000002 26.117749 65.882253 10 46.000002 10C 26.117751 10 10.000002 26.117749 10.000002 46"></path></g></g></g><g id="g-root-sy_1_Subtract_13zw1bx1lru8ll-stroke" data-item-order="-331885" transform="translate(145.83987426757812, 210)"><g id="sy_1_Subtract_13zw1bx1lru8ll-stroke" fill="none" stroke-linecap="round" stroke-linejoin="round" stroke-miterlimit="4" stroke="#484848" stroke-width="2"><g><path d="M 10.000102 81.999998L 10.000002 9.999998"></path></g></g></g><g id="g-root-sy_2_Subtract_zk2j7h1lru9du-stroke" data-item-order="-331875" transform="translate(323.35986328125, 218)"><g id="sy_2_Subtract_zk2j7h1lru9du-stroke" fill="none" stroke-linecap="round" stroke-linejoin="round" stroke-miterlimit="4" stroke="#484848" stroke-width="2"><g><path d="M 10.000101 75L 10.000001 10"></path></g></g></g><g id="g-root-sy_2_Subtract-start_qofiyl1lrua6j-stroke" data-item-order="-331873" transform="translate(320.3599853515625, 211)"><g id="sy_2_Subtract-start_qofiyl1lrua6j-stroke" fill="none" stroke-linecap="round" stroke-linejoin="round" stroke-miterlimit="4" stroke="#484848" stroke-width="2"><g><path d="M 10.000001 13C 10.000001 14.6557 11.344301 16 13.000001 16C 14.655701 16 16 14.6557 16 13C 16 11.3443 14.655701 10 13.000001 10C 11.344301 10 10 11.3443 10.000001 13Z"></path></g></g></g><g id="g-root-cp_3_circle-3_m98hx91lru7t0-stroke" data-item-order="-331868" transform="translate(465.51983642578125, 138)"><g id="cp_3_circle-3_m98hx91lru7t0-stroke" fill="none" stroke-linecap="round" stroke-linejoin="round" stroke-miterlimit="4" stroke="#484848" stroke-width="2"><g><path d="M 10.000002 46C 10.000002 65.882251 26.117751 82 46.000002 82C 65.882253 82 82.000002 65.882251 82.000002 46C 82.000002 26.117749 65.882253 10 46.000002 10C 26.117751 10 10.000002 26.117749 10.000002 46"></path></g></g></g><g id="g-root-sy_3_Subtract_ddlhod1lru8lp-stroke" data-item-order="-331859" transform="translate(501.5198974609375, 210)"><g id="sy_3_Subtract_ddlhod1lru8lp-stroke" fill="none" stroke-linecap="round" stroke-linejoin="round" stroke-miterlimit="4" stroke="#484848" stroke-width="2"><g><path d="M 10.000102 81.999998L 10.000002 9.999998"></path></g></g></g><g id="g-root-cp_1_g-1_1_8xrzjx1lru9dy-stroke" data-item-order="-331854" transform="translate(85, 283)"><g id="cp_1_g-1_1_8xrzjx1lru9dy-stroke" fill="none" stroke-linecap="round" stroke-linejoin="round" stroke-miterlimit="4" stroke="#484848" stroke-width="2"><g><path d="M 16 22L 10 10L 131 10L 139 22M 16 94L 10 106L 131 106L 139 94"></path></g></g></g><g id="g-root-cp_0_g-0_1uo208t1lru7lz-stroke" data-item-order="-331848" transform="translate(30, 295)"><g id="cp_0_g-0_1uo208t1lru7lz-stroke" fill="none" stroke-linecap="round" stroke-linejoin="round" stroke-miterlimit="4" stroke="#484848" stroke-width="2"><g><path d="M 34 10L 178 10M 178 82L 34 82"></path></g></g><g id="cp_0_g-0_1uo208t1lru7lz-stroke" fill="none" stroke-linecap="round" stroke-linejoin="round" stroke-miterlimit="4" stroke="#484848" stroke-width="2"><g><path d="M 34 10L 10 10L 34 46L 10 82L 34 82"></path></g></g><g id="cp_0_g-0_1uo208t1lru7lz-stroke" fill="none" stroke-linecap="round" stroke-linejoin="round" stroke-miterlimit="4" stroke="#484848" stroke-width="2"><g><path d="M 172 82L 178 82L 202 46L 178 10L 172 10"></path></g></g></g><g id="g-root-cp_2_g-2_1_1q88i4d1lru8e8-stroke" data-item-order="-331824" transform="translate(269, 283)"><g id="cp_2_g-2_1_1q88i4d1lru8e8-stroke" fill="none" stroke-linecap="round" stroke-linejoin="round" stroke-miterlimit="4" stroke="#484848" stroke-width="2"><g><path d="M 16 22L 10 10L 131 10L 163 58L 131 106L 10 106L 16 94"></path></g></g></g><g id="g-root-cp_0_g-0_1_1hclhvh1lru96x-stroke" data-item-order="-331818" transform="translate(214, 295)"><g id="cp_0_g-0_1_1hclhvh1lru96x-stroke" fill="none" stroke-linecap="round" stroke-linejoin="round" stroke-miterlimit="4" stroke="#484848" stroke-width="2"><g><path d="M 34 10L 178 10M 178 82L 34 82"></path></g></g><g id="cp_0_g-0_1_1hclhvh1lru96x-stroke" fill="none" stroke-linecap="round" stroke-linejoin="round" stroke-miterlimit="4" stroke="#484848" stroke-width="2"><g><path d="M 10 10L 34 10M 10 82L 34 82"></path></g></g><g id="cp_0_g-0_1_1hclhvh1lru96x-stroke" fill="none" stroke-linecap="round" stroke-linejoin="round" stroke-miterlimit="4" stroke="#484848" stroke-width="2"><g><path d="M 172 82L 178 82L 202 46L 178 10L 172 10"></path></g></g></g><g id="g-root-cp_1_g-1_2_141rgl91lru7m2-stroke" data-item-order="-331804" transform="translate(214, 295)"><g id="cp_1_g-1_2_141rgl91lru7m2-stroke" fill="none" stroke-linecap="round" stroke-linejoin="round" stroke-miterlimit="4" stroke="#484848" stroke-width="2"><g><path d="M 10 10L 34 46L 10 82"></path></g></g></g><g id="g-root-cp_3_g-3_1_mahg3h1lru9z7-stroke" data-item-order="-331790" transform="translate(453, 283)"><g id="cp_3_g-3_1_mahg3h1lru9z7-stroke" fill="none" stroke-linecap="round" stroke-linejoin="round" stroke-miterlimit="4" stroke="#484848" stroke-width="2"><g><path d="M 16 22L 10 10L 131 10L 163 58L 131 106L 10 106L 16 94"></path></g></g></g><g id="g-root-cp_0_g-0_2_dfgwxp1lru7m4-stroke" data-item-order="-331784" transform="translate(398, 295)"><g id="cp_0_g-0_2_dfgwxp1lru7m4-stroke" fill="none" stroke-linecap="round" stroke-linejoin="round" stroke-miterlimit="4" stroke="#484848" stroke-width="2"><g><path d="M 34 10L 178 10M 178 82L 34 82"></path></g></g><g id="cp_0_g-0_2_dfgwxp1lru7m4-stroke" fill="none" stroke-linecap="round" stroke-linejoin="round" stroke-miterlimit="4" stroke="#484848" stroke-width="2"><g><path d="M 10 10L 34 10M 10 82L 34 82"></path></g></g><g id="cp_0_g-0_2_dfgwxp1lru7m4-stroke" fill="none" stroke-linecap="round" stroke-linejoin="round" stroke-miterlimit="4" stroke="#484848" stroke-width="2"><g><path d="M 172 82L 178 82L 202 46L 178 10L 172 10"></path></g></g></g><g id="g-root-cp_2_g-2_2_40ekd1lru971-stroke" data-item-order="-331770" transform="translate(398, 295)"><g id="cp_2_g-2_2_40ekd1lru971-stroke" fill="none" stroke-linecap="round" stroke-linejoin="round" stroke-miterlimit="4" stroke="#484848" stroke-width="2"><g><path d="M 10 10L 34 46L 10 82"></path></g></g></g><g id="g-root-sy_1_Subtract_1_1upayf11lru9s6-stroke" data-item-order="-331751" transform="translate(145.9998779296875, 379)"><g id="sy_1_Subtract_1_1upayf11lru9s6-stroke" fill="none" stroke-linecap="round" stroke-linejoin="round" stroke-miterlimit="4" stroke="#484848" stroke-width="2"><g><path d="M 10.000102 75.000013L 10.000002 10.000013"></path></g></g></g><g id="g-root-sy_1_Subtract-start_1luaf991lru7f3-stroke" data-item-order="-331749" transform="translate(143, 444)"><g id="sy_1_Subtract-start_1luaf991lru7f3-stroke" fill="none" stroke-linecap="round" stroke-linejoin="round" stroke-miterlimit="4" stroke="#484848" stroke-width="2"><g><path d="M 10 13C 10 14.6557 11.3443 16 13 16C 14.6557 16 16 14.6557 16 13C 16 11.3443 14.6557 10 13 10C 11.3443 10 10 11.3443 10 13Z"></path></g></g></g><g id="g-root-sy_2_Subtract_1_1hegx4t1lru87c-stroke" data-item-order="-331737" transform="translate(329.83990478515625, 379)"><g id="sy_2_Subtract_1_1hegx4t1lru87c-stroke" fill="none" stroke-linecap="round" stroke-linejoin="round" stroke-miterlimit="4" stroke="#484848" stroke-width="2"><g><path d="M 10.000102 82.000013L 10.000002 10.000013"></path></g></g></g><g id="g-root-cp_2_circle-2_1cynf0d1lru8zl-stroke" data-item-order="-331736" transform="translate(293.83984375, 451)"><g id="cp_2_circle-2_1cynf0d1lru8zl-stroke" fill="none" stroke-linecap="round" stroke-linejoin="round" stroke-miterlimit="4" stroke="#484848" stroke-width="2"><g><path d="M 10.000002 46C 10.000002 65.882251 26.117751 82 46.000002 82C 65.882253 82 82.000002 65.882251 82.000002 46C 82.000002 26.117749 65.882253 10 46.000002 10C 26.117751 10 10.000002 26.117749 10.000002 46"></path></g></g></g><g id="g-root-sy_3_Subtract_1_1430erh1lru9sa-stroke" data-item-order="-331725" transform="translate(507.679931640625, 379)"><g id="sy_3_Subtract_1_1430erh1lru9sa-stroke" fill="none" stroke-linecap="round" stroke-linejoin="round" stroke-miterlimit="4" stroke="#484848" stroke-width="2"><g><path d="M 10.000102 75.000013L 10.000002 10.000013"></path></g></g></g><g id="g-root-sy_3_Subtract-start_zntdq51lru7er-stroke" data-item-order="-331723" transform="translate(504.67999267578125, 444)"><g id="sy_3_Subtract-start_zntdq51lru7er-stroke" fill="none" stroke-linecap="round" stroke-linejoin="round" stroke-miterlimit="4" stroke="#484848" stroke-width="2"><g><path d="M 10 13C 10 14.6557 11.3443 16 13 16C 14.6557 16 16 14.6557 16 13C 16 11.3443 14.6557 10 13 10C 11.3443 10 10 11.3443 10 13Z"></path></g></g></g><g id="g-root-tx_latesept_1ut1sxp1lru7sy-stroke" data-item-order="0" transform="translate(250, 319)"></g><g id="g-root-tx_earlyoct_18lyabh1lrua6j-stroke" data-item-order="0" transform="translate(434, 319)"></g><g id="g-root-tx__hrjkjh1lrvnrc-stroke" data-item-order="0" transform="translate(441.67999267578125, 499)"></g><g id="g-root-tx_3_zp2bwd1lru9kw-stroke" data-item-order="0" transform="translate(489.67999267578125, 156)"></g><g id="g-root-tx_1_91iu2l1lru7et-stroke" data-item-order="0" transform="translate(134, 156)"></g><g id="g-root-tx_devbotpr_18kpc591lru80f-stroke" data-item-order="0" transform="translate(257.67999267578125, 138)"></g><g id="g-root-tx__qvaqwt1lru9dw-stroke" data-item-order="0" transform="translate(116, 463)"></g><g id="g-root-tx_devbot_1ur6dod1lru8sm-stroke" data-item-order="0" transform="translate(293.67999267578125, 102)"></g><g id="g-root-tx__qs6dh91lru87g-stroke" data-item-order="0" transform="translate(251.5, 38)"></g><g id="g-root-tx_2_1lza7y51lru7ly-stroke" data-item-order="0" transform="translate(317.8399658203125, 469)"></g><g id="g-root-tx__zs6pbx1lru9zj-stroke" data-item-order="0" transform="translate(471.67999267578125, 463)"></g><g id="g-root-tx_n8n_4otpdp1lru8lp-stroke" data-item-order="0" transform="translate(74, 499)"></g><g id="g-root-tx_midsepte_me8am51lru801-stroke" data-item-order="0" transform="translate(66, 319)"></g></g></g><path id="w2rpvx1nzmsxt" d="M65.283 12.757a.35.35 0 0 0 .584.157l5.203-5.141-6.183 3.523.396 1.461zm-2.216-11.7a.35.35 0 0 0-.522.305v3.111l3.276-1.868-2.754-1.548zm3.728 2.105l-4.25 2.421v2.445l6.391-3.644-2.141-1.222zm4.708 3.303a.35.35 0 0 0 0-.609l-1.592-.9-7.365 4.199v1.782a.35.35 0 0 0 .523.305l8.435-4.777z M44.542 2.513c0-.433.355-.783.792-.783s.792.35.792.783-.355.783-.792.783-.792-.35-.792-.783zm59.171 0c0-.433.355-.783.792-.783s.792.35.792.783-.355.783-.792.783-.792-.35-.792-.783zm-85.951 7.636h-1.27v-.487c-.276.201-.864.609-1.881.609-1.202 0-2.274-.794-2.137-2.078.118-1.106 1.153-1.584 1.848-1.727l2.17-.345c0-.539-.29-.956-1.064-1.006s-1.21.305-1.571 1.017l-1.124-.605c1.218-2.631 5.029-1.764 5.029.414v4.207zm-1.27-2.86c.006.396-.062 1.112-.819 1.59-.587.37-1.841.299-1.903-.395-.049-.555.461-.791.906-.898l1.816-.297zm72.662 2.86h-1.27v-.487c-.276.201-.864.609-1.881.609-1.202 0-2.274-.794-2.137-2.078.118-1.106 1.153-1.584 1.848-1.727l2.17-.345c0-.539-.29-.956-1.064-1.006s-1.21.305-1.571 1.017l-1.124-.605c1.218-2.631 5.029-1.764 5.029.414v4.207zm-1.27-2.86c.006.396-.062 1.112-.82 1.59-.587.37-1.841.299-1.903-.395-.049-.555.461-.791.906-.898l1.816-.297zM99.096 10.149H97.85v-8.45h1.246v4.895l2.68-2.559h1.738l-2.633 2.535 2.715 3.578h-1.556l-2.077-2.707-.867.844v1.863zm6.053-6.114h-1.255v6.113h1.255V4.035zm-59.2 0h-1.255v6.113h1.255V4.035zm5.584 6.113V1.697h1.255v2.695c.361-.346 1-.485 1.47-.485 1.452 0 2.477 1.082 2.457 2.448v3.792h-1.27v-3.68c0-.408-.214-1.339-1.315-1.339-.968 0-1.342.756-1.342 1.339v3.681h-1.255zm-4.76-4.894V4.039h.621a.45.45 0 0 0 .45-.45v-.855h1.251v1.305h1.309v1.215h-1.309v3.109c0 .293.105.664.648.664.365 0 .531-.035.736-.07v1.137s-.361.113-.857.113c-1.398 0-1.777-1.051-1.777-1.788V5.254h-1.071zM36.528 4.039h-1.394l2.191 6.106h1.125l1.234-3.918 1.238 3.918h1.129l2.188-6.106h-1.383l-1.359 3.93-1.256-3.93h-1.124l-1.242 3.957-1.348-3.957zM26.212 7.141c-.02 1.566 1.187 3.129 3.223 3.129 1.566 0 2.383-.918 2.734-1.719L31.172 8c-.315.399-.801 1.094-1.738 1.094-1.145 0-1.825-.781-1.891-1.52h4.625c.074-.284.148-.995-.03-1.559-.336-1.064-1.221-2.102-2.839-2.102s-3.088 1.152-3.088 3.227zm1.363-.75h3.348c-.055-.43-.566-1.301-1.623-1.301a1.79 1.79 0 0 0-1.725 1.301zm-8.758.75c.038 1.758 1.277 3.133 3.145 3.133 1.074 0 1.723-.477 1.961-.672v.547h1.242V1.703h-1.258v2.888c-.414-.36-1.062-.68-1.93-.68-1.91 0-3.198 1.473-3.16 3.23zm1.309-.08c0 1.119.723 1.978 1.836 1.978a1.88 1.88 0 0 0 1.94-1.904c0-1.371-1.011-1.99-1.972-1.99s-1.805.798-1.805 1.916zm76.683-.028C96.771 5.275 95.532 3.9 93.664 3.9c-1.074 0-1.723.477-1.961.672v-.547h-1.242v8.22h1.258V9.583c.414.36 1.063.68 1.93.68 1.91 0 3.198-1.473 3.16-3.23zm-1.309.08c0-1.119-.723-1.978-1.836-1.978a1.88 1.88 0 0 0-1.94 1.904c0 1.371 1.011 1.99 1.972 1.99S95.5 8.231 95.5 7.113zM106.441 10.173V4.036h1.254v.382c.361-.346 1-.485 1.47-.485 1.452 0 2.477 1.082 2.457 2.448v3.792h-1.27V6.492c0-.408-.214-1.339-1.315-1.339-.969 0-1.342.756-1.342 1.339v3.681h-1.254zm-30.383-.021V1.824h1.084l4.215 5.777V1.824h1.32v8.328h-1.094l-4.207-5.796v5.796h-1.319zM5.24 10.149H4V2.377h1.014l2.664 3.597 2.654-3.592h1.03v7.766h-1.256V4.762L7.678 8.068 5.24 4.742v5.407z" transform="translate(543, 596)" fill="#80808088" stroke="none"></path></svg>