<?xml version="1.0" encoding="utf-8" standalone="yes"?>
<!DOCTYPE svg PUBLIC "-//W3C//DTD SVG 1.1//EN" "http://www.w3.org/Graphics/SVG/1.1/DTD/svg11.dtd">
<svg width="756" height="510" viewBox="0 0 756 510" style="fill:none;stroke:none;fill-rule:evenodd;clip-rule:evenodd;stroke-linecap:round;stroke-linejoin:round;stroke-miterlimit:1.5;" version="1.1" xmlns="http://www.w3.org/2000/svg" xmlns:xlink="http://www.w3.org/1999/xlink"><style class="text-font-style fontImports" data-font-family="Roboto">@import url(https://fonts.googleapis.com/css2?family=Roboto:wght@400;700&amp;amp;display=block);</style><g id="items" style="isolation: isolate"><g id="blend" style="mix-blend-mode: normal"><g id="g-root-cp_0_g-0_4g3bm51nzlf65-fill" data-item-order="-293102" transform="translate(356, 158)"><g id="cp_0_g-0_4g3bm51nzlf65-fill-merged" stroke="none" fill="#666666"><g><path d="M370 10L280 64 V118L190 172 V226L100 280L10 226 V241.609L100 295.609L202 234.109 V180.009L292 126 V72.009L370 25.185 V10"></path></g></g><g id="cp_0_g-0_4g3bm51nzlf65-fill-merged" stroke="none" fill="#666666"><g><path d="M280 64L190 10 V64L280 118 V64"></path></g></g><g id="cp_0_g-0_4g3bm51nzlf65-fill-merged" stroke="none" fill="#666666"><g><path d="M190 172L100 118 V173L190 226 V172"></path></g></g></g><g id="g-root-cp_1_g-1_1q6dcb11nzlde6-fill" data-item-order="-293094" transform="translate(356, 320)"><g id="cp_1_g-1_1q6dcb11nzlde6-fill-merged" stroke="none" fill="#4e88e7"><g><path d="M100 10L10 64L100 118L190 64L100 10 M29 64L100 22L171 64L100 106L29 64"></path></g></g></g><g id="g-root-cp_2_g-2_1lqju6l1nzle6f-fill" data-item-order="-293090" transform="translate(446, 212)"><g id="cp_2_g-2_1lqju6l1nzle6f-fill-merged" stroke="none" fill="#3cc583"><g><path d="M100 10L10 64L100 118L190 64L100 10 M29 64L100 22L171 64L100 106L29 64"></path></g></g></g><g id="g-root-cp_3_g-3_1haqc251nzleyo-fill" data-item-order="-293086" transform="translate(536, 104)"><g id="cp_3_g-3_1haqc251nzleyo-fill-merged" stroke="none" fill="#92bd39"><g><path d="M100 10L10 64L100 118L190 64L100 10 M29 64L100 22L171 64L100 106L29 64"></path></g></g></g><g id="g-root-cp_2_text-2_13zwarx1nzlddt-fill" data-item-order="-293076" transform="translate(170, 230)"><g id="cp_2_text-2_13zwarx1nzlddt-fill-merged" stroke="none" fill="#3cc583"><g><path d="M10 10 H16 V82 H10 V10"></path></g></g></g><g id="g-root-cp_3_text-3_v49aj11nzle6i-fill" data-item-order="-293062" transform="translate(260, 122)"><g id="cp_3_text-3_v49aj11nzle6i-fill-merged" stroke="none" fill="#92bd39"><g><path d="M10 10 H16 V82 H10 V10"></path></g></g></g><g id="g-root-cp_1_text-1_htf98t1nzlcln-fill" data-item-order="-293048" transform="translate(80, 344)"><g id="cp_1_text-1_htf98t1nzlcln-fill-merged" stroke="none" fill="#4e88e7"><g><path d="M10 10 H16 V82 H10 V10"></path></g></g></g><g id="g-root-tx__ddlr4d1nzlddw-fill" data-item-order="0" transform="translate(242, 38)"><g id="tx__ddlr4d1nzlddw-fill-merged" stroke="none" fill="#484848"><g><text style="font: bold 25px Roboto, sans-serif; white-space: pre;" font-weight="bold" font-size="25px" font-family="Roboto, sans-serif"><tspan x="14.95" y="42.6" dominant-baseline="ideographic">NL2SQL 기반 질의응답</tspan></text></g></g></g><g id="g-root-tx_3_91hv9p1o9qmfi-fill" data-item-order="0" transform="translate(206, 122)"><g id="tx_3_91hv9p1o9qmfi-fill-merged" stroke="none" fill="#92bd39"><g><text style="font: bold 25px Roboto, sans-serif; white-space: pre;" font-weight="bold" font-size="25px" font-family="Roboto, sans-serif"><tspan x="14.82" y="42.6" dominant-baseline="ideographic">3</tspan></text></g></g></g><g id="g-root-tx__mcydn11o9p7gp-fill" data-item-order="0" transform="translate(278, 122)"><g id="tx__mcydn11o9p7gp-fill-merged" stroke="none" fill="#92bd39"><g><text style="font: bold 20px Roboto, sans-serif; white-space: pre;" font-weight="bold" font-size="20px" font-family="Roboto, sans-serif"><tspan x="12" y="34" dominant-baseline="ideographic">답변 생성</tspan></text></g></g></g><g id="g-root-ic_1_qpnf651o9rytf-fill" data-item-order="0" transform="translate(602, 134)"></g><g id="g-root-tx__1hgxuod1o9p5or-fill" data-item-order="0" transform="translate(278, 158)"><g id="tx__1hgxuod1o9p5or-fill-merged" stroke="none" fill="#484848"><g><text style="font: 15px Roboto, sans-serif; white-space: pre;" font-size="15px" font-family="Roboto, sans-serif"><tspan x="12" y="27.6" dominant-baseline="ideographic">검색된 결과를 사용하여 사용자에게 답</tspan><tspan x="12" y="45.6" dominant-baseline="ideographic">변을 생성합니다.</tspan></text></g></g></g><g id="g-root-tx_2_zrj9fx1o9nswe-fill" data-item-order="0" transform="translate(116, 230)"><g id="tx_2_zrj9fx1o9nswe-fill-merged" stroke="none" fill="#3cc583"><g><text style="font: bold 25px Roboto, sans-serif; white-space: pre;" font-weight="bold" font-size="25px" font-family="Roboto, sans-serif"><tspan x="14.82" y="42.6" dominant-baseline="ideographic">2</tspan></text></g></g></g><g id="g-root-tx_sql_deth1p1o9nrb4-fill" data-item-order="0" transform="translate(188, 230)"><g id="tx_sql_deth1p1o9nrb4-fill-merged" stroke="none" fill="#3cc583"><g><text style="font: bold 20px Roboto, sans-serif; white-space: pre;" font-weight="bold" font-size="20px" font-family="Roboto, sans-serif"><tspan x="12" y="34" dominant-baseline="ideographic">SQL 실행</tspan></text></g></g></g><g id="g-root-ic_shar_qwin4d1o9nsar-fill" data-item-order="0" transform="translate(512, 242)"></g><g id="g-root-tx_sql_vagt591o9nrii-fill" data-item-order="0" transform="translate(188, 266)"><g id="tx_sql_vagt591o9nrii-fill-merged" stroke="none" fill="#484848"><g><text style="font: 15px Roboto, sans-serif; white-space: pre;" font-size="15px" font-family="Roboto, sans-serif"><tspan x="12" y="27.6" dominant-baseline="ideographic">생성된 SQL 쿼리를 실행하여 데이터베</tspan><tspan x="12" y="45.6" dominant-baseline="ideographic">이스에서 결과를 검색합니다.</tspan></text></g></g></g><g id="g-root-tx_1_1ut0u4t1o9qmto-fill" data-item-order="0" transform="translate(26, 344)"><g id="tx_1_1ut0u4t1o9qmto-fill-merged" stroke="none" fill="#4e88e7"><g><text style="font: bold 25px Roboto, sans-serif; white-space: pre;" font-weight="bold" font-size="25px" font-family="Roboto, sans-serif"><tspan x="14.82" y="42.6" dominant-baseline="ideographic">1</tspan></text></g></g></g><g id="g-root-tx__zpnu6l1o9qlfu-fill" data-item-order="0" transform="translate(98, 344)"><g id="tx__zpnu6l1o9qlfu-fill-merged" stroke="none" fill="#4e88e7"><g><text style="font: bold 20px Roboto, sans-serif; white-space: pre;" font-weight="bold" font-size="20px" font-family="Roboto, sans-serif"><tspan x="12" y="34" dominant-baseline="ideographic">질문 분석 &gt; SQL 생성</tspan></text></g></g></g><g id="g-root-ic_1_1lsf9fx1nzld6t-fill" data-item-order="0" transform="translate(422, 350)"></g><g id="g-root-tx_sql_metswd1o9qjuz-fill" data-item-order="0" transform="translate(98, 380)"><g id="tx_sql_metswd1o9qjuz-fill-merged" stroke="none" fill="#484848"><g><text style="font: 15px Roboto, sans-serif; white-space: pre;" font-size="15px" font-family="Roboto, sans-serif"><tspan x="12" y="27.6" dominant-baseline="ideographic">사용자 질문을 이해하고 분석하여 SQL </tspan><tspan x="12" y="45.6" dominant-baseline="ideographic">쿼리를 생성합니다.</tspan></text></g></g></g><g id="g-root-cp_0_g-0_4g3bm51nzlf65-stroke" data-item-order="-293102" transform="translate(356, 158)"><g id="cp_0_g-0_4g3bm51nzlf65-stroke" fill="none" stroke-linecap="round" stroke-linejoin="round" stroke-miterlimit="4" stroke="#ffffff" stroke-width="2"><g><path d="M 370 10L 280 64L 280 118L 190 172L 190 226L 100 280L 10 226L 10 241.6089L 100 295.6089L 202 234.1089L 202 180.009L 292 126L 292 72.009L 370 25.1852L 370 10Z"></path></g></g><g id="cp_0_g-0_4g3bm51nzlf65-stroke" fill="none" stroke-linecap="round" stroke-linejoin="round" stroke-miterlimit="4" stroke="#ffffff" stroke-width="2"><g><path d="M 280 64L 190 10L 190 64L 280 118L 280 64Z"></path></g></g><g id="cp_0_g-0_4g3bm51nzlf65-stroke" fill="none" stroke-linecap="round" stroke-linejoin="round" stroke-miterlimit="4" stroke="#ffffff" stroke-width="2"><g><path d="M 190 172L 100 118L 100 173L 190 226L 190 172Z"></path></g></g></g><g id="g-root-cp_1_g-1_1q6dcb11nzlde6-stroke" data-item-order="-293094" transform="translate(356, 320)"><g id="cp_1_g-1_1q6dcb11nzlde6-stroke" fill="none" stroke-linecap="round" stroke-linejoin="round" stroke-miterlimit="4" stroke="#ffffff" stroke-width="2"><g><path d="M 100 10L 10 64L 100 118L 190 64L 100 10ZM 29 64L 100 22L 171 64L 100 106L 29 64Z"></path></g></g></g><g id="g-root-cp_2_g-2_1lqju6l1nzle6f-stroke" data-item-order="-293090" transform="translate(446, 212)"><g id="cp_2_g-2_1lqju6l1nzle6f-stroke" fill="none" stroke-linecap="round" stroke-linejoin="round" stroke-miterlimit="4" stroke="#ffffff" stroke-width="2"><g><path d="M 100 10L 10 64L 100 118L 190 64L 100 10ZM 29 64L 100 22L 171 64L 100 106L 29 64Z"></path></g></g></g><g id="g-root-cp_3_g-3_1haqc251nzleyo-stroke" data-item-order="-293086" transform="translate(536, 104)"><g id="cp_3_g-3_1haqc251nzleyo-stroke" fill="none" stroke-linecap="round" stroke-linejoin="round" stroke-miterlimit="4" stroke="#ffffff" stroke-width="2"><g><path d="M 100 10L 10 64L 100 118L 190 64L 100 10ZM 29 64L 100 22L 171 64L 100 106L 29 64Z"></path></g></g></g><g id="g-root-cp_2_text-2_13zwarx1nzlddt-stroke" data-item-order="-293076" transform="translate(170, 230)"><g id="cp_2_text-2_13zwarx1nzlddt-stroke" fill="none" stroke-linecap="round" stroke-linejoin="round" stroke-miterlimit="4" stroke="#ffffff" stroke-width="2"><g><path d="M 10 10L 16 10L 16 82L 10 82Z"></path></g></g></g><g id="g-root-cp_3_text-3_v49aj11nzle6i-stroke" data-item-order="-293062" transform="translate(260, 122)"><g id="cp_3_text-3_v49aj11nzle6i-stroke" fill="none" stroke-linecap="round" stroke-linejoin="round" stroke-miterlimit="4" stroke="#ffffff" stroke-width="2"><g><path d="M 10 10L 16 10L 16 82L 10 82Z"></path></g></g></g><g id="g-root-cp_1_text-1_htf98t1nzlcln-stroke" data-item-order="-293048" transform="translate(80, 344)"><g id="cp_1_text-1_htf98t1nzlcln-stroke" fill="none" stroke-linecap="round" stroke-linejoin="round" stroke-miterlimit="4" stroke="#ffffff" stroke-width="2"><g><path d="M 10 10L 16 10L 16 82L 10 82Z"></path></g></g></g><g id="g-root-tx__ddlr4d1nzlddw-stroke" data-item-order="0" transform="translate(242, 38)"></g><g id="g-root-tx_3_91hv9p1o9qmfi-stroke" data-item-order="0" transform="translate(206, 122)"></g><g id="g-root-tx__mcydn11o9p7gp-stroke" data-item-order="0" transform="translate(278, 122)"></g><g id="g-root-ic_1_qpnf651o9rytf-stroke" data-item-order="0" transform="translate(602, 134)"><g id="ic_1_qpnf651o9rytf-stroke" fill="none" stroke-linecap="round" stroke-linejoin="round" stroke-miterlimit="4" stroke="#484848" stroke-width="2"><g><path d="M 24.39996 35.900002C 24.39996 30.700001 28.799959 26.299999 34 26.299999C 39.200001 26.299999 43.599998 30.700001 43.599998 35.900002C 43.599998 38.5 42.599998 40.900002 40.799999 42.700001C 39.200001 44.299999 38.200001 46.5 38.200001 48.900002L 38.200001 50.900002C 38.200001 52.900002 36.599998 54.5 34.599998 54.5L 33.400002 54.5C 31.4 54.5 29.799959 52.900002 29.799959 50.900002L 29.799959 48.900002C 29.799959 46.5 28.799959 44.299999 27.199961 42.700001C 25.39996 40.900002 24.39996 38.5 24.39996 35.900002ZM 34 54.5L 34 56.5M 29.632759 47.299999L 38.343597 47.299999M 52.5 44.799999C 54.709 44.799999 56.5 43.009201 56.5 40.799999C 56.5 38.591 54.709 36.799999 52.5 36.799999C 50.290798 36.799999 48.5 38.591 48.5 40.799999C 48.5 43.009201 50.290798 44.799999 52.5 44.799999ZM 14.90008 30.5C 14.90008 20.1 23.50008 11.5 33.900002 11.5C 44.299999 11.5 52.900002 20.1 52.900002 30.5M 10 10M 46.299999 22.300201L 51.900002 16.700199M 14.900061 41.4002C 15.23144 41.4002 15.50006 41.131599 15.50006 40.800201C 15.50006 40.4688 15.23144 40.200199 14.900061 40.200199M 14.900101 41.4002C 14.56874 41.4002 14.3001 41.131599 14.3001 40.800201C 14.3001 40.4688 14.56874 40.200199 14.900101 40.200199"></path></g></g></g><g id="g-root-tx__1hgxuod1o9p5or-stroke" data-item-order="0" transform="translate(278, 158)"></g><g id="g-root-tx_2_zrj9fx1o9nswe-stroke" data-item-order="0" transform="translate(116, 230)"></g><g id="g-root-tx_sql_deth1p1o9nrb4-stroke" data-item-order="0" transform="translate(188, 230)"></g><g id="g-root-ic_shar_qwin4d1o9nsar-stroke" data-item-order="0" transform="translate(512, 242)"><g id="ic_shar_qwin4d1o9nsar-stroke" fill="none" stroke-linecap="round" stroke-linejoin="round" stroke-miterlimit="4" stroke="#484848" stroke-width="2"><g><path d="M 56.841999 13.21L 56.841999 26.691999M 37.578003 11L 54.956001 11C 54.956001 11 57 11 57 13.044L 57 29.4C 57 29.4 57 31.444 54.956001 31.444L 37.578003 31.444C 37.578003 31.444 35.534 31.444 35.534 29.4L 35.534 13.044C 35.534 13.044 35.534 11 37.578003 11M 35.534 17.962L 57 17.962M 35.534 24.704L 57 24.704M 45.242001 17.962L 45.242001 31.444M 11 38.436001C 11.0055 37.310715 11.918699 36.401085 13.044001 36.400002L 33.487999 36.400002C 34.617195 36.400002 35.532898 37.314808 35.534 38.444L 35.534 49.076C 35.532898 50.205193 34.617195 51.120003 33.487999 51.120003L 13.044 51.119999C 12.500672 51.119473 11.979868 50.902855 11.596428 50.517914C 11.212988 50.132973 10.998406 49.611328 11 49.068001ZM 21 51.112L 19.4 57M 25.542 51.112L 27.125999 57M 17.133999 57L 29.4 57M 20.200001 24.616001L 15.6 29.030001L 15.6 24.616001C 15.668884 21.296635 18.414597 18.661037 21.734001 18.728001L 29.4 18.728001M 11 24.616001L 15.6 29.032M 24.799999 14.312L 29.4 18.728001L 24.799999 23.144001"></path></g></g></g><g id="g-root-tx_sql_vagt591o9nrii-stroke" data-item-order="0" transform="translate(188, 266)"></g><g id="g-root-tx_1_1ut0u4t1o9qmto-stroke" data-item-order="0" transform="translate(26, 344)"></g><g id="g-root-tx__zpnu6l1o9qlfu-stroke" data-item-order="0" transform="translate(98, 344)"></g><g id="g-root-ic_1_1lsf9fx1nzld6t-stroke" data-item-order="0" transform="translate(422, 350)"><g id="ic_1_1lsf9fx1nzld6t-stroke" fill="none" stroke-linecap="round" stroke-linejoin="round" stroke-miterlimit="4" stroke="#484848" stroke-width="2"><g><path d="M 17.68 27.18C 20.33193 29.950932 24.004557 31.512522 27.84 31.500002C 29.757292 31.49474 31.654284 31.107182 33.419998 30.360001M 16.5 31.5C 16.5 36.19442 20.30558 40 25 40C 29.69442 40 33.5 36.19442 33.5 31.5C 33.5 26.80558 29.69442 23 25 23C 20.30558 23 16.5 26.80558 16.5 31.5M 11 57C 11.000001 49.268017 17.268013 43.000004 25 43.000004C 32.731987 43.000004 39 49.268017 39 57.000004ZM 41 34C 41.332615 34.03093 41.667381 34.03093 42 34C 44.052883 33.864658 45.91452 32.747677 47 31C 61 31 59.759998 11 46.799999 11C 44.204826 10.963085 41.722267 12.058331 40 14C 37.660019 12.849548 34.937244 12.765522 32.530777 13.769494C 30.124308 14.773466 28.268555 16.767643 27.440001 19.24M 42 40C 42 41.104568 42.895432 42 44 42C 45.104568 42 46 41.104568 46 40C 46 38.895432 45.104568 38 44 38C 42.895432 38 42 38.895432 42 40M 43 21.5C 43.276142 21.5 43.5 21.723858 43.5 22L 43.5 22C 43.5 22.276142 43.276142 22.5 43 22.5L 43 22.5C 42.723858 22.5 42.5 22.276142 42.5 22L 42.5 22C 42.5 21.723858 42.723858 21.5 43 21.5M 43 21.5L 43 21.5M 49 21.5C 49.276142 21.5 49.5 21.723858 49.5 22L 49.5 22C 49.5 22.276142 49.276142 22.5 49 22.5L 49 22.5C 48.723858 22.5 48.5 22.276142 48.5 22L 48.5 22C 48.5 21.723858 48.723858 21.5 49 21.5M 49 21.5L 49 21.5M 37 21.5C 37.276142 21.5 37.5 21.723858 37.5 22L 37.5 22C 37.5 22.276142 37.276142 22.5 37 22.5L 37 22.5C 36.723858 22.5 36.5 22.276142 36.5 22L 36.5 22C 36.5 21.723858 36.723858 21.5 37 21.5M 37 21.5L 37 21.5M 37 42.5C 37.276142 42.5 37.5 42.723858 37.5 43L 37.5 43C 37.5 43.276142 37.276142 43.5 37 43.5L 37 43.5C 36.723858 43.5 36.5 43.276142 36.5 43L 36.5 43C 36.5 42.723858 36.723858 42.5 37 42.5M 37 42.5L 37 42.5"></path></g></g></g><g id="g-root-tx_sql_metswd1o9qjuz-stroke" data-item-order="0" transform="translate(98, 380)"></g></g></g><path id="wv6qefx1nprdab" d="M65.283 12.757a.35.35 0 0 0 .584.157l5.203-5.141-6.183 3.523.396 1.461zm-2.216-11.7a.35.35 0 0 0-.522.305v3.111l3.276-1.868-2.754-1.548zm3.728 2.105l-4.25 2.421v2.445l6.391-3.644-2.141-1.222zm4.708 3.303a.35.35 0 0 0 0-.609l-1.592-.9-7.365 4.199v1.782a.35.35 0 0 0 .523.305l8.435-4.777z M44.542 2.513c0-.433.355-.783.792-.783s.792.35.792.783-.355.783-.792.783-.792-.35-.792-.783zm59.171 0c0-.433.355-.783.792-.783s.792.35.792.783-.355.783-.792.783-.792-.35-.792-.783zm-85.951 7.636h-1.27v-.487c-.276.201-.864.609-1.881.609-1.202 0-2.274-.794-2.137-2.078.118-1.106 1.153-1.584 1.848-1.727l2.17-.345c0-.539-.29-.956-1.064-1.006s-1.21.305-1.571 1.017l-1.124-.605c1.218-2.631 5.029-1.764 5.029.414v4.207zm-1.27-2.86c.006.396-.062 1.112-.819 1.59-.587.37-1.841.299-1.903-.395-.049-.555.461-.791.906-.898l1.816-.297zm72.662 2.86h-1.27v-.487c-.276.201-.864.609-1.881.609-1.202 0-2.274-.794-2.137-2.078.118-1.106 1.153-1.584 1.848-1.727l2.17-.345c0-.539-.29-.956-1.064-1.006s-1.21.305-1.571 1.017l-1.124-.605c1.218-2.631 5.029-1.764 5.029.414v4.207zm-1.27-2.86c.006.396-.062 1.112-.82 1.59-.587.37-1.841.299-1.903-.395-.049-.555.461-.791.906-.898l1.816-.297zM99.096 10.149H97.85v-8.45h1.246v4.895l2.68-2.559h1.738l-2.633 2.535 2.715 3.578h-1.556l-2.077-2.707-.867.844v1.863zm6.053-6.114h-1.255v6.113h1.255V4.035zm-59.2 0h-1.255v6.113h1.255V4.035zm5.584 6.113V1.697h1.255v2.695c.361-.346 1-.485 1.47-.485 1.452 0 2.477 1.082 2.457 2.448v3.792h-1.27v-3.68c0-.408-.214-1.339-1.315-1.339-.968 0-1.342.756-1.342 1.339v3.681h-1.255zm-4.76-4.894V4.039h.621a.45.45 0 0 0 .45-.45v-.855h1.251v1.305h1.309v1.215h-1.309v3.109c0 .293.105.664.648.664.365 0 .531-.035.736-.07v1.137s-.361.113-.857.113c-1.398 0-1.777-1.051-1.777-1.788V5.254h-1.071zM36.528 4.039h-1.394l2.191 6.106h1.125l1.234-3.918 1.238 3.918h1.129l2.188-6.106h-1.383l-1.359 3.93-1.256-3.93h-1.124l-1.242 3.957-1.348-3.957zM26.212 7.141c-.02 1.566 1.187 3.129 3.223 3.129 1.566 0 2.383-.918 2.734-1.719L31.172 8c-.315.399-.801 1.094-1.738 1.094-1.145 0-1.825-.781-1.891-1.52h4.625c.074-.284.148-.995-.03-1.559-.336-1.064-1.221-2.102-2.839-2.102s-3.088 1.152-3.088 3.227zm1.363-.75h3.348c-.055-.43-.566-1.301-1.623-1.301a1.79 1.79 0 0 0-1.725 1.301zm-8.758.75c.038 1.758 1.277 3.133 3.145 3.133 1.074 0 1.723-.477 1.961-.672v.547h1.242V1.703h-1.258v2.888c-.414-.36-1.062-.68-1.93-.68-1.91 0-3.198 1.473-3.16 3.23zm1.309-.08c0 1.119.723 1.978 1.836 1.978a1.88 1.88 0 0 0 1.94-1.904c0-1.371-1.011-1.99-1.972-1.99s-1.805.798-1.805 1.916zm76.683-.028C96.771 5.275 95.532 3.9 93.664 3.9c-1.074 0-1.723.477-1.961.672v-.547h-1.242v8.22h1.258V9.583c.414.36 1.063.68 1.93.68 1.91 0 3.198-1.473 3.16-3.23zm-1.309.08c0-1.119-.723-1.978-1.836-1.978a1.88 1.88 0 0 0-1.94 1.904c0 1.371 1.011 1.99 1.972 1.99S95.5 8.231 95.5 7.113zM106.441 10.173V4.036h1.254v.382c.361-.346 1-.485 1.47-.485 1.452 0 2.477 1.082 2.457 2.448v3.792h-1.27V6.492c0-.408-.214-1.339-1.315-1.339-.969 0-1.342.756-1.342 1.339v3.681h-1.254zm-30.383-.021V1.824h1.084l4.215 5.777V1.824h1.32v8.328h-1.094l-4.207-5.796v5.796h-1.319zM5.24 10.149H4V2.377h1.014l2.664 3.597 2.654-3.592h1.03v7.766h-1.256V4.762L7.678 8.068 5.24 4.742v5.407z" transform="translate(620, 476)" fill="#80808088" stroke="none"></path></svg>