<?xml version="1.0" encoding="utf-8" standalone="yes"?>
<!DOCTYPE svg PUBLIC "-//W3C//DTD SVG 1.1//EN" "http://www.w3.org/Graphics/SVG/1.1/DTD/svg11.dtd">
<svg width="684" height="588" viewBox="0 0 684 588" style="fill:none;stroke:none;fill-rule:evenodd;clip-rule:evenodd;stroke-linecap:round;stroke-linejoin:round;stroke-miterlimit:1.5;" version="1.1" xmlns="http://www.w3.org/2000/svg" xmlns:xlink="http://www.w3.org/1999/xlink"><style class="text-font-style fontImports" data-font-family="Roboto">@import url(https://fonts.googleapis.com/css2?family=Roboto:wght@400;700&amp;amp;display=block);</style><g id="items" style="isolation: isolate"><g id="blend" style="mix-blend-mode: normal"><g id="g-root-cp_1_g-1_1_1hi72cd1otwsnh-fill" data-item-order="-282330" transform="translate(218, 98)"><g id="cp_1_g-1_1_1hi72cd1otwsnh-fill-merged" stroke="none" fill="url(#gradient-ffeb37-386795387)"><g><path d="M202 22 V130 H10 V22C10 15.396 15.396 10 22 10 H190C196.616 10 202 15.384 202 22"></path></g></g></g><g id="g-root-cp_0_g-0_1_146qjz11otwu8e-fill" data-item-order="-282302" transform="translate(218, 218)"><g id="cp_0_g-0_1_146qjz11otwu8e-fill-merged" stroke="none" fill="url(#gradient-cbcbcb-248399021)"><g><path d="M10 250 V10 H202 V250C202 256.627 196.627 262 190 262 H22C15.373 262 10 256.627 10 250"></path></g></g></g><g id="g-root-cp_1-1_cell-1-1_qvwiot1otwsnj-fill" data-item-order="-282281" transform="translate(230, 230)"></g><g id="g-root-cp_2-1_cell-2-1_mg30kd1otwtfs-fill" data-item-order="-282263" transform="translate(230, 326)"></g><g id="g-root-cp_3-1_cell-3-1_958za51otwrux-fill" data-item-order="-282245" transform="translate(230, 386)"></g><g id="g-root-cp_1_g-1_2_4pfh5p1otwsn6-fill" data-item-order="-282226" transform="translate(434, 98)"><g id="cp_1_g-1_2_4pfh5p1otwsn6-fill-merged" stroke="none" fill="url(#gradient-fcaa5f-123734360)"><g><path d="M202 22 V130 H10 V22C10 15.396 15.396 10 22 10 H190C196.616 10 202 15.384 202 22"></path></g></g></g><g id="g-root-cp_0_g-0_2_1qf30rh1otwu0z-fill" data-item-order="-282196" transform="translate(434, 218)"><defs><linearGradient id="gradient-ffeb37-386795387" x2="0" y2="1"><stop offset="0" stop-color="#ffef63"></stop><stop offset="1" stop-color="#ffe60a"></stop></linearGradient><linearGradient id="gradient-cbcbcb-248399021" x2="0" y2="1"><stop offset="0" stop-color="#d9d9d9"></stop><stop offset="1" stop-color="#bcbcbc"></stop></linearGradient><linearGradient id="gradient-fcaa5f-123734360" x2="0" y2="1"><stop offset="0" stop-color="#ffbf84"></stop><stop offset="1" stop-color="#f99539"></stop></linearGradient></defs><g id="cp_0_g-0_2_1qf30rh1otwu0z-fill-merged" stroke="none" fill="url(#gradient-cbcbcb-248399021)"><g><path d="M10 250 V10 H202 V250C202 256.627 196.627 262 190 262 H22C15.373 262 10 256.627 10 250"></path></g></g></g><g id="g-root-cp_1-2_cell-1-2_1cu9e3h1oty70k-fill" data-item-order="-282175" transform="translate(446, 230)"></g><g id="g-root-cp_2-2_cell-2-2_zisvq51oty8lh-fill" data-item-order="-282157" transform="translate(446, 326)"></g><g id="g-root-cp_3-2_cell-3-2_qnsckd1oty68e-fill" data-item-order="-282139" transform="translate(446, 386)"></g><g id="g-root-tx_4060_dhbmvx1otzle2-fill" data-item-order="0" transform="translate(248, 242)"><g id="tx_4060_dhbmvx1otzle2-fill-merged" stroke="none" fill="#484848"><g><text style="font: 15px Roboto, sans-serif; white-space: pre;" font-size="15px" font-family="Roboto, sans-serif"><tspan x="58.35" y="30.6" dominant-baseline="ideographic">40% </tspan><tspan x="17.69" y="48.6" dominant-baseline="ideographic">(추가 정보 제공 시 </tspan><tspan x="57.6" y="66.6" dominant-baseline="ideographic">60%)</tspan></text></g></g></g><g id="g-root-tx__13z8y3h1otmz2g-fill" data-item-order="0" transform="translate(488, 182)"><g id="tx__13z8y3h1otmz2g-fill-merged" stroke="none" fill="#484848"><g><text style="font: bold 20px Roboto, sans-serif; white-space: pre;" font-weight="bold" font-size="20px" font-family="Roboto, sans-serif"><tspan x="12.71" y="34" dominant-baseline="ideographic">개선 결과</tspan></text></g></g></g><g id="g-root-tx__1lrrwrh1otmyvf-fill" data-item-order="0" transform="translate(458, 398)"><g id="tx__1lrrwrh1otmyvf-fill-merged" stroke="none" fill="#484848"><g><text style="font: bold 20px Roboto, sans-serif; white-space: pre;" font-weight="bold" font-size="20px" font-family="Roboto, sans-serif"><tspan x="12.63" y="34" dominant-baseline="ideographic">다양한 파일에 동</tspan><tspan x="33.51" y="58" dominant-baseline="ideographic">일 알고리즘</tspan></text></g></g></g><g id="g-root-tx_100gpt58_m8leot1otmy9t-fill" data-item-order="0" transform="translate(458, 248)"><g id="tx_100gpt58_m8leot1otmy9t-fill-merged" stroke="none" fill="#484848"><g><text style="font: bold 20px Roboto, sans-serif; white-space: pre;" font-weight="bold" font-size="20px" font-family="Roboto, sans-serif"><tspan x="20.03" y="34" dominant-baseline="ideographic">100% (GPT-5)</tspan><tspan x="17.13" y="58" dominant-baseline="ideographic">80% (GPT-4.1)</tspan></text></g></g></g><g id="g-root-tx__4hbb191oty680-fill" data-item-order="0" transform="translate(50, 338)"><g id="tx__4hbb191oty680-fill-merged" stroke="none" fill="#484848"><g><text style="font: bold 20px Roboto, sans-serif; white-space: pre;" font-weight="bold" font-size="20px" font-family="Roboto, sans-serif"><tspan x="19.65" y="34" dominant-baseline="ideographic">문서 검색 시간</tspan></text></g></g></g><g id="g-root-tx__143m6jh1otzle1-fill" data-item-order="0" transform="translate(290, 182)"><g id="tx__143m6jh1otzle1-fill-merged" stroke="none" fill="#484848"><g><text style="font: bold 20px Roboto, sans-serif; white-space: pre;" font-weight="bold" font-size="20px" font-family="Roboto, sans-serif"><tspan x="15.6" y="34" dominant-baseline="ideographic">기존</tspan></text></g></g></g><g id="g-root-tx_15_1lw557h1otzl6z-fill" data-item-order="0" transform="translate(278, 338)"><g id="tx_15_1lw557h1otzl6z-fill-merged" stroke="none" fill="#484848"><g><text style="font: 15px Roboto, sans-serif; white-space: pre;" font-size="15px" font-family="Roboto, sans-serif"><tspan x="15.01" y="30.6" dominant-baseline="ideographic">15분 이상</tspan></text></g></g></g><g id="g-root-ic_1_hye36l1otzmrx-fill" data-item-order="0" transform="translate(506, 122)"></g><g id="g-root-tx_3_24d5p1otmxhm-fill" data-item-order="0" transform="translate(488, 338)"><g id="tx_3_24d5p1otmxhm-fill-merged" stroke="none" fill="#484848"><g><text style="font: bold 20px Roboto, sans-serif; white-space: pre;" font-weight="bold" font-size="20px" font-family="Roboto, sans-serif"><tspan x="16.17" y="34" dominant-baseline="ideographic">3분 이내</tspan></text></g></g></g><g id="g-root-tx__1hbbue51oty8eh-fill" data-item-order="0" transform="translate(38, 410)"><g id="tx__1hbbue51oty8eh-fill-merged" stroke="none" fill="#484848"><g><text style="font: bold 20px Roboto, sans-serif; white-space: pre;" font-weight="bold" font-size="20px" font-family="Roboto, sans-serif"><tspan x="13.25" y="34" dominant-baseline="ideographic">엑셀 처리 범용성</tspan></text></g></g></g><g id="g-root-ic_3_m9u9p91oty60z-fill" data-item-order="0" transform="translate(290, 122)"></g><g id="g-root-tx__144v4pp1otznk4-fill" data-item-order="0" transform="translate(242, 404)"><g id="tx__144v4pp1otznk4-fill-merged" stroke="none" fill="#484848"><g><text style="font: 15px Roboto, sans-serif; white-space: pre;" font-size="15px" font-family="Roboto, sans-serif"><tspan x="33.15" y="27.6" dominant-baseline="ideographic">각 엑셀 파일 별 </tspan><tspan x="16.18" y="45.6" dominant-baseline="ideographic">특별한 알고리즘 필요</tspan></text></g></g></g><g id="g-root-tx__140ht3x1oty6tm-fill" data-item-order="0" transform="translate(194, 38)"><g id="tx__140ht3x1oty6tm-fill-merged" stroke="none" fill="#484848"><g><text style="font: bold 25px Roboto, sans-serif; white-space: pre;" font-weight="bold" font-size="25px" font-family="Roboto, sans-serif"><tspan x="17.18" y="42.6" dominant-baseline="ideographic">정량적 및 정성적 개선</tspan></text></g></g></g><g id="g-root-tx__m7yufx1oty70n-fill" data-item-order="0" transform="translate(38, 260)"><g id="tx__m7yufx1oty70n-fill-merged" stroke="none" fill="#484848"><g><text style="font: bold 20px Roboto, sans-serif; white-space: pre;" font-weight="bold" font-size="20px" font-family="Roboto, sans-serif"><tspan x="13.25" y="34" dominant-baseline="ideographic">질문 응답 정확도</tspan></text></g></g></g><g id="g-root-cp_1_g-1_1_1hi72cd1otwsnh-stroke" data-item-order="-282330" transform="translate(218, 98)"><g id="cp_1_g-1_1_1hi72cd1otwsnh-stroke" fill="none" stroke-linecap="round" stroke-linejoin="round" stroke-miterlimit="4" stroke="#484848" stroke-width="2"><g><path d="M 22 10C 15.373 10 10 15.373 10 22M 202 130L 202 22M 10 22L 10 130M 22 10L 190 10M 202 22C 202 15.3826 196.6174 10 190 10"></path></g></g></g><g id="g-root-cp_0_g-0_1_146qjz11otwu8e-stroke" data-item-order="-282302" transform="translate(218, 218)"><g id="cp_0_g-0_1_146qjz11otwu8e-stroke" fill="none" stroke-linecap="round" stroke-linejoin="round" stroke-miterlimit="4" stroke="#484848" stroke-width="2"><g><path d="M 10 250.000015C 10 256.627415 15.3726 262.000015 22 262.000015M 190 262.000015L 22 262.000015M 190 262.000015C 196.6274 262.000015 202 256.627415 202 250.000015M 202 10L 202 250.000015M 10 250.000015L 10 10M 202 10L 10 10"></path></g></g></g><g id="g-root-cp_1-1_cell-1-1_qvwiot1otwsnj-stroke" data-item-order="-282281" transform="translate(230, 230)"><g id="cp_1-1_cell-1-1_qvwiot1otwsnj-stroke" fill="none" stroke-linecap="round" stroke-linejoin="round" stroke-miterlimit="4" stroke="#484848" stroke-width="2"><g><path d="M 10 22L 10 16C 10 12.6863 12.6863 10 16 10L 22 10M 178 22L 178 82M 10 82L 10 22M 22 10L 166 10M 10 82L 10 88C 10 91.3137 12.6863 94 16 94L 22 94M 178 22L 178 16C 178 12.6863 175.3137 10 172 10L 166 10M 166 94L 22 94M 178 82L 178 88C 178 91.3137 175.3137 94 172 94L 166 94"></path></g></g></g><g id="g-root-cp_2-1_cell-2-1_mg30kd1otwtfs-stroke" data-item-order="-282263" transform="translate(230, 326)"><g id="cp_2-1_cell-2-1_mg30kd1otwtfs-stroke" fill="none" stroke-linecap="round" stroke-linejoin="round" stroke-miterlimit="4" stroke="#484848" stroke-width="2"><g><path d="M 10 22L 10 16C 10 12.6863 12.6863 10 16 10L 22 10M 178 22L 178 46M 10 46L 10 22M 22 10L 166 10M 10 46L 10 52C 10 55.3137 12.6863 58 16 58L 22 58M 178 22L 178 16C 178 12.6863 175.3137 10 172 10L 166 10M 166 58L 22 58M 178 46L 178 52C 178 55.3137 175.3137 58 172 58L 166 58"></path></g></g></g><g id="g-root-cp_3-1_cell-3-1_958za51otwrux-stroke" data-item-order="-282245" transform="translate(230, 386)"><g id="cp_3-1_cell-3-1_958za51otwrux-stroke" fill="none" stroke-linecap="round" stroke-linejoin="round" stroke-miterlimit="4" stroke="#484848" stroke-width="2"><g><path d="M 10 22L 10 16C 10 12.6863 12.6863 10 16 10L 22 10M 178 22L 178 70M 10 70L 10 22M 22 10L 166 10M 10 70L 10 76C 10 79.3137 12.6863 82 16 82L 22 82M 178 22L 178 16C 178 12.6863 175.3137 10 172 10L 166 10M 166 82L 22 82M 178 70L 178 76C 178 79.3137 175.3137 82 172 82L 166 82"></path></g></g></g><g id="g-root-cp_1_g-1_2_4pfh5p1otwsn6-stroke" data-item-order="-282226" transform="translate(434, 98)"><g id="cp_1_g-1_2_4pfh5p1otwsn6-stroke" fill="none" stroke-linecap="round" stroke-linejoin="round" stroke-miterlimit="4" stroke="#484848" stroke-width="2"><g><path d="M 22 10C 15.373 10 10 15.373 10 22M 202 130L 202 22M 10 22L 10 130M 22 10L 190 10M 202 22C 202 15.3826 196.6174 10 190 10"></path></g></g></g><g id="g-root-cp_0_g-0_2_1qf30rh1otwu0z-stroke" data-item-order="-282196" transform="translate(434, 218)"><g id="cp_0_g-0_2_1qf30rh1otwu0z-stroke" fill="none" stroke-linecap="round" stroke-linejoin="round" stroke-miterlimit="4" stroke="#484848" stroke-width="2"><g><path d="M 10 250.000015C 10 256.627415 15.3726 262.000015 22 262.000015M 190 262.000015L 22 262.000015M 190 262.000015C 196.6274 262.000015 202 256.627415 202 250.000015M 202 10L 202 250.000015M 10 250.000015L 10 10M 202 10L 10 10"></path></g></g></g><g id="g-root-cp_1-2_cell-1-2_1cu9e3h1oty70k-stroke" data-item-order="-282175" transform="translate(446, 230)"><g id="cp_1-2_cell-1-2_1cu9e3h1oty70k-stroke" fill="none" stroke-linecap="round" stroke-linejoin="round" stroke-miterlimit="4" stroke="#484848" stroke-width="2"><g><path d="M 10 22L 10 16C 10 12.6863 12.6863 10 16 10L 22 10M 178 22L 178 82M 10 82L 10 22M 22 10L 166 10M 10 82L 10 88C 10 91.3137 12.6863 94 16 94L 22 94M 178 22L 178 16C 178 12.6863 175.3137 10 172 10L 166 10M 166 94L 22 94M 178 82L 178 88C 178 91.3137 175.3137 94 172 94L 166 94"></path></g></g></g><g id="g-root-cp_2-2_cell-2-2_zisvq51oty8lh-stroke" data-item-order="-282157" transform="translate(446, 326)"><g id="cp_2-2_cell-2-2_zisvq51oty8lh-stroke" fill="none" stroke-linecap="round" stroke-linejoin="round" stroke-miterlimit="4" stroke="#484848" stroke-width="2"><g><path d="M 10 22L 10 16C 10 12.6863 12.6863 10 16 10L 22 10M 178 22L 178 46M 10 46L 10 22M 22 10L 166 10M 10 46L 10 52C 10 55.3137 12.6863 58 16 58L 22 58M 178 22L 178 16C 178 12.6863 175.3137 10 172 10L 166 10M 166 58L 22 58M 178 46L 178 52C 178 55.3137 175.3137 58 172 58L 166 58"></path></g></g></g><g id="g-root-cp_3-2_cell-3-2_qnsckd1oty68e-stroke" data-item-order="-282139" transform="translate(446, 386)"><g id="cp_3-2_cell-3-2_qnsckd1oty68e-stroke" fill="none" stroke-linecap="round" stroke-linejoin="round" stroke-miterlimit="4" stroke="#484848" stroke-width="2"><g><path d="M 10 22L 10 16C 10 12.6863 12.6863 10 16 10L 22 10M 178 22L 178 70M 10 70L 10 22M 22 10L 166 10M 10 70L 10 76C 10 79.3137 12.6863 82 16 82L 22 82M 178 22L 178 16C 178 12.6863 175.3137 10 172 10L 166 10M 166 82L 22 82M 178 70L 178 76C 178 79.3137 175.3137 82 172 82L 166 82"></path></g></g></g><g id="g-root-tx_4060_dhbmvx1otzle2-stroke" data-item-order="0" transform="translate(248, 242)"></g><g id="g-root-tx__13z8y3h1otmz2g-stroke" data-item-order="0" transform="translate(488, 182)"></g><g id="g-root-tx__1lrrwrh1otmyvf-stroke" data-item-order="0" transform="translate(458, 398)"></g><g id="g-root-tx_100gpt58_m8leot1otmy9t-stroke" data-item-order="0" transform="translate(458, 248)"></g><g id="g-root-tx__4hbb191oty680-stroke" data-item-order="0" transform="translate(50, 338)"></g><g id="g-root-tx__143m6jh1otzle1-stroke" data-item-order="0" transform="translate(290, 182)"></g><g id="g-root-tx_15_1lw557h1otzl6z-stroke" data-item-order="0" transform="translate(278, 338)"></g><g id="g-root-ic_1_hye36l1otzmrx-stroke" data-item-order="0" transform="translate(506, 122)"><g id="ic_1_hye36l1otzmrx-stroke" fill="none" stroke-linecap="round" stroke-linejoin="round" stroke-miterlimit="4" stroke="#484848" stroke-width="2"><g><path d="M 10 10M 15.96314 43.025002L 11.777804 52.224998C 11.3792 53.025002 11.379196 54.224998 11.977104 55.025002C 12.575 55.825001 13.57152 56.424999 14.56804 56.424999L 53.431999 56.424999C 54.6278 56.424999 55.424999 55.825001 56.0228 55.025002C 56.6208 54.224998 56.6208 53.224998 56.222198 52.224998L 51.837601 43.025002M 15.96314 43.025002L 51.837601 43.025002M 15.96314 43.025002L 15.96314 23.425041C 15.96314 22.62504 16.162439 22.02504 16.760361 21.425041M 51.837601 43.025002L 51.837601 23.425041C 51.837601 22.62504 51.638199 22.02504 51.040401 21.425041M 31.110201 50.424999L 37.089199 50.424999M 10 10M 36.478798 13.225019L 37.278801 15.82504C 37.478798 16.825039 38.478798 17.22506 39.478798 17.025061L 42.278801 16.42502C 44.678799 15.82502 46.278801 18.825039 44.678799 20.62504L 42.678799 22.62504C 42.0788 23.425041 42.0788 24.42502 42.678799 25.225021L 44.678799 27.225019C 46.278801 29.025021 44.678799 31.825001 42.278801 31.424999L 39.478798 30.825001C 38.478798 30.625 37.678802 31.225 37.278801 32.025002L 36.478798 34.625C 35.678802 37.025002 32.478798 37.025002 31.678801 34.625L 30.878799 32.025002C 30.678801 31.025 29.678761 30.625 28.678761 30.825001L 25.878761 31.424999C 23.47876 32.025002 21.878761 29.025021 23.47876 27.225019L 25.47876 25.225021C 26.07876 24.42502 26.07876 23.425041 25.47876 22.62504L 23.47876 20.62504C 21.878761 18.825039 23.47876 16.025021 25.878761 16.42502L 28.678761 17.025061C 29.678761 17.22506 30.4788 16.62504 30.878799 15.82504L 31.678801 13.225019C 32.478798 11.025012 35.878799 11.025012 36.478798 13.225019ZM 10 10M 36.678802 21.625061L 33.678802 24.625061"></path></g></g></g><g id="g-root-tx_3_24d5p1otmxhm-stroke" data-item-order="0" transform="translate(488, 338)"></g><g id="g-root-tx__1hbbue51oty8eh-stroke" data-item-order="0" transform="translate(38, 410)"></g><g id="g-root-ic_3_m9u9p91oty60z-stroke" data-item-order="0" transform="translate(290, 122)"><g id="ic_3_m9u9p91oty60z-stroke" fill="none" stroke-linecap="round" stroke-linejoin="round" stroke-miterlimit="4" stroke="#484848" stroke-width="2"><g><path d="M 12.562 36.23C 12.563679 26.40909 19.371765 17.900902 28.953245 15.745562C 38.534729 13.59022 48.330441 18.363407 52.537548 27.237556C 56.744652 36.11171 54.239456 46.716579 46.506001 52.77M 46.436001 44.77L 46.433998 52.77L 55.438 52.77M 23.434 36.23L 33.562 36.23L 39.354 43.467999"></path></g></g></g><g id="g-root-tx__144v4pp1otznk4-stroke" data-item-order="0" transform="translate(242, 404)"></g><g id="g-root-tx__140ht3x1oty6tm-stroke" data-item-order="0" transform="translate(194, 38)"></g><g id="g-root-tx__m7yufx1oty70n-stroke" data-item-order="0" transform="translate(38, 260)"></g></g></g><path id="w24d651pxcx6x" d="M65.283 12.757a.35.35 0 0 0 .584.157l5.203-5.141-6.183 3.523.396 1.461zm-2.216-11.7a.35.35 0 0 0-.522.305v3.111l3.276-1.868-2.754-1.548zm3.728 2.105l-4.25 2.421v2.445l6.391-3.644-2.141-1.222zm4.708 3.303a.35.35 0 0 0 0-.609l-1.592-.9-7.365 4.199v1.782a.35.35 0 0 0 .523.305l8.435-4.777z M44.542 2.513c0-.433.355-.783.792-.783s.792.35.792.783-.355.783-.792.783-.792-.35-.792-.783zm59.171 0c0-.433.355-.783.792-.783s.792.35.792.783-.355.783-.792.783-.792-.35-.792-.783zm-85.951 7.636h-1.27v-.487c-.276.201-.864.609-1.881.609-1.202 0-2.274-.794-2.137-2.078.118-1.106 1.153-1.584 1.848-1.727l2.17-.345c0-.539-.29-.956-1.064-1.006s-1.21.305-1.571 1.017l-1.124-.605c1.218-2.631 5.029-1.764 5.029.414v4.207zm-1.27-2.86c.006.396-.062 1.112-.819 1.59-.587.37-1.841.299-1.903-.395-.049-.555.461-.791.906-.898l1.816-.297zm72.662 2.86h-1.27v-.487c-.276.201-.864.609-1.881.609-1.202 0-2.274-.794-2.137-2.078.118-1.106 1.153-1.584 1.848-1.727l2.17-.345c0-.539-.29-.956-1.064-1.006s-1.21.305-1.571 1.017l-1.124-.605c1.218-2.631 5.029-1.764 5.029.414v4.207zm-1.27-2.86c.006.396-.062 1.112-.82 1.59-.587.37-1.841.299-1.903-.395-.049-.555.461-.791.906-.898l1.816-.297zM99.096 10.149H97.85v-8.45h1.246v4.895l2.68-2.559h1.738l-2.633 2.535 2.715 3.578h-1.556l-2.077-2.707-.867.844v1.863zm6.053-6.114h-1.255v6.113h1.255V4.035zm-59.2 0h-1.255v6.113h1.255V4.035zm5.584 6.113V1.697h1.255v2.695c.361-.346 1-.485 1.47-.485 1.452 0 2.477 1.082 2.457 2.448v3.792h-1.27v-3.68c0-.408-.214-1.339-1.315-1.339-.968 0-1.342.756-1.342 1.339v3.681h-1.255zm-4.76-4.894V4.039h.621a.45.45 0 0 0 .45-.45v-.855h1.251v1.305h1.309v1.215h-1.309v3.109c0 .293.105.664.648.664.365 0 .531-.035.736-.07v1.137s-.361.113-.857.113c-1.398 0-1.777-1.051-1.777-1.788V5.254h-1.071zM36.528 4.039h-1.394l2.191 6.106h1.125l1.234-3.918 1.238 3.918h1.129l2.188-6.106h-1.383l-1.359 3.93-1.256-3.93h-1.124l-1.242 3.957-1.348-3.957zM26.212 7.141c-.02 1.566 1.187 3.129 3.223 3.129 1.566 0 2.383-.918 2.734-1.719L31.172 8c-.315.399-.801 1.094-1.738 1.094-1.145 0-1.825-.781-1.891-1.52h4.625c.074-.284.148-.995-.03-1.559-.336-1.064-1.221-2.102-2.839-2.102s-3.088 1.152-3.088 3.227zm1.363-.75h3.348c-.055-.43-.566-1.301-1.623-1.301a1.79 1.79 0 0 0-1.725 1.301zm-8.758.75c.038 1.758 1.277 3.133 3.145 3.133 1.074 0 1.723-.477 1.961-.672v.547h1.242V1.703h-1.258v2.888c-.414-.36-1.062-.68-1.93-.68-1.91 0-3.198 1.473-3.16 3.23zm1.309-.08c0 1.119.723 1.978 1.836 1.978a1.88 1.88 0 0 0 1.94-1.904c0-1.371-1.011-1.99-1.972-1.99s-1.805.798-1.805 1.916zm76.683-.028C96.771 5.275 95.532 3.9 93.664 3.9c-1.074 0-1.723.477-1.961.672v-.547h-1.242v8.22h1.258V9.583c.414.36 1.063.68 1.93.68 1.91 0 3.198-1.473 3.16-3.23zm-1.309.08c0-1.119-.723-1.978-1.836-1.978a1.88 1.88 0 0 0-1.94 1.904c0 1.371 1.011 1.99 1.972 1.99S95.5 8.231 95.5 7.113zM106.441 10.173V4.036h1.254v.382c.361-.346 1-.485 1.47-.485 1.452 0 2.477 1.082 2.457 2.448v3.792h-1.27V6.492c0-.408-.214-1.339-1.315-1.339-.969 0-1.342.756-1.342 1.339v3.681h-1.254zm-30.383-.021V1.824h1.084l4.215 5.777V1.824h1.32v8.328h-1.094l-4.207-5.796v5.796h-1.319zM5.24 10.149H4V2.377h1.014l2.664 3.597 2.654-3.592h1.03v7.766h-1.256V4.762L7.678 8.068 5.24 4.742v5.407z" transform="translate(548, 554)" fill="#80808088" stroke="none"></path></svg>